<?xml version="1.0" encoding="UTF-8"?><svg id="Layer_2" xmlns="http://www.w3.org/2000/svg" viewBox="0 0 718.48 297.96"><defs><style>.cls-1{fill:#fff;}.cls-2{fill:#ed1c24;}</style></defs><g id="Layer_1-2"><rect class="cls-1" x="15" y="15.76" width="267.19" height="267.19"/><path class="cls-2" d="M267.19,30.76v237.19H30V30.76h237.19M297.19.76H0v297.19h297.19V.76h0Z"/><path class="cls-1" d="M569.88,282.19c-73.67,0-133.6-59.93-133.6-133.6S496.22,15,569.88,15s133.6,59.93,133.6,133.6-59.93,133.6-133.6,133.6Z"/><path class="cls-2" d="M569.88,30c31.68,0,61.46,12.34,83.86,34.74s34.74,52.18,34.74,83.86-12.34,61.46-34.74,83.86-52.18,34.74-83.86,34.74-61.46-12.34-83.86-34.74c-22.4-22.4-34.74-52.18-34.74-83.86s12.34-61.46,34.74-83.86c22.4-22.4,52.18-34.74,83.86-34.74M569.88,0c-82.07,0-148.6,66.53-148.6,148.6s66.53,148.6,148.6,148.6,148.6-66.53,148.6-148.6S651.95,0,569.88,0h0Z"/><path d="M73.3,139.76h-5.05v-24.18h11.05c4.68,0,7.51,3,7.51,7.75,0,2.19-1.21,7.71-7.71,7.71h-5.79v8.72ZM77.98,126.86c3.77,0,3.77-2.69,3.77-3.77,0-2.36-1.31-3.33-4.45-3.33h-4.01v7.11h4.68Z"/><path d="M90.7,115.58h12.22c6.43,0,7.61,4.75,7.61,6.84,0,2.66-1.35,4.95-3.74,5.76,1.99.88,3.06,1.62,3.06,6.13,0,3.54,0,4.41,1.08,4.82v.64h-5.59c-.34-1.15-.54-2.39-.54-4.88,0-3.3-.2-4.58-3.94-4.58h-5.22v9.46h-4.95v-24.18ZM101.58,126.22c2.63,0,3.91-.91,3.91-3.3,0-1.28-.57-3.17-3.54-3.17h-6.3v6.47h5.93Z"/><path d="M124.88,114.94c3.2,0,11.62,1.38,11.62,12.73s-8.42,12.73-11.62,12.73-11.62-1.38-11.62-12.73,8.42-12.73,11.62-12.73ZM124.88,136.12c2.73,0,6.57-1.68,6.57-8.45s-3.84-8.45-6.57-8.45-6.57,1.68-6.57,8.45,3.84,8.45,6.57,8.45Z"/><path d="M145.18,139.76h-5.05v-24.18h5.05v24.18Z"/><path d="M149.89,115.58h11.75c5.93,0,7.44,3.7,7.44,6.2,0,3.47-1.95,4.45-2.96,4.95,2.96,1.11,3.74,3.47,3.74,5.86,0,1.92-.81,3.74-2.09,4.98-1.38,1.35-2.69,2.19-7.64,2.19h-10.24v-24.18ZM154.74,125.04h5.93c1.99,0,3.57-.77,3.57-2.69s-1.41-2.59-3.7-2.59h-5.79v5.29ZM154.74,135.58h6.2c2.46,0,3.87-1.08,3.87-3.54,0-2.12-1.82-2.93-3.64-2.93h-6.43v6.47Z"/><path d="M178.85,139.76h-5.05v-24.18h5.05v24.18Z"/><path d="M183.56,115.58h10.67c8.15,0,9.83,6.94,9.83,11.52,0,5.19-2.05,12.66-10.04,12.66h-10.47v-24.18ZM188.51,135.58h4.92c4.11,0,5.49-4.14,5.49-8.12,0-7.14-3.4-7.71-5.56-7.71h-4.85v15.83Z"/><path d="M218.41,114.94c3.2,0,11.62,1.38,11.62,12.73s-8.42,12.73-11.62,12.73-11.62-1.38-11.62-12.73,8.42-12.73,11.62-12.73ZM218.41,136.12c2.73,0,6.57-1.68,6.57-8.45s-3.84-8.45-6.57-8.45-6.57,1.68-6.57,8.45,3.84,8.45,6.57,8.45Z"/><path d="M60.17,160.26h-12.83v5.09h11.79v4.28h-11.79v6.26h13.4v4.28h-18.35v-24.18h17.78v4.28Z"/><path d="M68.45,172.72c.03,1.35.71,3.91,5.12,3.91,2.39,0,5.05-.57,5.05-3.13,0-1.89-1.82-2.39-4.38-3l-2.59-.61c-3.91-.91-7.68-1.79-7.68-7.11,0-2.69,1.45-7.44,9.29-7.44,7.41,0,9.4,4.85,9.43,7.81h-4.85c-.13-1.08-.54-3.64-4.95-3.64-1.92,0-4.21.71-4.21,2.9,0,1.89,1.55,2.29,2.56,2.53l5.89,1.45c3.3.81,6.33,2.16,6.33,6.5,0,7.27-7.41,7.91-9.53,7.91-8.82,0-10.34-5.08-10.34-8.08h4.85Z"/><path d="M96.9,180.16h-5.05v-19.9h-7.31v-4.28h19.67v4.28h-7.31v19.9Z"/><path d="M107.61,180.16h-5.32l8.62-24.18h5.83l8.52,24.18h-5.49l-1.55-4.98h-8.92l-1.68,4.98ZM110.64,171h6.16l-3-9.56h-.07l-3.1,9.56Z"/><path d="M142.56,163.89c-.4-1.45-1.18-4.18-5.35-4.18-2.42,0-5.99,1.62-5.99,8.45,0,4.34,1.72,8.25,5.99,8.25,2.8,0,4.75-1.58,5.35-4.55h5.05c-1.01,5.25-4.45,8.92-10.51,8.92-6.43,0-11.05-4.34-11.05-12.7s4.88-12.76,11.11-12.76c7.24,0,10.17,4.98,10.44,8.55h-5.05Z"/><path d="M156.09,180.16h-5.05v-24.18h5.05v24.18Z"/><path d="M171.34,155.34c3.2,0,11.62,1.38,11.62,12.73s-8.42,12.73-11.62,12.73-11.62-1.38-11.62-12.73,8.42-12.73,11.62-12.73ZM171.34,176.52c2.73,0,6.57-1.68,6.57-8.45s-3.84-8.45-6.57-8.45-6.57,1.68-6.57,8.45,3.84,8.45,6.57,8.45Z"/><path d="M201.75,155.98h4.71v24.18h-5.05l-9.87-17.24h-.07v17.24h-4.71v-24.18h5.32l9.6,16.84h.07v-16.84Z"/><path d="M214.74,180.16h-5.32l8.62-24.18h5.83l8.52,24.18h-5.49l-1.55-4.98h-8.92l-1.68,4.98ZM217.77,171h6.16l-3-9.56h-.07l-3.1,9.56Z"/><path d="M235.61,155.98h12.22c6.43,0,7.61,4.75,7.61,6.84,0,2.66-1.35,4.95-3.74,5.76,1.99.88,3.06,1.62,3.06,6.13,0,3.54,0,4.41,1.08,4.82v.64h-5.59c-.34-1.15-.54-2.39-.54-4.88,0-3.3-.2-4.58-3.94-4.58h-5.22v9.46h-4.95v-24.18ZM246.49,166.62c2.63,0,3.91-.91,3.91-3.3,0-1.28-.57-3.17-3.54-3.17h-6.3v6.47h5.93Z"/><path d="M632.21,92h-92.94v36.84h85.38v30.98h-85.38v45.37h97.09v30.98h-132.95V61.02h128.8v30.98Z"/><rect class="cls-2" x="451.81" y="133.6" width="236.14" height="30" transform="translate(61.84 446.49) rotate(-45)"/></g></svg>