<svg width="758" height="569" viewBox="0 0 758 569" fill="none" xmlns="http://www.w3.org/2000/svg">
<rect x="2" y="190" width="252" height="94" fill="#232531"/>
<rect x="2" y="190" width="252" height="94" stroke="white" stroke-width="4"/>
<path d="M52.0801 260V224.132C52.0801 221.527 52.5518 219.312 53.4951 217.487C54.459 215.662 55.7817 214.278 57.4634 213.334C59.145 212.371 61.083 211.889 63.2773 211.889C64.6309 211.889 66.1074 212.114 67.707 212.565C69.3066 212.996 70.7832 213.611 72.1367 214.411L70.168 218.902C69.1016 218.164 68.0044 217.61 66.8765 217.241C65.7485 216.872 64.7334 216.688 63.8311 216.688C61.9238 216.688 60.3652 217.292 59.1553 218.502C57.9658 219.692 57.3711 221.507 57.3711 223.947V260H52.0801ZM43.8359 232.191V227.393H70.2295V232.191H43.8359ZM89.4863 260.492C87.4766 260.492 85.6616 260.103 84.0415 259.323C82.4214 258.544 81.1396 257.437 80.1963 256.001C79.2529 254.545 78.7812 252.802 78.7812 250.771C78.7812 248.803 79.3145 247.019 80.3809 245.419C81.4473 243.819 83.0776 242.548 85.272 241.604C87.4663 240.661 90.2656 240.189 93.6699 240.189H100.438V244.435H94.0391C92.4395 244.435 90.8604 244.629 89.3018 245.019C87.7637 245.409 86.4819 246.065 85.4565 246.988C84.4517 247.911 83.9492 249.172 83.9492 250.771C83.9492 251.858 84.2261 252.792 84.7798 253.571C85.3335 254.33 86.0718 254.914 86.9946 255.324C87.938 255.734 88.9736 255.939 90.1016 255.939C91.4551 255.939 92.8496 255.642 94.2852 255.047C95.7412 254.432 96.9614 253.55 97.9458 252.402C98.9507 251.233 99.4531 249.808 99.4531 248.126V244.742L99.3301 242.835V239.205C99.3301 238.672 99.2891 237.995 99.207 237.175C99.125 236.334 98.8789 235.503 98.4688 234.683C98.0791 233.863 97.4126 233.176 96.4692 232.622C95.5259 232.048 94.2031 231.761 92.501 231.761C91.4961 231.761 90.4092 231.894 89.2402 232.161C88.0713 232.407 86.9331 232.755 85.8257 233.207C84.7183 233.658 83.7441 234.181 82.9033 234.775L80.9346 230.038C82.0215 229.402 83.2314 228.849 84.5645 228.377C85.918 227.885 87.3125 227.505 88.748 227.239C90.2041 226.972 91.6191 226.839 92.9932 226.839C95.9463 226.839 98.2432 227.413 99.8838 228.562C101.545 229.71 102.704 231.217 103.36 233.083C104.037 234.929 104.375 236.929 104.375 239.082V250.525C104.375 251.899 104.508 252.986 104.775 253.786C105.062 254.586 105.585 255.14 106.344 255.447L106.959 255.693L104.99 260.492L104.129 260.123C102.98 259.631 101.996 258.903 101.176 257.939C100.355 256.975 99.9453 256.021 99.9453 255.078L100.991 255.447H98.9609L100.314 254.586C99.5146 256.206 98.1509 257.601 96.2231 258.77C94.3159 259.918 92.0703 260.492 89.4863 260.492ZM132.245 260.492C129.969 260.492 127.99 260.041 126.308 259.139C124.626 258.216 123.314 256.944 122.371 255.324C121.448 253.704 120.986 251.838 120.986 249.726V212.627H126.277V249.172C126.277 251.038 126.811 252.576 127.877 253.786C128.964 254.976 130.461 255.57 132.368 255.57C133.701 255.57 135.024 255.293 136.336 254.74C137.669 254.166 138.808 253.499 139.751 252.74L141.781 257.601C140.428 258.462 138.92 259.159 137.259 259.692C135.619 260.226 133.947 260.492 132.245 260.492ZM163.622 260.492C161.469 260.492 159.5 260.133 157.716 259.416C155.952 258.677 154.455 257.734 153.225 256.585C152.015 255.417 151.153 254.196 150.641 252.925L155.562 250.895C156.116 252.084 157.121 253.161 158.577 254.125C160.033 255.088 161.776 255.57 163.807 255.57C165.058 255.57 166.237 255.386 167.344 255.017C168.452 254.627 169.344 254.094 170.021 253.417C170.718 252.72 171.066 251.899 171.066 250.956C171.066 249.849 170.595 248.967 169.651 248.311C168.729 247.634 167.529 247.07 166.052 246.619C164.596 246.147 163.048 245.675 161.407 245.204C159.767 244.711 158.208 244.106 156.731 243.389C155.275 242.65 154.076 241.697 153.132 240.528C152.209 239.338 151.748 237.811 151.748 235.944C151.748 233.935 152.302 232.263 153.409 230.93C154.537 229.577 155.983 228.572 157.747 227.916C159.51 227.239 161.366 226.9 163.314 226.9C166.062 226.9 168.482 227.516 170.574 228.746C172.666 229.956 174.204 231.515 175.188 233.422L170.328 235.452C169.815 234.55 168.975 233.719 167.806 232.96C166.637 232.202 165.099 231.822 163.191 231.822C161.571 231.822 160.115 232.161 158.823 232.837C157.552 233.514 156.916 234.529 156.916 235.883C156.916 237.031 157.377 237.954 158.3 238.651C159.244 239.328 160.443 239.902 161.899 240.374C163.376 240.825 164.935 241.276 166.575 241.728C168.216 242.179 169.764 242.743 171.22 243.419C172.697 244.096 173.896 244.999 174.819 246.126C175.763 247.234 176.234 248.7 176.234 250.525C176.234 252.515 175.65 254.258 174.481 255.755C173.333 257.252 171.794 258.421 169.867 259.262C167.959 260.082 165.878 260.492 163.622 260.492ZM199.921 260.492C196.927 260.492 194.281 259.785 191.984 258.37C189.708 256.934 187.924 254.955 186.632 252.433C185.36 249.89 184.725 246.957 184.725 243.635C184.725 240.333 185.34 237.431 186.57 234.929C187.801 232.407 189.513 230.438 191.708 229.023C193.902 227.608 196.435 226.9 199.306 226.9C201.992 226.9 204.361 227.536 206.412 228.808C208.483 230.059 210.103 231.812 211.272 234.068C212.441 236.303 213.025 238.897 213.025 241.851C213.025 242.466 212.995 243.143 212.933 243.881C212.872 244.619 212.779 245.255 212.656 245.788H188.785V241.481H207.857C207.857 239.574 207.488 237.903 206.75 236.467C206.012 235.011 204.997 233.873 203.705 233.053C202.413 232.232 200.926 231.822 199.244 231.822C197.398 231.822 195.758 232.325 194.322 233.33C192.907 234.314 191.79 235.698 190.969 237.482C190.169 239.246 189.77 241.297 189.77 243.635C189.77 245.993 190.2 248.075 191.062 249.879C191.943 251.664 193.153 253.058 194.691 254.063C196.25 255.068 198.034 255.57 200.044 255.57C201.438 255.57 202.884 255.283 204.381 254.709C205.899 254.114 207.242 253.314 208.411 252.31L210.38 257.047C209.088 258.031 207.478 258.852 205.55 259.508C203.643 260.164 201.767 260.492 199.921 260.492Z" fill="white"/>
<rect x="253" y="190" width="252" height="94" fill="#232531"/>
<rect x="253" y="190" width="252" height="94" stroke="white" stroke-width="4"/>
<path d="M303.08 260V224.132C303.08 221.527 303.552 219.312 304.495 217.487C305.459 215.662 306.782 214.278 308.463 213.334C310.145 212.371 312.083 211.889 314.277 211.889C315.631 211.889 317.107 212.114 318.707 212.565C320.307 212.996 321.783 213.611 323.137 214.411L321.168 218.902C320.102 218.164 319.004 217.61 317.876 217.241C316.749 216.872 315.733 216.688 314.831 216.688C312.924 216.688 311.365 217.292 310.155 218.502C308.966 219.692 308.371 221.507 308.371 223.947V260H303.08ZM294.836 232.191V227.393H321.229V232.191H294.836ZM340.486 260.492C338.477 260.492 336.662 260.103 335.042 259.323C333.421 258.544 332.14 257.437 331.196 256.001C330.253 254.545 329.781 252.802 329.781 250.771C329.781 248.803 330.314 247.019 331.381 245.419C332.447 243.819 334.078 242.548 336.272 241.604C338.466 240.661 341.266 240.189 344.67 240.189H351.438V244.435H345.039C343.439 244.435 341.86 244.629 340.302 245.019C338.764 245.409 337.482 246.065 336.457 246.988C335.452 247.911 334.949 249.172 334.949 250.771C334.949 251.858 335.226 252.792 335.78 253.571C336.333 254.33 337.072 254.914 337.995 255.324C338.938 255.734 339.974 255.939 341.102 255.939C342.455 255.939 343.85 255.642 345.285 255.047C346.741 254.432 347.961 253.55 348.946 252.402C349.951 251.233 350.453 249.808 350.453 248.126V244.742L350.33 242.835V239.205C350.33 238.672 350.289 237.995 350.207 237.175C350.125 236.334 349.879 235.503 349.469 234.683C349.079 233.863 348.413 233.176 347.469 232.622C346.526 232.048 345.203 231.761 343.501 231.761C342.496 231.761 341.409 231.894 340.24 232.161C339.071 232.407 337.933 232.755 336.826 233.207C335.718 233.658 334.744 234.181 333.903 234.775L331.935 230.038C333.021 229.402 334.231 228.849 335.564 228.377C336.918 227.885 338.312 227.505 339.748 227.239C341.204 226.972 342.619 226.839 343.993 226.839C346.946 226.839 349.243 227.413 350.884 228.562C352.545 229.71 353.704 231.217 354.36 233.083C355.037 234.929 355.375 236.929 355.375 239.082V250.525C355.375 251.899 355.508 252.986 355.775 253.786C356.062 254.586 356.585 255.14 357.344 255.447L357.959 255.693L355.99 260.492L355.129 260.123C353.98 259.631 352.996 258.903 352.176 257.939C351.355 256.975 350.945 256.021 350.945 255.078L351.991 255.447H349.961L351.314 254.586C350.515 256.206 349.151 257.601 347.223 258.77C345.316 259.918 343.07 260.492 340.486 260.492ZM383.245 260.492C380.969 260.492 378.99 260.041 377.308 259.139C375.626 258.216 374.314 256.944 373.371 255.324C372.448 253.704 371.986 251.838 371.986 249.726V212.627H377.277V249.172C377.277 251.038 377.811 252.576 378.877 253.786C379.964 254.976 381.461 255.57 383.368 255.57C384.701 255.57 386.024 255.293 387.336 254.74C388.669 254.166 389.808 253.499 390.751 252.74L392.781 257.601C391.428 258.462 389.92 259.159 388.259 259.692C386.619 260.226 384.947 260.492 383.245 260.492ZM414.622 260.492C412.469 260.492 410.5 260.133 408.716 259.416C406.952 258.677 405.455 257.734 404.225 256.585C403.015 255.417 402.153 254.196 401.641 252.925L406.562 250.895C407.116 252.084 408.121 253.161 409.577 254.125C411.033 255.088 412.776 255.57 414.807 255.57C416.058 255.57 417.237 255.386 418.344 255.017C419.452 254.627 420.344 254.094 421.021 253.417C421.718 252.72 422.066 251.899 422.066 250.956C422.066 249.849 421.595 248.967 420.651 248.311C419.729 247.634 418.529 247.07 417.052 246.619C415.596 246.147 414.048 245.675 412.407 245.204C410.767 244.711 409.208 244.106 407.731 243.389C406.275 242.65 405.076 241.697 404.132 240.528C403.209 239.338 402.748 237.811 402.748 235.944C402.748 233.935 403.302 232.263 404.409 230.93C405.537 229.577 406.983 228.572 408.747 227.916C410.51 227.239 412.366 226.9 414.314 226.9C417.062 226.9 419.482 227.516 421.574 228.746C423.666 229.956 425.204 231.515 426.188 233.422L421.328 235.452C420.815 234.55 419.975 233.719 418.806 232.96C417.637 232.202 416.099 231.822 414.191 231.822C412.571 231.822 411.115 232.161 409.823 232.837C408.552 233.514 407.916 234.529 407.916 235.883C407.916 237.031 408.377 237.954 409.3 238.651C410.244 239.328 411.443 239.902 412.899 240.374C414.376 240.825 415.935 241.276 417.575 241.728C419.216 242.179 420.764 242.743 422.22 243.419C423.697 244.096 424.896 244.999 425.819 246.126C426.763 247.234 427.234 248.7 427.234 250.525C427.234 252.515 426.65 254.258 425.481 255.755C424.333 257.252 422.794 258.421 420.867 259.262C418.959 260.082 416.878 260.492 414.622 260.492ZM450.921 260.492C447.927 260.492 445.281 259.785 442.984 258.37C440.708 256.934 438.924 254.955 437.632 252.433C436.36 249.89 435.725 246.957 435.725 243.635C435.725 240.333 436.34 237.431 437.57 234.929C438.801 232.407 440.513 230.438 442.708 229.023C444.902 227.608 447.435 226.9 450.306 226.9C452.992 226.9 455.361 227.536 457.412 228.808C459.483 230.059 461.103 231.812 462.272 234.068C463.441 236.303 464.025 238.897 464.025 241.851C464.025 242.466 463.995 243.143 463.933 243.881C463.872 244.619 463.779 245.255 463.656 245.788H439.785V241.481H458.857C458.857 239.574 458.488 237.903 457.75 236.467C457.012 235.011 455.997 233.873 454.705 233.053C453.413 232.232 451.926 231.822 450.244 231.822C448.398 231.822 446.758 232.325 445.322 233.33C443.907 234.314 442.79 235.698 441.969 237.482C441.169 239.246 440.77 241.297 440.77 243.635C440.77 245.993 441.2 248.075 442.062 249.879C442.943 251.664 444.153 253.058 445.691 254.063C447.25 255.068 449.034 255.57 451.044 255.57C452.438 255.57 453.884 255.283 455.381 254.709C456.899 254.114 458.242 253.314 459.411 252.31L461.38 257.047C460.088 258.031 458.478 258.852 456.55 259.508C454.643 260.164 452.767 260.492 450.921 260.492Z" fill="white"/>
<rect x="504" y="190" width="252" height="94" fill="#232531"/>
<rect x="504" y="190" width="252" height="94" stroke="white" stroke-width="4"/>
<path d="M554.08 260V224.132C554.08 221.527 554.552 219.312 555.495 217.487C556.459 215.662 557.782 214.278 559.463 213.334C561.145 212.371 563.083 211.889 565.277 211.889C566.631 211.889 568.107 212.114 569.707 212.565C571.307 212.996 572.783 213.611 574.137 214.411L572.168 218.902C571.102 218.164 570.004 217.61 568.876 217.241C567.749 216.872 566.733 216.688 565.831 216.688C563.924 216.688 562.365 217.292 561.155 218.502C559.966 219.692 559.371 221.507 559.371 223.947V260H554.08ZM545.836 232.191V227.393H572.229V232.191H545.836ZM591.486 260.492C589.477 260.492 587.662 260.103 586.042 259.323C584.421 258.544 583.14 257.437 582.196 256.001C581.253 254.545 580.781 252.802 580.781 250.771C580.781 248.803 581.314 247.019 582.381 245.419C583.447 243.819 585.078 242.548 587.272 241.604C589.466 240.661 592.266 240.189 595.67 240.189H602.438V244.435H596.039C594.439 244.435 592.86 244.629 591.302 245.019C589.764 245.409 588.482 246.065 587.457 246.988C586.452 247.911 585.949 249.172 585.949 250.771C585.949 251.858 586.226 252.792 586.78 253.571C587.333 254.33 588.072 254.914 588.995 255.324C589.938 255.734 590.974 255.939 592.102 255.939C593.455 255.939 594.85 255.642 596.285 255.047C597.741 254.432 598.961 253.55 599.946 252.402C600.951 251.233 601.453 249.808 601.453 248.126V244.742L601.33 242.835V239.205C601.33 238.672 601.289 237.995 601.207 237.175C601.125 236.334 600.879 235.503 600.469 234.683C600.079 233.863 599.413 233.176 598.469 232.622C597.526 232.048 596.203 231.761 594.501 231.761C593.496 231.761 592.409 231.894 591.24 232.161C590.071 232.407 588.933 232.755 587.826 233.207C586.718 233.658 585.744 234.181 584.903 234.775L582.935 230.038C584.021 229.402 585.231 228.849 586.564 228.377C587.918 227.885 589.312 227.505 590.748 227.239C592.204 226.972 593.619 226.839 594.993 226.839C597.946 226.839 600.243 227.413 601.884 228.562C603.545 229.71 604.704 231.217 605.36 233.083C606.037 234.929 606.375 236.929 606.375 239.082V250.525C606.375 251.899 606.508 252.986 606.775 253.786C607.062 254.586 607.585 255.14 608.344 255.447L608.959 255.693L606.99 260.492L606.129 260.123C604.98 259.631 603.996 258.903 603.176 257.939C602.355 256.975 601.945 256.021 601.945 255.078L602.991 255.447H600.961L602.314 254.586C601.515 256.206 600.151 257.601 598.223 258.77C596.316 259.918 594.07 260.492 591.486 260.492ZM634.245 260.492C631.969 260.492 629.99 260.041 628.308 259.139C626.626 258.216 625.314 256.944 624.371 255.324C623.448 253.704 622.986 251.838 622.986 249.726V212.627H628.277V249.172C628.277 251.038 628.811 252.576 629.877 253.786C630.964 254.976 632.461 255.57 634.368 255.57C635.701 255.57 637.024 255.293 638.336 254.74C639.669 254.166 640.808 253.499 641.751 252.74L643.781 257.601C642.428 258.462 640.92 259.159 639.259 259.692C637.619 260.226 635.947 260.492 634.245 260.492ZM665.622 260.492C663.469 260.492 661.5 260.133 659.716 259.416C657.952 258.677 656.455 257.734 655.225 256.585C654.015 255.417 653.153 254.196 652.641 252.925L657.562 250.895C658.116 252.084 659.121 253.161 660.577 254.125C662.033 255.088 663.776 255.57 665.807 255.57C667.058 255.57 668.237 255.386 669.344 255.017C670.452 254.627 671.344 254.094 672.021 253.417C672.718 252.72 673.066 251.899 673.066 250.956C673.066 249.849 672.595 248.967 671.651 248.311C670.729 247.634 669.529 247.07 668.052 246.619C666.596 246.147 665.048 245.675 663.407 245.204C661.767 244.711 660.208 244.106 658.731 243.389C657.275 242.65 656.076 241.697 655.132 240.528C654.209 239.338 653.748 237.811 653.748 235.944C653.748 233.935 654.302 232.263 655.409 230.93C656.537 229.577 657.983 228.572 659.747 227.916C661.51 227.239 663.366 226.9 665.314 226.9C668.062 226.9 670.482 227.516 672.574 228.746C674.666 229.956 676.204 231.515 677.188 233.422L672.328 235.452C671.815 234.55 670.975 233.719 669.806 232.96C668.637 232.202 667.099 231.822 665.191 231.822C663.571 231.822 662.115 232.161 660.823 232.837C659.552 233.514 658.916 234.529 658.916 235.883C658.916 237.031 659.377 237.954 660.3 238.651C661.244 239.328 662.443 239.902 663.899 240.374C665.376 240.825 666.935 241.276 668.575 241.728C670.216 242.179 671.764 242.743 673.22 243.419C674.697 244.096 675.896 244.999 676.819 246.126C677.763 247.234 678.234 248.7 678.234 250.525C678.234 252.515 677.65 254.258 676.481 255.755C675.333 257.252 673.794 258.421 671.867 259.262C669.959 260.082 667.878 260.492 665.622 260.492ZM701.921 260.492C698.927 260.492 696.281 259.785 693.984 258.37C691.708 256.934 689.924 254.955 688.632 252.433C687.36 249.89 686.725 246.957 686.725 243.635C686.725 240.333 687.34 237.431 688.57 234.929C689.801 232.407 691.513 230.438 693.708 229.023C695.902 227.608 698.435 226.9 701.306 226.9C703.992 226.9 706.361 227.536 708.412 228.808C710.483 230.059 712.103 231.812 713.272 234.068C714.441 236.303 715.025 238.897 715.025 241.851C715.025 242.466 714.995 243.143 714.933 243.881C714.872 244.619 714.779 245.255 714.656 245.788H690.785V241.481H709.857C709.857 239.574 709.488 237.903 708.75 236.467C708.012 235.011 706.997 233.873 705.705 233.053C704.413 232.232 702.926 231.822 701.244 231.822C699.398 231.822 697.758 232.325 696.322 233.33C694.907 234.314 693.79 235.698 692.969 237.482C692.169 239.246 691.77 241.297 691.77 243.635C691.77 245.993 692.2 248.075 693.062 249.879C693.943 251.664 695.153 253.058 696.691 254.063C698.25 255.068 700.034 255.57 702.044 255.57C703.438 255.57 704.884 255.283 706.381 254.709C707.899 254.114 709.242 253.314 710.411 252.31L712.38 257.047C711.088 258.031 709.478 258.852 707.55 259.508C705.643 260.164 703.767 260.492 701.921 260.492Z" fill="white"/>
<rect x="2" y="283" width="252" height="94" fill="#232531"/>
<rect x="2" y="283" width="252" height="94" stroke="white" stroke-width="4"/>
<path d="M52.0801 353V317.132C52.0801 314.527 52.5518 312.312 53.4951 310.487C54.459 308.662 55.7817 307.278 57.4634 306.334C59.145 305.371 61.083 304.889 63.2773 304.889C64.6309 304.889 66.1074 305.114 67.707 305.565C69.3066 305.996 70.7832 306.611 72.1367 307.411L70.168 311.902C69.1016 311.164 68.0044 310.61 66.8765 310.241C65.7485 309.872 64.7334 309.688 63.8311 309.688C61.9238 309.688 60.3652 310.292 59.1553 311.502C57.9658 312.692 57.3711 314.507 57.3711 316.947V353H52.0801ZM43.8359 325.191V320.393H70.2295V325.191H43.8359ZM89.4863 353.492C87.4766 353.492 85.6616 353.103 84.0415 352.323C82.4214 351.544 81.1396 350.437 80.1963 349.001C79.2529 347.545 78.7812 345.802 78.7812 343.771C78.7812 341.803 79.3145 340.019 80.3809 338.419C81.4473 336.819 83.0776 335.548 85.272 334.604C87.4663 333.661 90.2656 333.189 93.6699 333.189H100.438V337.435H94.0391C92.4395 337.435 90.8604 337.629 89.3018 338.019C87.7637 338.409 86.4819 339.065 85.4565 339.988C84.4517 340.911 83.9492 342.172 83.9492 343.771C83.9492 344.858 84.2261 345.792 84.7798 346.571C85.3335 347.33 86.0718 347.914 86.9946 348.324C87.938 348.734 88.9736 348.939 90.1016 348.939C91.4551 348.939 92.8496 348.642 94.2852 348.047C95.7412 347.432 96.9614 346.55 97.9458 345.402C98.9507 344.233 99.4531 342.808 99.4531 341.126V337.742L99.3301 335.835V332.205C99.3301 331.672 99.2891 330.995 99.207 330.175C99.125 329.334 98.8789 328.503 98.4688 327.683C98.0791 326.863 97.4126 326.176 96.4692 325.622C95.5259 325.048 94.2031 324.761 92.501 324.761C91.4961 324.761 90.4092 324.894 89.2402 325.161C88.0713 325.407 86.9331 325.755 85.8257 326.207C84.7183 326.658 83.7441 327.181 82.9033 327.775L80.9346 323.038C82.0215 322.402 83.2314 321.849 84.5645 321.377C85.918 320.885 87.3125 320.505 88.748 320.239C90.2041 319.972 91.6191 319.839 92.9932 319.839C95.9463 319.839 98.2432 320.413 99.8838 321.562C101.545 322.71 102.704 324.217 103.36 326.083C104.037 327.929 104.375 329.929 104.375 332.082V343.525C104.375 344.899 104.508 345.986 104.775 346.786C105.062 347.586 105.585 348.14 106.344 348.447L106.959 348.693L104.99 353.492L104.129 353.123C102.98 352.631 101.996 351.903 101.176 350.939C100.355 349.975 99.9453 349.021 99.9453 348.078L100.991 348.447H98.9609L100.314 347.586C99.5146 349.206 98.1509 350.601 96.2231 351.77C94.3159 352.918 92.0703 353.492 89.4863 353.492ZM132.245 353.492C129.969 353.492 127.99 353.041 126.308 352.139C124.626 351.216 123.314 349.944 122.371 348.324C121.448 346.704 120.986 344.838 120.986 342.726V305.627H126.277V342.172C126.277 344.038 126.811 345.576 127.877 346.786C128.964 347.976 130.461 348.57 132.368 348.57C133.701 348.57 135.024 348.293 136.336 347.74C137.669 347.166 138.808 346.499 139.751 345.74L141.781 350.601C140.428 351.462 138.92 352.159 137.259 352.692C135.619 353.226 133.947 353.492 132.245 353.492ZM163.622 353.492C161.469 353.492 159.5 353.133 157.716 352.416C155.952 351.677 154.455 350.734 153.225 349.585C152.015 348.417 151.153 347.196 150.641 345.925L155.562 343.895C156.116 345.084 157.121 346.161 158.577 347.125C160.033 348.088 161.776 348.57 163.807 348.57C165.058 348.57 166.237 348.386 167.344 348.017C168.452 347.627 169.344 347.094 170.021 346.417C170.718 345.72 171.066 344.899 171.066 343.956C171.066 342.849 170.595 341.967 169.651 341.311C168.729 340.634 167.529 340.07 166.052 339.619C164.596 339.147 163.048 338.675 161.407 338.204C159.767 337.711 158.208 337.106 156.731 336.389C155.275 335.65 154.076 334.697 153.132 333.528C152.209 332.338 151.748 330.811 151.748 328.944C151.748 326.935 152.302 325.263 153.409 323.93C154.537 322.577 155.983 321.572 157.747 320.916C159.51 320.239 161.366 319.9 163.314 319.9C166.062 319.9 168.482 320.516 170.574 321.746C172.666 322.956 174.204 324.515 175.188 326.422L170.328 328.452C169.815 327.55 168.975 326.719 167.806 325.96C166.637 325.202 165.099 324.822 163.191 324.822C161.571 324.822 160.115 325.161 158.823 325.837C157.552 326.514 156.916 327.529 156.916 328.883C156.916 330.031 157.377 330.954 158.3 331.651C159.244 332.328 160.443 332.902 161.899 333.374C163.376 333.825 164.935 334.276 166.575 334.728C168.216 335.179 169.764 335.743 171.22 336.419C172.697 337.096 173.896 337.999 174.819 339.126C175.763 340.234 176.234 341.7 176.234 343.525C176.234 345.515 175.65 347.258 174.481 348.755C173.333 350.252 171.794 351.421 169.867 352.262C167.959 353.082 165.878 353.492 163.622 353.492ZM199.921 353.492C196.927 353.492 194.281 352.785 191.984 351.37C189.708 349.934 187.924 347.955 186.632 345.433C185.36 342.89 184.725 339.957 184.725 336.635C184.725 333.333 185.34 330.431 186.57 327.929C187.801 325.407 189.513 323.438 191.708 322.023C193.902 320.608 196.435 319.9 199.306 319.9C201.992 319.9 204.361 320.536 206.412 321.808C208.483 323.059 210.103 324.812 211.272 327.068C212.441 329.303 213.025 331.897 213.025 334.851C213.025 335.466 212.995 336.143 212.933 336.881C212.872 337.619 212.779 338.255 212.656 338.788H188.785V334.481H207.857C207.857 332.574 207.488 330.903 206.75 329.467C206.012 328.011 204.997 326.873 203.705 326.053C202.413 325.232 200.926 324.822 199.244 324.822C197.398 324.822 195.758 325.325 194.322 326.33C192.907 327.314 191.79 328.698 190.969 330.482C190.169 332.246 189.77 334.297 189.77 336.635C189.77 338.993 190.2 341.075 191.062 342.879C191.943 344.664 193.153 346.058 194.691 347.063C196.25 348.068 198.034 348.57 200.044 348.57C201.438 348.57 202.884 348.283 204.381 347.709C205.899 347.114 207.242 346.314 208.411 345.31L210.38 350.047C209.088 351.031 207.478 351.852 205.55 352.508C203.643 353.164 201.767 353.492 199.921 353.492Z" fill="white"/>
<rect x="253" y="283" width="252" height="94" fill="#232531"/>
<rect x="253" y="283" width="252" height="94" stroke="white" stroke-width="4"/>
<path d="M330.643 353.492C328.407 353.492 326.408 353.041 324.644 352.139C322.88 351.216 321.486 349.944 320.46 348.324C319.456 346.704 318.953 344.838 318.953 342.726V309.934H324.244V342.172C324.244 344.038 324.88 345.576 326.151 346.786C327.443 347.976 329.022 348.57 330.889 348.57C332.181 348.57 333.462 348.304 334.734 347.771C336.026 347.217 337.144 346.561 338.087 345.802L340.117 350.662C338.764 351.523 337.267 352.21 335.626 352.723C334.006 353.236 332.345 353.492 330.643 353.492ZM311.324 325.191V320.393H338.087V325.191H311.324ZM350.453 353V320.393H355.744V325.314H356.79L354.944 327.898C355.313 326.381 356 325.017 357.005 323.807C358.01 322.597 359.21 321.644 360.604 320.946C362.02 320.249 363.517 319.9 365.096 319.9C366.798 319.9 368.346 320.177 369.741 320.731C371.135 321.285 372.355 322.115 373.401 323.223C374.447 324.33 375.288 325.725 375.924 327.406L371.002 329.437C370.387 327.98 369.464 326.873 368.233 326.114C367.003 325.335 365.526 324.945 363.804 324.945C362.409 324.945 361.097 325.355 359.866 326.176C358.636 326.976 357.641 328.093 356.882 329.529C356.124 330.964 355.744 332.615 355.744 334.481V353H350.453ZM394.996 353.492C392.679 353.492 390.659 352.99 388.936 351.985C387.234 350.98 385.911 349.575 384.968 347.771C384.024 345.945 383.553 343.812 383.553 341.372V320.393H388.844V341.126C388.844 343.361 389.5 345.156 390.812 346.509C392.125 347.842 393.868 348.529 396.042 348.57C397.601 348.591 398.964 348.293 400.133 347.678C401.302 347.063 402.215 346.202 402.871 345.094C403.527 343.966 403.855 342.644 403.855 341.126V320.393H409.146V344.264C409.146 345.146 409.464 345.986 410.1 346.786C410.736 347.586 411.607 348.222 412.715 348.693L410.746 353.492C409.085 352.754 407.649 351.841 406.439 350.754C405.25 349.647 404.655 348.591 404.655 347.586L406.747 348.693H403.24L405.947 346.848C404.901 348.96 403.374 350.601 401.364 351.77C399.375 352.918 397.252 353.492 394.996 353.492ZM433.202 353.492C430.208 353.492 427.562 352.785 425.266 351.37C422.989 349.934 421.205 347.955 419.913 345.433C418.642 342.89 418.006 339.957 418.006 336.635C418.006 333.333 418.621 330.431 419.852 327.929C421.082 325.407 422.794 323.438 424.989 322.023C427.183 320.608 429.716 319.9 432.587 319.9C435.273 319.9 437.642 320.536 439.693 321.808C441.764 323.059 443.384 324.812 444.553 327.068C445.722 329.303 446.307 331.897 446.307 334.851C446.307 335.466 446.276 336.143 446.214 336.881C446.153 337.619 446.061 338.255 445.938 338.788H422.066V334.481H441.139C441.139 332.574 440.77 330.903 440.031 329.467C439.293 328.011 438.278 326.873 436.986 326.053C435.694 325.232 434.207 324.822 432.525 324.822C430.68 324.822 429.039 325.325 427.604 326.33C426.188 327.314 425.071 328.698 424.25 330.482C423.451 332.246 423.051 334.297 423.051 336.635C423.051 338.993 423.481 341.075 424.343 342.879C425.225 344.664 426.435 346.058 427.973 347.063C429.531 348.068 431.315 348.57 433.325 348.57C434.72 348.57 436.166 348.283 437.663 347.709C439.18 347.114 440.523 346.314 441.692 345.31L443.661 350.047C442.369 351.031 440.759 351.852 438.832 352.508C436.924 353.164 435.048 353.492 433.202 353.492Z" fill="white"/>
<rect x="504" y="283" width="252" height="94" fill="#232531"/>
<rect x="504" y="283" width="252" height="94" stroke="white" stroke-width="4"/>
<path d="M581.643 353.492C579.407 353.492 577.408 353.041 575.644 352.139C573.88 351.216 572.486 349.944 571.46 348.324C570.456 346.704 569.953 344.838 569.953 342.726V309.934H575.244V342.172C575.244 344.038 575.88 345.576 577.151 346.786C578.443 347.976 580.022 348.57 581.889 348.57C583.181 348.57 584.462 348.304 585.734 347.771C587.026 347.217 588.144 346.561 589.087 345.802L591.117 350.662C589.764 351.523 588.267 352.21 586.626 352.723C585.006 353.236 583.345 353.492 581.643 353.492ZM562.324 325.191V320.393H589.087V325.191H562.324ZM601.453 353V320.393H606.744V325.314H607.79L605.944 327.898C606.313 326.381 607 325.017 608.005 323.807C609.01 322.597 610.21 321.644 611.604 320.946C613.02 320.249 614.517 319.9 616.096 319.9C617.798 319.9 619.346 320.177 620.741 320.731C622.135 321.285 623.355 322.115 624.401 323.223C625.447 324.33 626.288 325.725 626.924 327.406L622.002 329.437C621.387 327.98 620.464 326.873 619.233 326.114C618.003 325.335 616.526 324.945 614.804 324.945C613.409 324.945 612.097 325.355 610.866 326.176C609.636 326.976 608.641 328.093 607.882 329.529C607.124 330.964 606.744 332.615 606.744 334.481V353H601.453ZM645.996 353.492C643.679 353.492 641.659 352.99 639.936 351.985C638.234 350.98 636.911 349.575 635.968 347.771C635.024 345.945 634.553 343.812 634.553 341.372V320.393H639.844V341.126C639.844 343.361 640.5 345.156 641.812 346.509C643.125 347.842 644.868 348.529 647.042 348.57C648.601 348.591 649.964 348.293 651.133 347.678C652.302 347.063 653.215 346.202 653.871 345.094C654.527 343.966 654.855 342.644 654.855 341.126V320.393H660.146V344.264C660.146 345.146 660.464 345.986 661.1 346.786C661.736 347.586 662.607 348.222 663.715 348.693L661.746 353.492C660.085 352.754 658.649 351.841 657.439 350.754C656.25 349.647 655.655 348.591 655.655 347.586L657.747 348.693H654.24L656.947 346.848C655.901 348.96 654.374 350.601 652.364 351.77C650.375 352.918 648.252 353.492 645.996 353.492ZM684.202 353.492C681.208 353.492 678.562 352.785 676.266 351.37C673.989 349.934 672.205 347.955 670.913 345.433C669.642 342.89 669.006 339.957 669.006 336.635C669.006 333.333 669.621 330.431 670.852 327.929C672.082 325.407 673.794 323.438 675.989 322.023C678.183 320.608 680.716 319.9 683.587 319.9C686.273 319.9 688.642 320.536 690.693 321.808C692.764 323.059 694.384 324.812 695.553 327.068C696.722 329.303 697.307 331.897 697.307 334.851C697.307 335.466 697.276 336.143 697.214 336.881C697.153 337.619 697.061 338.255 696.938 338.788H673.066V334.481H692.139C692.139 332.574 691.77 330.903 691.031 329.467C690.293 328.011 689.278 326.873 687.986 326.053C686.694 325.232 685.207 324.822 683.525 324.822C681.68 324.822 680.039 325.325 678.604 326.33C677.188 327.314 676.071 328.698 675.25 330.482C674.451 332.246 674.051 334.297 674.051 336.635C674.051 338.993 674.481 341.075 675.343 342.879C676.225 344.664 677.435 346.058 678.973 347.063C680.531 348.068 682.315 348.57 684.325 348.57C685.72 348.57 687.166 348.283 688.663 347.709C690.18 347.114 691.523 346.314 692.692 345.31L694.661 350.047C693.369 351.031 691.759 351.852 689.832 352.508C687.924 353.164 686.048 353.492 684.202 353.492Z" fill="white"/>
<rect x="2" y="378" width="252" height="94" fill="#232531"/>
<rect x="2" y="378" width="252" height="94" stroke="white" stroke-width="4"/>
<path d="M79.6426 448.492C77.4072 448.492 75.4077 448.041 73.644 447.139C71.8804 446.216 70.4858 444.944 69.4604 443.324C68.4556 441.704 67.9531 439.838 67.9531 437.726V404.934H73.2441V437.172C73.2441 439.038 73.8799 440.576 75.1514 441.786C76.4434 442.976 78.0225 443.57 79.8887 443.57C81.1807 443.57 82.4624 443.304 83.7339 442.771C85.0259 442.217 86.1436 441.561 87.0869 440.802L89.1172 445.662C87.7637 446.523 86.2666 447.21 84.626 447.723C83.0059 448.236 81.3447 448.492 79.6426 448.492ZM60.3242 420.191V415.393H87.0869V420.191H60.3242ZM99.4531 448V415.393H104.744V420.314H105.79L103.944 422.898C104.313 421.381 105 420.017 106.005 418.807C107.01 417.597 108.21 416.644 109.604 415.946C111.02 415.249 112.517 414.9 114.096 414.9C115.798 414.9 117.346 415.177 118.741 415.731C120.135 416.285 121.355 417.115 122.401 418.223C123.447 419.33 124.288 420.725 124.924 422.406L120.002 424.437C119.387 422.98 118.464 421.873 117.233 421.114C116.003 420.335 114.526 419.945 112.804 419.945C111.409 419.945 110.097 420.355 108.866 421.176C107.636 421.976 106.641 423.093 105.882 424.529C105.124 425.964 104.744 427.615 104.744 429.481V448H99.4531ZM143.996 448.492C141.679 448.492 139.659 447.99 137.936 446.985C136.234 445.98 134.911 444.575 133.968 442.771C133.024 440.945 132.553 438.812 132.553 436.372V415.393H137.844V436.126C137.844 438.361 138.5 440.156 139.812 441.509C141.125 442.842 142.868 443.529 145.042 443.57C146.601 443.591 147.964 443.293 149.133 442.678C150.302 442.063 151.215 441.202 151.871 440.094C152.527 438.966 152.855 437.644 152.855 436.126V415.393H158.146V439.264C158.146 440.146 158.464 440.986 159.1 441.786C159.736 442.586 160.607 443.222 161.715 443.693L159.746 448.492C158.085 447.754 156.649 446.841 155.439 445.754C154.25 444.647 153.655 443.591 153.655 442.586L155.747 443.693H152.24L154.947 441.848C153.901 443.96 152.374 445.601 150.364 446.77C148.375 447.918 146.252 448.492 143.996 448.492ZM182.202 448.492C179.208 448.492 176.562 447.785 174.266 446.37C171.989 444.934 170.205 442.955 168.913 440.433C167.642 437.89 167.006 434.957 167.006 431.635C167.006 428.333 167.621 425.431 168.852 422.929C170.082 420.407 171.794 418.438 173.989 417.023C176.183 415.608 178.716 414.9 181.587 414.9C184.273 414.9 186.642 415.536 188.693 416.808C190.764 418.059 192.384 419.812 193.553 422.068C194.722 424.303 195.307 426.897 195.307 429.851C195.307 430.466 195.276 431.143 195.214 431.881C195.153 432.619 195.061 433.255 194.938 433.788H171.066V429.481H190.139C190.139 427.574 189.77 425.903 189.031 424.467C188.293 423.011 187.278 421.873 185.986 421.053C184.694 420.232 183.207 419.822 181.525 419.822C179.68 419.822 178.039 420.325 176.604 421.33C175.188 422.314 174.071 423.698 173.25 425.482C172.451 427.246 172.051 429.297 172.051 431.635C172.051 433.993 172.481 436.075 173.343 437.879C174.225 439.664 175.435 441.058 176.973 442.063C178.531 443.068 180.315 443.57 182.325 443.57C183.72 443.57 185.166 443.283 186.663 442.709C188.18 442.114 189.523 441.314 190.692 440.31L192.661 445.047C191.369 446.031 189.759 446.852 187.832 447.508C185.924 448.164 184.048 448.492 182.202 448.492Z" fill="white"/>
<rect x="253" y="378" width="252" height="94" fill="#232531"/>
<rect x="253" y="378" width="252" height="94" stroke="white" stroke-width="4"/>
<path d="M303.08 448V412.132C303.08 409.527 303.552 407.312 304.495 405.487C305.459 403.662 306.782 402.278 308.463 401.334C310.145 400.371 312.083 399.889 314.277 399.889C315.631 399.889 317.107 400.114 318.707 400.565C320.307 400.996 321.783 401.611 323.137 402.411L321.168 406.902C320.102 406.164 319.004 405.61 317.876 405.241C316.749 404.872 315.733 404.688 314.831 404.688C312.924 404.688 311.365 405.292 310.155 406.502C308.966 407.692 308.371 409.507 308.371 411.947V448H303.08ZM294.836 420.191V415.393H321.229V420.191H294.836ZM340.486 448.492C338.477 448.492 336.662 448.103 335.042 447.323C333.421 446.544 332.14 445.437 331.196 444.001C330.253 442.545 329.781 440.802 329.781 438.771C329.781 436.803 330.314 435.019 331.381 433.419C332.447 431.819 334.078 430.548 336.272 429.604C338.466 428.661 341.266 428.189 344.67 428.189H351.438V432.435H345.039C343.439 432.435 341.86 432.629 340.302 433.019C338.764 433.409 337.482 434.065 336.457 434.988C335.452 435.911 334.949 437.172 334.949 438.771C334.949 439.858 335.226 440.792 335.78 441.571C336.333 442.33 337.072 442.914 337.995 443.324C338.938 443.734 339.974 443.939 341.102 443.939C342.455 443.939 343.85 443.642 345.285 443.047C346.741 442.432 347.961 441.55 348.946 440.402C349.951 439.233 350.453 437.808 350.453 436.126V432.742L350.33 430.835V427.205C350.33 426.672 350.289 425.995 350.207 425.175C350.125 424.334 349.879 423.503 349.469 422.683C349.079 421.863 348.413 421.176 347.469 420.622C346.526 420.048 345.203 419.761 343.501 419.761C342.496 419.761 341.409 419.894 340.24 420.161C339.071 420.407 337.933 420.755 336.826 421.207C335.718 421.658 334.744 422.181 333.903 422.775L331.935 418.038C333.021 417.402 334.231 416.849 335.564 416.377C336.918 415.885 338.312 415.505 339.748 415.239C341.204 414.972 342.619 414.839 343.993 414.839C346.946 414.839 349.243 415.413 350.884 416.562C352.545 417.71 353.704 419.217 354.36 421.083C355.037 422.929 355.375 424.929 355.375 427.082V438.525C355.375 439.899 355.508 440.986 355.775 441.786C356.062 442.586 356.585 443.14 357.344 443.447L357.959 443.693L355.99 448.492L355.129 448.123C353.98 447.631 352.996 446.903 352.176 445.939C351.355 444.975 350.945 444.021 350.945 443.078L351.991 443.447H349.961L351.314 442.586C350.515 444.206 349.151 445.601 347.223 446.77C345.316 447.918 343.07 448.492 340.486 448.492ZM383.245 448.492C380.969 448.492 378.99 448.041 377.308 447.139C375.626 446.216 374.314 444.944 373.371 443.324C372.448 441.704 371.986 439.838 371.986 437.726V400.627H377.277V437.172C377.277 439.038 377.811 440.576 378.877 441.786C379.964 442.976 381.461 443.57 383.368 443.57C384.701 443.57 386.024 443.293 387.336 442.74C388.669 442.166 389.808 441.499 390.751 440.74L392.781 445.601C391.428 446.462 389.92 447.159 388.259 447.692C386.619 448.226 384.947 448.492 383.245 448.492ZM414.622 448.492C412.469 448.492 410.5 448.133 408.716 447.416C406.952 446.677 405.455 445.734 404.225 444.585C403.015 443.417 402.153 442.196 401.641 440.925L406.562 438.895C407.116 440.084 408.121 441.161 409.577 442.125C411.033 443.088 412.776 443.57 414.807 443.57C416.058 443.57 417.237 443.386 418.344 443.017C419.452 442.627 420.344 442.094 421.021 441.417C421.718 440.72 422.066 439.899 422.066 438.956C422.066 437.849 421.595 436.967 420.651 436.311C419.729 435.634 418.529 435.07 417.052 434.619C415.596 434.147 414.048 433.675 412.407 433.204C410.767 432.711 409.208 432.106 407.731 431.389C406.275 430.65 405.076 429.697 404.132 428.528C403.209 427.338 402.748 425.811 402.748 423.944C402.748 421.935 403.302 420.263 404.409 418.93C405.537 417.577 406.983 416.572 408.747 415.916C410.51 415.239 412.366 414.9 414.314 414.9C417.062 414.9 419.482 415.516 421.574 416.746C423.666 417.956 425.204 419.515 426.188 421.422L421.328 423.452C420.815 422.55 419.975 421.719 418.806 420.96C417.637 420.202 416.099 419.822 414.191 419.822C412.571 419.822 411.115 420.161 409.823 420.837C408.552 421.514 407.916 422.529 407.916 423.883C407.916 425.031 408.377 425.954 409.3 426.651C410.244 427.328 411.443 427.902 412.899 428.374C414.376 428.825 415.935 429.276 417.575 429.728C419.216 430.179 420.764 430.743 422.22 431.419C423.697 432.096 424.896 432.999 425.819 434.126C426.763 435.234 427.234 436.7 427.234 438.525C427.234 440.515 426.65 442.258 425.481 443.755C424.333 445.252 422.794 446.421 420.867 447.262C418.959 448.082 416.878 448.492 414.622 448.492ZM450.921 448.492C447.927 448.492 445.281 447.785 442.984 446.37C440.708 444.934 438.924 442.955 437.632 440.433C436.36 437.89 435.725 434.957 435.725 431.635C435.725 428.333 436.34 425.431 437.57 422.929C438.801 420.407 440.513 418.438 442.708 417.023C444.902 415.608 447.435 414.9 450.306 414.9C452.992 414.9 455.361 415.536 457.412 416.808C459.483 418.059 461.103 419.812 462.272 422.068C463.441 424.303 464.025 426.897 464.025 429.851C464.025 430.466 463.995 431.143 463.933 431.881C463.872 432.619 463.779 433.255 463.656 433.788H439.785V429.481H458.857C458.857 427.574 458.488 425.903 457.75 424.467C457.012 423.011 455.997 421.873 454.705 421.053C453.413 420.232 451.926 419.822 450.244 419.822C448.398 419.822 446.758 420.325 445.322 421.33C443.907 422.314 442.79 423.698 441.969 425.482C441.169 427.246 440.77 429.297 440.77 431.635C440.77 433.993 441.2 436.075 442.062 437.879C442.943 439.664 444.153 441.058 445.691 442.063C447.25 443.068 449.034 443.57 451.044 443.57C452.438 443.57 453.884 443.283 455.381 442.709C456.899 442.114 458.242 441.314 459.411 440.31L461.38 445.047C460.088 446.031 458.478 446.852 456.55 447.508C454.643 448.164 452.767 448.492 450.921 448.492Z" fill="white"/>
<rect x="504" y="378" width="252" height="94" fill="#232531"/>
<rect x="504" y="378" width="252" height="94" stroke="white" stroke-width="4"/>
<path d="M581.643 448.492C579.407 448.492 577.408 448.041 575.644 447.139C573.88 446.216 572.486 444.944 571.46 443.324C570.456 441.704 569.953 439.838 569.953 437.726V404.934H575.244V437.172C575.244 439.038 575.88 440.576 577.151 441.786C578.443 442.976 580.022 443.57 581.889 443.57C583.181 443.57 584.462 443.304 585.734 442.771C587.026 442.217 588.144 441.561 589.087 440.802L591.117 445.662C589.764 446.523 588.267 447.21 586.626 447.723C585.006 448.236 583.345 448.492 581.643 448.492ZM562.324 420.191V415.393H589.087V420.191H562.324ZM601.453 448V415.393H606.744V420.314H607.79L605.944 422.898C606.313 421.381 607 420.017 608.005 418.807C609.01 417.597 610.21 416.644 611.604 415.946C613.02 415.249 614.517 414.9 616.096 414.9C617.798 414.9 619.346 415.177 620.741 415.731C622.135 416.285 623.355 417.115 624.401 418.223C625.447 419.33 626.288 420.725 626.924 422.406L622.002 424.437C621.387 422.98 620.464 421.873 619.233 421.114C618.003 420.335 616.526 419.945 614.804 419.945C613.409 419.945 612.097 420.355 610.866 421.176C609.636 421.976 608.641 423.093 607.882 424.529C607.124 425.964 606.744 427.615 606.744 429.481V448H601.453ZM645.996 448.492C643.679 448.492 641.659 447.99 639.936 446.985C638.234 445.98 636.911 444.575 635.968 442.771C635.024 440.945 634.553 438.812 634.553 436.372V415.393H639.844V436.126C639.844 438.361 640.5 440.156 641.812 441.509C643.125 442.842 644.868 443.529 647.042 443.57C648.601 443.591 649.964 443.293 651.133 442.678C652.302 442.063 653.215 441.202 653.871 440.094C654.527 438.966 654.855 437.644 654.855 436.126V415.393H660.146V439.264C660.146 440.146 660.464 440.986 661.1 441.786C661.736 442.586 662.607 443.222 663.715 443.693L661.746 448.492C660.085 447.754 658.649 446.841 657.439 445.754C656.25 444.647 655.655 443.591 655.655 442.586L657.747 443.693H654.24L656.947 441.848C655.901 443.96 654.374 445.601 652.364 446.77C650.375 447.918 648.252 448.492 645.996 448.492ZM684.202 448.492C681.208 448.492 678.562 447.785 676.266 446.37C673.989 444.934 672.205 442.955 670.913 440.433C669.642 437.89 669.006 434.957 669.006 431.635C669.006 428.333 669.621 425.431 670.852 422.929C672.082 420.407 673.794 418.438 675.989 417.023C678.183 415.608 680.716 414.9 683.587 414.9C686.273 414.9 688.642 415.536 690.693 416.808C692.764 418.059 694.384 419.812 695.553 422.068C696.722 424.303 697.307 426.897 697.307 429.851C697.307 430.466 697.276 431.143 697.214 431.881C697.153 432.619 697.061 433.255 696.938 433.788H673.066V429.481H692.139C692.139 427.574 691.77 425.903 691.031 424.467C690.293 423.011 689.278 421.873 687.986 421.053C686.694 420.232 685.207 419.822 683.525 419.822C681.68 419.822 680.039 420.325 678.604 421.33C677.188 422.314 676.071 423.698 675.25 425.482C674.451 427.246 674.051 429.297 674.051 431.635C674.051 433.993 674.481 436.075 675.343 437.879C676.225 439.664 677.435 441.058 678.973 442.063C680.531 443.068 682.315 443.57 684.325 443.57C685.72 443.57 687.166 443.283 688.663 442.709C690.18 442.114 691.523 441.314 692.692 440.31L694.661 445.047C693.369 446.031 691.759 446.852 689.832 447.508C687.924 448.164 686.048 448.492 684.202 448.492Z" fill="white"/>
<rect x="2" y="473" width="252" height="94" fill="#232531"/>
<rect x="2" y="473" width="252" height="94" stroke="white" stroke-width="4"/>
<path d="M79.6426 543.492C77.4072 543.492 75.4077 543.041 73.644 542.139C71.8804 541.216 70.4858 539.944 69.4604 538.324C68.4556 536.704 67.9531 534.838 67.9531 532.726V499.934H73.2441V532.172C73.2441 534.038 73.8799 535.576 75.1514 536.786C76.4434 537.976 78.0225 538.57 79.8887 538.57C81.1807 538.57 82.4624 538.304 83.7339 537.771C85.0259 537.217 86.1436 536.561 87.0869 535.802L89.1172 540.662C87.7637 541.523 86.2666 542.21 84.626 542.723C83.0059 543.236 81.3447 543.492 79.6426 543.492ZM60.3242 515.191V510.393H87.0869V515.191H60.3242ZM99.4531 543V510.393H104.744V515.314H105.79L103.944 517.898C104.313 516.381 105 515.017 106.005 513.807C107.01 512.597 108.21 511.644 109.604 510.946C111.02 510.249 112.517 509.9 114.096 509.9C115.798 509.9 117.346 510.177 118.741 510.731C120.135 511.285 121.355 512.115 122.401 513.223C123.447 514.33 124.288 515.725 124.924 517.406L120.002 519.437C119.387 517.98 118.464 516.873 117.233 516.114C116.003 515.335 114.526 514.945 112.804 514.945C111.409 514.945 110.097 515.355 108.866 516.176C107.636 516.976 106.641 518.093 105.882 519.529C105.124 520.964 104.744 522.615 104.744 524.481V543H99.4531ZM143.996 543.492C141.679 543.492 139.659 542.99 137.936 541.985C136.234 540.98 134.911 539.575 133.968 537.771C133.024 535.945 132.553 533.812 132.553 531.372V510.393H137.844V531.126C137.844 533.361 138.5 535.156 139.812 536.509C141.125 537.842 142.868 538.529 145.042 538.57C146.601 538.591 147.964 538.293 149.133 537.678C150.302 537.063 151.215 536.202 151.871 535.094C152.527 533.966 152.855 532.644 152.855 531.126V510.393H158.146V534.264C158.146 535.146 158.464 535.986 159.1 536.786C159.736 537.586 160.607 538.222 161.715 538.693L159.746 543.492C158.085 542.754 156.649 541.841 155.439 540.754C154.25 539.647 153.655 538.591 153.655 537.586L155.747 538.693H152.24L154.947 536.848C153.901 538.96 152.374 540.601 150.364 541.77C148.375 542.918 146.252 543.492 143.996 543.492ZM182.202 543.492C179.208 543.492 176.562 542.785 174.266 541.37C171.989 539.934 170.205 537.955 168.913 535.433C167.642 532.89 167.006 529.957 167.006 526.635C167.006 523.333 167.621 520.431 168.852 517.929C170.082 515.407 171.794 513.438 173.989 512.023C176.183 510.608 178.716 509.9 181.587 509.9C184.273 509.9 186.642 510.536 188.693 511.808C190.764 513.059 192.384 514.812 193.553 517.068C194.722 519.303 195.307 521.897 195.307 524.851C195.307 525.466 195.276 526.143 195.214 526.881C195.153 527.619 195.061 528.255 194.938 528.788H171.066V524.481H190.139C190.139 522.574 189.77 520.903 189.031 519.467C188.293 518.011 187.278 516.873 185.986 516.053C184.694 515.232 183.207 514.822 181.525 514.822C179.68 514.822 178.039 515.325 176.604 516.33C175.188 517.314 174.071 518.698 173.25 520.482C172.451 522.246 172.051 524.297 172.051 526.635C172.051 528.993 172.481 531.075 173.343 532.879C174.225 534.664 175.435 536.058 176.973 537.063C178.531 538.068 180.315 538.57 182.325 538.57C183.72 538.57 185.166 538.283 186.663 537.709C188.18 537.114 189.523 536.314 190.692 535.31L192.661 540.047C191.369 541.031 189.759 541.852 187.832 542.508C185.924 543.164 184.048 543.492 182.202 543.492Z" fill="white"/>
<rect x="253" y="473" width="252" height="94" fill="#232531"/>
<rect x="253" y="473" width="252" height="94" stroke="white" stroke-width="4"/>
<path d="M330.643 543.492C328.407 543.492 326.408 543.041 324.644 542.139C322.88 541.216 321.486 539.944 320.46 538.324C319.456 536.704 318.953 534.838 318.953 532.726V499.934H324.244V532.172C324.244 534.038 324.88 535.576 326.151 536.786C327.443 537.976 329.022 538.57 330.889 538.57C332.181 538.57 333.462 538.304 334.734 537.771C336.026 537.217 337.144 536.561 338.087 535.802L340.117 540.662C338.764 541.523 337.267 542.21 335.626 542.723C334.006 543.236 332.345 543.492 330.643 543.492ZM311.324 515.191V510.393H338.087V515.191H311.324ZM350.453 543V510.393H355.744V515.314H356.79L354.944 517.898C355.313 516.381 356 515.017 357.005 513.807C358.01 512.597 359.21 511.644 360.604 510.946C362.02 510.249 363.517 509.9 365.096 509.9C366.798 509.9 368.346 510.177 369.741 510.731C371.135 511.285 372.355 512.115 373.401 513.223C374.447 514.33 375.288 515.725 375.924 517.406L371.002 519.437C370.387 517.98 369.464 516.873 368.233 516.114C367.003 515.335 365.526 514.945 363.804 514.945C362.409 514.945 361.097 515.355 359.866 516.176C358.636 516.976 357.641 518.093 356.882 519.529C356.124 520.964 355.744 522.615 355.744 524.481V543H350.453ZM394.996 543.492C392.679 543.492 390.659 542.99 388.936 541.985C387.234 540.98 385.911 539.575 384.968 537.771C384.024 535.945 383.553 533.812 383.553 531.372V510.393H388.844V531.126C388.844 533.361 389.5 535.156 390.812 536.509C392.125 537.842 393.868 538.529 396.042 538.57C397.601 538.591 398.964 538.293 400.133 537.678C401.302 537.063 402.215 536.202 402.871 535.094C403.527 533.966 403.855 532.644 403.855 531.126V510.393H409.146V534.264C409.146 535.146 409.464 535.986 410.1 536.786C410.736 537.586 411.607 538.222 412.715 538.693L410.746 543.492C409.085 542.754 407.649 541.841 406.439 540.754C405.25 539.647 404.655 538.591 404.655 537.586L406.747 538.693H403.24L405.947 536.848C404.901 538.96 403.374 540.601 401.364 541.77C399.375 542.918 397.252 543.492 394.996 543.492ZM433.202 543.492C430.208 543.492 427.562 542.785 425.266 541.37C422.989 539.934 421.205 537.955 419.913 535.433C418.642 532.89 418.006 529.957 418.006 526.635C418.006 523.333 418.621 520.431 419.852 517.929C421.082 515.407 422.794 513.438 424.989 512.023C427.183 510.608 429.716 509.9 432.587 509.9C435.273 509.9 437.642 510.536 439.693 511.808C441.764 513.059 443.384 514.812 444.553 517.068C445.722 519.303 446.307 521.897 446.307 524.851C446.307 525.466 446.276 526.143 446.214 526.881C446.153 527.619 446.061 528.255 445.938 528.788H422.066V524.481H441.139C441.139 522.574 440.77 520.903 440.031 519.467C439.293 518.011 438.278 516.873 436.986 516.053C435.694 515.232 434.207 514.822 432.525 514.822C430.68 514.822 429.039 515.325 427.604 516.33C426.188 517.314 425.071 518.698 424.25 520.482C423.451 522.246 423.051 524.297 423.051 526.635C423.051 528.993 423.481 531.075 424.343 532.879C425.225 534.664 426.435 536.058 427.973 537.063C429.531 538.068 431.315 538.57 433.325 538.57C434.72 538.57 436.166 538.283 437.663 537.709C439.18 537.114 440.523 536.314 441.692 535.31L443.661 540.047C442.369 541.031 440.759 541.852 438.832 542.508C436.924 543.164 435.048 543.492 433.202 543.492Z" fill="white"/>
<rect x="504" y="473" width="252" height="94" fill="#232531"/>
<rect x="504" y="473" width="252" height="94" stroke="white" stroke-width="4"/>
<path d="M554.08 543V507.132C554.08 504.527 554.552 502.312 555.495 500.487C556.459 498.662 557.782 497.278 559.463 496.334C561.145 495.371 563.083 494.889 565.277 494.889C566.631 494.889 568.107 495.114 569.707 495.565C571.307 495.996 572.783 496.611 574.137 497.411L572.168 501.902C571.102 501.164 570.004 500.61 568.876 500.241C567.749 499.872 566.733 499.688 565.831 499.688C563.924 499.688 562.365 500.292 561.155 501.502C559.966 502.692 559.371 504.507 559.371 506.947V543H554.08ZM545.836 515.191V510.393H572.229V515.191H545.836ZM591.486 543.492C589.477 543.492 587.662 543.103 586.042 542.323C584.421 541.544 583.14 540.437 582.196 539.001C581.253 537.545 580.781 535.802 580.781 533.771C580.781 531.803 581.314 530.019 582.381 528.419C583.447 526.819 585.078 525.548 587.272 524.604C589.466 523.661 592.266 523.189 595.67 523.189H602.438V527.435H596.039C594.439 527.435 592.86 527.629 591.302 528.019C589.764 528.409 588.482 529.065 587.457 529.988C586.452 530.911 585.949 532.172 585.949 533.771C585.949 534.858 586.226 535.792 586.78 536.571C587.333 537.33 588.072 537.914 588.995 538.324C589.938 538.734 590.974 538.939 592.102 538.939C593.455 538.939 594.85 538.642 596.285 538.047C597.741 537.432 598.961 536.55 599.946 535.402C600.951 534.233 601.453 532.808 601.453 531.126V527.742L601.33 525.835V522.205C601.33 521.672 601.289 520.995 601.207 520.175C601.125 519.334 600.879 518.503 600.469 517.683C600.079 516.863 599.413 516.176 598.469 515.622C597.526 515.048 596.203 514.761 594.501 514.761C593.496 514.761 592.409 514.894 591.24 515.161C590.071 515.407 588.933 515.755 587.826 516.207C586.718 516.658 585.744 517.181 584.903 517.775L582.935 513.038C584.021 512.402 585.231 511.849 586.564 511.377C587.918 510.885 589.312 510.505 590.748 510.239C592.204 509.972 593.619 509.839 594.993 509.839C597.946 509.839 600.243 510.413 601.884 511.562C603.545 512.71 604.704 514.217 605.36 516.083C606.037 517.929 606.375 519.929 606.375 522.082V533.525C606.375 534.899 606.508 535.986 606.775 536.786C607.062 537.586 607.585 538.14 608.344 538.447L608.959 538.693L606.99 543.492L606.129 543.123C604.98 542.631 603.996 541.903 603.176 540.939C602.355 539.975 601.945 539.021 601.945 538.078L602.991 538.447H600.961L602.314 537.586C601.515 539.206 600.151 540.601 598.223 541.77C596.316 542.918 594.07 543.492 591.486 543.492ZM634.245 543.492C631.969 543.492 629.99 543.041 628.308 542.139C626.626 541.216 625.314 539.944 624.371 538.324C623.448 536.704 622.986 534.838 622.986 532.726V495.627H628.277V532.172C628.277 534.038 628.811 535.576 629.877 536.786C630.964 537.976 632.461 538.57 634.368 538.57C635.701 538.57 637.024 538.293 638.336 537.74C639.669 537.166 640.808 536.499 641.751 535.74L643.781 540.601C642.428 541.462 640.92 542.159 639.259 542.692C637.619 543.226 635.947 543.492 634.245 543.492ZM665.622 543.492C663.469 543.492 661.5 543.133 659.716 542.416C657.952 541.677 656.455 540.734 655.225 539.585C654.015 538.417 653.153 537.196 652.641 535.925L657.562 533.895C658.116 535.084 659.121 536.161 660.577 537.125C662.033 538.088 663.776 538.57 665.807 538.57C667.058 538.57 668.237 538.386 669.344 538.017C670.452 537.627 671.344 537.094 672.021 536.417C672.718 535.72 673.066 534.899 673.066 533.956C673.066 532.849 672.595 531.967 671.651 531.311C670.729 530.634 669.529 530.07 668.052 529.619C666.596 529.147 665.048 528.675 663.407 528.204C661.767 527.711 660.208 527.106 658.731 526.389C657.275 525.65 656.076 524.697 655.132 523.528C654.209 522.338 653.748 520.811 653.748 518.944C653.748 516.935 654.302 515.263 655.409 513.93C656.537 512.577 657.983 511.572 659.747 510.916C661.51 510.239 663.366 509.9 665.314 509.9C668.062 509.9 670.482 510.516 672.574 511.746C674.666 512.956 676.204 514.515 677.188 516.422L672.328 518.452C671.815 517.55 670.975 516.719 669.806 515.96C668.637 515.202 667.099 514.822 665.191 514.822C663.571 514.822 662.115 515.161 660.823 515.837C659.552 516.514 658.916 517.529 658.916 518.883C658.916 520.031 659.377 520.954 660.3 521.651C661.244 522.328 662.443 522.902 663.899 523.374C665.376 523.825 666.935 524.276 668.575 524.728C670.216 525.179 671.764 525.743 673.22 526.419C674.697 527.096 675.896 527.999 676.819 529.126C677.763 530.234 678.234 531.7 678.234 533.525C678.234 535.515 677.65 537.258 676.481 538.755C675.333 540.252 673.794 541.421 671.867 542.262C669.959 543.082 667.878 543.492 665.622 543.492ZM701.921 543.492C698.927 543.492 696.281 542.785 693.984 541.37C691.708 539.934 689.924 537.955 688.632 535.433C687.36 532.89 686.725 529.957 686.725 526.635C686.725 523.333 687.34 520.431 688.57 517.929C689.801 515.407 691.513 513.438 693.708 512.023C695.902 510.608 698.435 509.9 701.306 509.9C703.992 509.9 706.361 510.536 708.412 511.808C710.483 513.059 712.103 514.812 713.272 517.068C714.441 519.303 715.025 521.897 715.025 524.851C715.025 525.466 714.995 526.143 714.933 526.881C714.872 527.619 714.779 528.255 714.656 528.788H690.785V524.481H709.857C709.857 522.574 709.488 520.903 708.75 519.467C708.012 518.011 706.997 516.873 705.705 516.053C704.413 515.232 702.926 514.822 701.244 514.822C699.398 514.822 697.758 515.325 696.322 516.33C694.907 517.314 693.79 518.698 692.969 520.482C692.169 522.246 691.77 524.297 691.77 526.635C691.77 528.993 692.2 531.075 693.062 532.879C693.943 534.664 695.153 536.058 696.691 537.063C698.25 538.068 700.034 538.57 702.044 538.57C703.438 538.57 704.884 538.283 706.381 537.709C707.899 537.114 709.242 536.314 710.411 535.31L712.38 540.047C711.088 541.031 709.478 541.852 707.55 542.508C705.643 543.164 703.767 543.492 701.921 543.492Z" fill="white"/>
<rect x="2" y="97" width="252" height="94" fill="#232531"/>
<rect x="2" y="97" width="252" height="94" stroke="white" stroke-width="4"/>
<path d="M110.65 167L125.231 121.657H130.769L145.35 167H139.505L135.383 153.465L134.829 151.496L128.123 129.225H127.877L121.171 151.496L120.617 153.465L116.495 167H110.65ZM118.095 155.126V150.081H137.905V155.126H118.095Z" fill="white"/>
<rect x="2" y="2" width="754" height="94" fill="#232531"/>
<rect x="2" y="2" width="754" height="94" stroke="white" stroke-width="4"/>
<path d="M208.58 72V26.6572H214.117V66.9551H233.928V72H208.58ZM254.969 72.4922C252.098 72.4922 249.575 71.7847 247.401 70.3696C245.248 68.9546 243.566 66.9858 242.356 64.4634C241.167 61.9409 240.572 59.0186 240.572 55.6963C240.572 52.374 241.167 49.4517 242.356 46.9292C243.566 44.3862 245.248 42.4072 247.401 40.9922C249.575 39.5566 252.098 38.8389 254.969 38.8389C257.84 38.8389 260.352 39.5566 262.505 40.9922C264.679 42.4072 266.361 44.3862 267.55 46.9292C268.76 49.4517 269.365 52.374 269.365 55.6963C269.365 59.0186 268.76 61.9409 267.55 64.4634C266.361 66.9858 264.679 68.9546 262.505 70.3696C260.352 71.7847 257.84 72.4922 254.969 72.4922ZM254.969 67.5703C256.855 67.5703 258.476 67.0884 259.829 66.1245C261.203 65.1401 262.249 63.7661 262.967 62.0024C263.705 60.2183 264.074 58.1162 264.074 55.6963C264.074 53.2764 263.705 51.1743 262.967 49.3901C262.249 47.606 261.203 46.2217 259.829 45.2373C258.476 44.2529 256.855 43.7607 254.969 43.7607C253.082 43.7607 251.452 44.2529 250.078 45.2373C248.724 46.2217 247.678 47.606 246.94 49.3901C246.222 51.1743 245.863 53.2764 245.863 55.6963C245.863 58.1162 246.222 60.2183 246.94 62.0024C247.678 63.7661 248.724 65.1401 250.078 66.1245C251.452 67.0884 253.082 67.5703 254.969 67.5703ZM254.907 35.8242L252.385 33.5479L259.829 22.8428L263.828 26.4111L254.907 35.8242ZM289.36 85.4121C287.269 85.4121 285.238 85.0942 283.27 84.4585C281.321 83.8228 279.763 83.0947 278.594 82.2744L280.501 77.5986C281.362 78.3574 282.583 79.0444 284.162 79.6597C285.741 80.2954 287.31 80.6133 288.868 80.6133C290.242 80.6133 291.657 80.3057 293.113 79.6904C294.569 79.0752 295.79 78.0806 296.774 76.7065C297.779 75.3325 298.281 73.5176 298.281 71.2617V66.9551H297.42L298.466 64.0635V46.5293L297.051 43.5146H298.158V39.3926H303.449V71.0156C303.449 73.5586 303.049 75.7324 302.25 77.5371C301.47 79.3623 300.404 80.8491 299.05 81.9976C297.717 83.1665 296.21 84.0278 294.528 84.5815C292.847 85.1353 291.124 85.4121 289.36 85.4121ZM289.053 72.123C287.31 72.123 285.638 71.7334 284.039 70.9541C282.459 70.1748 281.044 69.0571 279.793 67.6011C278.542 66.145 277.558 64.3916 276.84 62.3408C276.123 60.2695 275.764 57.9521 275.764 55.3887C275.764 51.9229 276.399 48.9595 277.671 46.4985C278.942 44.0376 280.604 42.1611 282.654 40.8691C284.726 39.5566 286.94 38.9004 289.299 38.9004C291.698 38.9004 293.831 39.5874 295.697 40.9614C297.584 42.3354 299.061 44.2529 300.127 46.7139C301.193 49.1748 301.727 52.0254 301.727 55.2656C301.727 58.5264 301.173 61.4282 300.065 63.9712C298.958 66.4937 297.44 68.4829 295.513 69.939C293.605 71.395 291.452 72.123 289.053 72.123ZM289.914 67.2012C291.534 67.2012 292.98 66.6987 294.251 65.6938C295.543 64.6685 296.559 63.2637 297.297 61.4795C298.035 59.6748 298.404 57.6035 298.404 55.2656C298.404 52.9482 298.035 50.9385 297.297 49.2363C296.559 47.5137 295.543 46.1807 294.251 45.2373C292.98 44.2939 291.534 43.8223 289.914 43.8223C288.212 43.8223 286.705 44.3145 285.392 45.2988C284.08 46.2627 283.044 47.6162 282.285 49.3594C281.547 51.1025 281.178 53.1123 281.178 55.3887C281.178 57.665 281.557 59.6953 282.316 61.4795C283.075 63.2432 284.11 64.6377 285.423 65.6631C286.735 66.6885 288.232 67.2012 289.914 67.2012ZM324.859 72V39.3926H330.15V72H324.859ZM314.77 44.1914V39.3926H330.15V44.1914H314.77ZM327.628 34.1631C326.5 34.1631 325.546 33.7837 324.767 33.0249C324.008 32.2456 323.629 31.292 323.629 30.1641C323.629 29.0361 324.008 28.0928 324.767 27.334C325.546 26.5547 326.5 26.165 327.628 26.165C328.756 26.165 329.699 26.5547 330.458 27.334C331.237 28.0928 331.627 29.0361 331.627 30.1641C331.627 31.292 331.237 32.2456 330.458 33.0249C329.699 33.7837 328.756 34.1631 327.628 34.1631ZM363.865 72.3691C360.707 72.3691 357.928 71.6616 355.529 70.2466C353.129 68.811 351.253 66.832 349.899 64.3096C348.546 61.7666 347.869 58.834 347.869 55.5117C347.869 52.2305 348.536 49.3389 349.869 46.8369C351.202 44.335 353.058 42.3765 355.437 40.9614C357.815 39.5464 360.563 38.8389 363.681 38.8389C365.444 38.8389 367.29 39.167 369.218 39.8232C371.166 40.4795 372.827 41.3818 374.201 42.5303L372.171 47.0215C371.289 46.0986 370.069 45.3296 368.51 44.7144C366.972 44.0786 365.403 43.7607 363.804 43.7607C361.732 43.7607 359.907 44.2632 358.328 45.2681C356.749 46.2524 355.508 47.6367 354.606 49.4209C353.724 51.1846 353.283 53.2354 353.283 55.5732C353.283 57.9111 353.734 59.9722 354.637 61.7563C355.539 63.5405 356.8 64.9351 358.42 65.9399C360.041 66.9448 361.917 67.4473 364.05 67.4473C365.711 67.4473 367.3 67.1191 368.818 66.4629C370.335 65.7861 371.494 64.9863 372.294 64.0635L374.324 68.6162C373.073 69.7236 371.484 70.626 369.556 71.3232C367.649 72.0205 365.752 72.3691 363.865 72.3691ZM396.719 72.4922C393.848 72.4922 391.325 71.7847 389.151 70.3696C386.998 68.9546 385.316 66.9858 384.106 64.4634C382.917 61.9409 382.322 59.0186 382.322 55.6963C382.322 52.374 382.917 49.4517 384.106 46.9292C385.316 44.3862 386.998 42.4072 389.151 40.9922C391.325 39.5566 393.848 38.8389 396.719 38.8389C399.59 38.8389 402.102 39.5566 404.255 40.9922C406.429 42.4072 408.111 44.3862 409.3 46.9292C410.51 49.4517 411.115 52.374 411.115 55.6963C411.115 59.0186 410.51 61.9409 409.3 64.4634C408.111 66.9858 406.429 68.9546 404.255 70.3696C402.102 71.7847 399.59 72.4922 396.719 72.4922ZM396.719 67.5703C398.605 67.5703 400.226 67.0884 401.579 66.1245C402.953 65.1401 403.999 63.7661 404.717 62.0024C405.455 60.2183 405.824 58.1162 405.824 55.6963C405.824 53.2764 405.455 51.1743 404.717 49.3901C403.999 47.606 402.953 46.2217 401.579 45.2373C400.226 44.2529 398.605 43.7607 396.719 43.7607C394.832 43.7607 393.202 44.2529 391.828 45.2373C390.474 46.2217 389.428 47.606 388.69 49.3901C387.972 51.1743 387.613 53.2764 387.613 55.6963C387.613 58.1162 387.972 60.2183 388.69 62.0024C389.428 63.7661 390.474 65.1401 391.828 66.1245C393.202 67.0884 394.832 67.5703 396.719 67.5703ZM477.561 72L467.717 53.4814H467.348L463.902 49.4209V49.1748L451.29 26.6572H457.504L467.471 45.5449H467.778L471.285 49.1748V49.4209L484.144 72H477.561ZM451.044 72L463.902 49.4209V49.1748L467.348 45.5449H467.717L477.684 26.6572H483.897L471.285 49.1748V49.4209L467.778 53.4814H467.471L457.565 72H451.044ZM502.97 72.4922C499.75 72.4922 496.971 71.5488 494.633 69.6621C492.316 67.7754 490.532 65.0991 489.281 61.6333C488.03 58.1675 487.404 54.0557 487.404 49.2979C487.404 44.5605 488.03 40.459 489.281 36.9932C490.532 33.5273 492.316 30.8613 494.633 28.9951C496.971 27.1084 499.75 26.165 502.97 26.165C506.21 26.165 508.999 27.1084 511.337 28.9951C513.695 30.8613 515.5 33.5273 516.751 36.9932C518.022 40.459 518.658 44.5605 518.658 49.2979C518.658 54.0557 518.022 58.1675 516.751 61.6333C515.5 65.0991 513.695 67.7754 511.337 69.6621C508.999 71.5488 506.21 72.4922 502.97 72.4922ZM502.97 67.4473C505.144 67.4473 506.989 66.7192 508.507 65.2632C510.024 63.8071 511.173 61.7256 511.952 59.0186C512.752 56.3115 513.142 53.0713 513.121 49.2979C513.101 45.5039 512.68 42.2637 511.86 39.5771C511.06 36.8701 509.901 34.7988 508.384 33.3633C506.887 31.9277 505.082 31.21 502.97 31.21C500.857 31.21 499.053 31.9585 497.556 33.4556C496.059 34.9321 494.91 37.0239 494.11 39.731C493.331 42.438 492.941 45.627 492.941 49.2979C492.941 52.9893 493.331 56.1987 494.11 58.9263C494.91 61.6333 496.059 63.7354 497.556 65.2324C499.053 66.709 500.857 67.4473 502.97 67.4473ZM528.81 53.6045V48.8057H537.484C539.125 48.8057 540.581 48.4468 541.853 47.729C543.145 47.0112 544.149 45.9961 544.867 44.6836C545.605 43.3711 545.975 41.833 545.975 40.0693C545.975 37.4238 545.154 35.373 543.514 33.917C541.873 32.4404 539.761 31.7021 537.177 31.7021H528.81V26.6572H538.038C540.54 26.6572 542.806 27.1802 544.836 28.2261C546.887 29.2515 548.507 30.7383 549.697 32.6865C550.907 34.6143 551.512 36.9316 551.512 39.6387C551.512 42.2227 550.917 44.5708 549.728 46.6831C548.538 48.7954 546.856 50.4771 544.683 51.728C542.529 52.979 539.986 53.6045 537.054 53.6045H528.81ZM525.18 72V26.6572H530.717V72H525.18ZM547.82 72L536.685 52.7432L540.807 49.4209L554.096 72H547.82Z" fill="white"/>
<rect x="253" y="97" width="252" height="94" fill="#232531"/>
<rect x="253" y="97" width="252" height="94" stroke="white" stroke-width="4"/>
<path d="M370.141 167V161.955H380.23C382.568 161.955 384.455 161.268 385.891 159.894C387.326 158.52 388.044 156.603 388.044 154.142C388.044 151.681 387.285 149.773 385.768 148.42C384.25 147.066 382.24 146.39 379.738 146.39H369.525V141.468H378.077C379.451 141.468 380.671 141.14 381.738 140.483C382.804 139.827 383.635 138.925 384.229 137.776C384.845 136.628 385.152 135.315 385.152 133.839C385.152 131.501 384.465 129.727 383.091 128.517C381.738 127.307 379.964 126.702 377.77 126.702H369.525V121.657H377.585C380.21 121.657 382.486 122.149 384.414 123.134C386.362 124.098 387.859 125.441 388.905 127.164C389.972 128.886 390.505 130.865 390.505 133.101C390.505 134.782 390.208 136.361 389.613 137.838C389.018 139.314 388.229 140.586 387.244 141.652C386.26 142.719 385.173 143.478 383.983 143.929L384.045 142.575C385.973 143.067 387.644 143.857 389.059 144.944C390.474 146.031 391.571 147.384 392.351 149.004C393.13 150.604 393.52 152.439 393.52 154.511C393.52 156.951 392.956 159.115 391.828 161.001C390.72 162.868 389.162 164.334 387.152 165.4C385.163 166.467 382.835 167 380.169 167H370.141ZM365.219 167V121.657H370.633V167H365.219Z" fill="white"/>
<rect x="504" y="97" width="252" height="94" fill="#232531"/>
<rect x="504" y="97" width="252" height="94" stroke="white" stroke-width="4"/>
<path d="M559.494 167.492C557.218 167.492 555.075 167.051 553.065 166.169C551.055 165.288 549.312 164.078 547.835 162.54C546.359 160.981 545.282 159.187 544.605 157.156L549.773 155.003C550.307 156.521 551.076 157.843 552.081 158.971C553.085 160.079 554.234 160.94 555.526 161.555C556.818 162.15 558.161 162.447 559.556 162.447C561.032 162.447 562.365 162.129 563.555 161.494C564.765 160.837 565.718 159.935 566.416 158.787C567.133 157.638 567.492 156.315 567.492 154.818C567.492 153.178 567.103 151.824 566.323 150.758C565.544 149.691 564.508 148.799 563.216 148.082C561.945 147.343 560.54 146.687 559.002 146.113C557.464 145.518 555.926 144.893 554.388 144.236C552.85 143.56 551.435 142.76 550.143 141.837C548.871 140.894 547.846 139.714 547.066 138.299C546.287 136.884 545.897 135.11 545.897 132.978C545.897 130.496 546.451 128.374 547.559 126.61C548.687 124.846 550.214 123.503 552.142 122.58C554.07 121.637 556.233 121.165 558.633 121.165C560.725 121.165 562.632 121.514 564.354 122.211C566.077 122.908 567.564 123.862 568.815 125.072C570.066 126.282 571.02 127.666 571.676 129.225L566.631 131.255C566.057 130.168 565.349 129.255 564.508 128.517C563.688 127.758 562.765 127.184 561.74 126.794C560.714 126.405 559.638 126.21 558.51 126.21C556.705 126.21 555.075 126.753 553.619 127.84C552.163 128.927 551.435 130.578 551.435 132.793C551.435 134.413 551.824 135.746 552.604 136.792C553.383 137.817 554.408 138.679 555.68 139.376C556.972 140.073 558.387 140.709 559.925 141.283C561.463 141.837 563.001 142.432 564.539 143.067C566.077 143.703 567.482 144.493 568.753 145.436C570.045 146.359 571.081 147.538 571.86 148.974C572.64 150.409 573.029 152.214 573.029 154.388C573.029 156.972 572.435 159.248 571.245 161.217C570.076 163.186 568.466 164.724 566.416 165.831C564.385 166.938 562.078 167.492 559.494 167.492ZM591.486 167.492C589.477 167.492 587.662 167.103 586.042 166.323C584.421 165.544 583.14 164.437 582.196 163.001C581.253 161.545 580.781 159.802 580.781 157.771C580.781 155.803 581.314 154.019 582.381 152.419C583.447 150.819 585.078 149.548 587.272 148.604C589.466 147.661 592.266 147.189 595.67 147.189H602.438V151.435H596.039C594.439 151.435 592.86 151.629 591.302 152.019C589.764 152.409 588.482 153.065 587.457 153.988C586.452 154.911 585.949 156.172 585.949 157.771C585.949 158.858 586.226 159.792 586.78 160.571C587.333 161.33 588.072 161.914 588.995 162.324C589.938 162.734 590.974 162.939 592.102 162.939C593.455 162.939 594.85 162.642 596.285 162.047C597.741 161.432 598.961 160.55 599.946 159.402C600.951 158.233 601.453 156.808 601.453 155.126V151.742L601.33 149.835V146.205C601.33 145.672 601.289 144.995 601.207 144.175C601.125 143.334 600.879 142.503 600.469 141.683C600.079 140.863 599.413 140.176 598.469 139.622C597.526 139.048 596.203 138.761 594.501 138.761C593.496 138.761 592.409 138.894 591.24 139.161C590.071 139.407 588.933 139.755 587.826 140.207C586.718 140.658 585.744 141.181 584.903 141.775L582.935 137.038C584.021 136.402 585.231 135.849 586.564 135.377C587.918 134.885 589.312 134.505 590.748 134.239C592.204 133.972 593.619 133.839 594.993 133.839C597.946 133.839 600.243 134.413 601.884 135.562C603.545 136.71 604.704 138.217 605.36 140.083C606.037 141.929 606.375 143.929 606.375 146.082V157.525C606.375 158.899 606.508 159.986 606.775 160.786C607.062 161.586 607.585 162.14 608.344 162.447L608.959 162.693L606.99 167.492L606.129 167.123C604.98 166.631 603.996 165.903 603.176 164.939C602.355 163.975 601.945 163.021 601.945 162.078L602.991 162.447H600.961L602.314 161.586C601.515 163.206 600.151 164.601 598.223 165.77C596.316 166.918 594.07 167.492 591.486 167.492ZM629.016 167V134.393H634.307V167H629.016ZM618.926 139.191V134.393H634.307V139.191H618.926ZM631.723 130.824L629.2 128.548L636.645 117.843L640.644 121.411L631.723 130.824ZM678.727 167.492C677.188 166.631 675.989 165.616 675.127 164.447C674.287 163.257 673.846 162.099 673.805 160.971L674.789 161.709H672.39L673.743 158.079V141.652L672.39 138.392H673.066V119.627H678.357V157.956C678.357 159.002 678.573 159.966 679.003 160.848C679.434 161.709 679.998 162.324 680.695 162.693L678.727 167.492ZM663.838 167.492C661.213 167.492 658.916 166.805 656.947 165.431C654.999 164.037 653.481 162.078 652.395 159.556C651.328 157.033 650.795 154.06 650.795 150.635C650.795 147.251 651.328 144.298 652.395 141.775C653.481 139.253 654.999 137.305 656.947 135.931C658.916 134.536 661.213 133.839 663.838 133.839C666.381 133.839 668.596 134.536 670.482 135.931C672.39 137.325 673.866 139.284 674.912 141.806C675.979 144.329 676.512 147.271 676.512 150.635C676.512 154.019 675.979 156.972 674.912 159.494C673.866 162.017 672.39 163.985 670.482 165.4C668.596 166.795 666.381 167.492 663.838 167.492ZM664.822 162.693C666.565 162.693 668.083 162.191 669.375 161.186C670.688 160.181 671.703 158.776 672.42 156.972C673.138 155.167 673.497 153.055 673.497 150.635C673.497 148.194 673.138 146.082 672.42 144.298C671.703 142.493 670.698 141.099 669.406 140.114C668.114 139.13 666.606 138.638 664.884 138.638C663.12 138.638 661.582 139.14 660.27 140.145C658.957 141.129 657.942 142.524 657.224 144.329C656.506 146.113 656.147 148.215 656.147 150.635C656.147 153.055 656.496 155.167 657.193 156.972C657.911 158.776 658.916 160.181 660.208 161.186C661.521 162.191 663.059 162.693 664.822 162.693ZM697.799 167.492C695.789 167.492 693.974 167.103 692.354 166.323C690.734 165.544 689.452 164.437 688.509 163.001C687.565 161.545 687.094 159.802 687.094 157.771C687.094 155.803 687.627 154.019 688.693 152.419C689.76 150.819 691.39 149.548 693.584 148.604C695.779 147.661 698.578 147.189 701.982 147.189H708.75V151.435H702.352C700.752 151.435 699.173 151.629 697.614 152.019C696.076 152.409 694.794 153.065 693.769 153.988C692.764 154.911 692.262 156.172 692.262 157.771C692.262 158.858 692.539 159.792 693.092 160.571C693.646 161.33 694.384 161.914 695.307 162.324C696.25 162.734 697.286 162.939 698.414 162.939C699.768 162.939 701.162 162.642 702.598 162.047C704.054 161.432 705.274 160.55 706.258 159.402C707.263 158.233 707.766 156.808 707.766 155.126V151.742L707.643 149.835V146.205C707.643 145.672 707.602 144.995 707.52 144.175C707.438 143.334 707.191 142.503 706.781 141.683C706.392 140.863 705.725 140.176 704.782 139.622C703.838 139.048 702.516 138.761 700.813 138.761C699.809 138.761 698.722 138.894 697.553 139.161C696.384 139.407 695.246 139.755 694.138 140.207C693.031 140.658 692.057 141.181 691.216 141.775L689.247 137.038C690.334 136.402 691.544 135.849 692.877 135.377C694.23 134.885 695.625 134.505 697.061 134.239C698.517 133.972 699.932 133.839 701.306 133.839C704.259 133.839 706.556 134.413 708.196 135.562C709.857 136.71 711.016 138.217 711.672 140.083C712.349 141.929 712.688 143.929 712.688 146.082V157.525C712.688 158.899 712.821 159.986 713.087 160.786C713.375 161.586 713.897 162.14 714.656 162.447L715.271 162.693L713.303 167.492L712.441 167.123C711.293 166.631 710.309 165.903 709.488 164.939C708.668 163.975 708.258 163.021 708.258 162.078L709.304 162.447H707.273L708.627 161.586C707.827 163.206 706.463 164.601 704.536 165.77C702.628 166.918 700.383 167.492 697.799 167.492Z" fill="white"/>
</svg>
