<svg width="507" height="379" viewBox="0 0 507 379" fill="none" xmlns="http://www.w3.org/2000/svg">
<rect x="2" y="190" width="252" height="94" fill="#232531"/>
<rect x="2" y="190" width="252" height="94" stroke="white" stroke-width="4"/>
<path d="M52.0801 260V224.132C52.0801 221.527 52.5518 219.312 53.4951 217.487C54.459 215.662 55.7817 214.278 57.4634 213.334C59.145 212.371 61.083 211.889 63.2773 211.889C64.6309 211.889 66.1074 212.114 67.707 212.565C69.3066 212.996 70.7832 213.611 72.1367 214.411L70.168 218.902C69.1016 218.164 68.0044 217.61 66.8765 217.241C65.7485 216.872 64.7334 216.688 63.8311 216.688C61.9238 216.688 60.3652 217.292 59.1553 218.502C57.9658 219.692 57.3711 221.507 57.3711 223.947V260H52.0801ZM43.8359 232.191V227.393H70.2295V232.191H43.8359ZM89.4863 260.492C87.4766 260.492 85.6616 260.103 84.0415 259.323C82.4214 258.544 81.1396 257.437 80.1963 256.001C79.2529 254.545 78.7812 252.802 78.7812 250.771C78.7812 248.803 79.3145 247.019 80.3809 245.419C81.4473 243.819 83.0776 242.548 85.272 241.604C87.4663 240.661 90.2656 240.189 93.6699 240.189H100.438V244.435H94.0391C92.4395 244.435 90.8604 244.629 89.3018 245.019C87.7637 245.409 86.4819 246.065 85.4565 246.988C84.4517 247.911 83.9492 249.172 83.9492 250.771C83.9492 251.858 84.2261 252.792 84.7798 253.571C85.3335 254.33 86.0718 254.914 86.9946 255.324C87.938 255.734 88.9736 255.939 90.1016 255.939C91.4551 255.939 92.8496 255.642 94.2852 255.047C95.7412 254.432 96.9614 253.55 97.9458 252.402C98.9507 251.233 99.4531 249.808 99.4531 248.126V244.742L99.3301 242.835V239.205C99.3301 238.672 99.2891 237.995 99.207 237.175C99.125 236.334 98.8789 235.503 98.4688 234.683C98.0791 233.863 97.4126 233.176 96.4692 232.622C95.5259 232.048 94.2031 231.761 92.501 231.761C91.4961 231.761 90.4092 231.894 89.2402 232.161C88.0713 232.407 86.9331 232.755 85.8257 233.207C84.7183 233.658 83.7441 234.181 82.9033 234.775L80.9346 230.038C82.0215 229.402 83.2314 228.849 84.5645 228.377C85.918 227.885 87.3125 227.505 88.748 227.239C90.2041 226.972 91.6191 226.839 92.9932 226.839C95.9463 226.839 98.2432 227.413 99.8838 228.562C101.545 229.71 102.704 231.217 103.36 233.083C104.037 234.929 104.375 236.929 104.375 239.082V250.525C104.375 251.899 104.508 252.986 104.775 253.786C105.062 254.586 105.585 255.14 106.344 255.447L106.959 255.693L104.99 260.492L104.129 260.123C102.98 259.631 101.996 258.903 101.176 257.939C100.355 256.975 99.9453 256.021 99.9453 255.078L100.991 255.447H98.9609L100.314 254.586C99.5146 256.206 98.1509 257.601 96.2231 258.77C94.3159 259.918 92.0703 260.492 89.4863 260.492ZM132.245 260.492C129.969 260.492 127.99 260.041 126.308 259.139C124.626 258.216 123.314 256.944 122.371 255.324C121.448 253.704 120.986 251.838 120.986 249.726V212.627H126.277V249.172C126.277 251.038 126.811 252.576 127.877 253.786C128.964 254.976 130.461 255.57 132.368 255.57C133.701 255.57 135.024 255.293 136.336 254.74C137.669 254.166 138.808 253.499 139.751 252.74L141.781 257.601C140.428 258.462 138.92 259.159 137.259 259.692C135.619 260.226 133.947 260.492 132.245 260.492ZM163.622 260.492C161.469 260.492 159.5 260.133 157.716 259.416C155.952 258.677 154.455 257.734 153.225 256.585C152.015 255.417 151.153 254.196 150.641 252.925L155.562 250.895C156.116 252.084 157.121 253.161 158.577 254.125C160.033 255.088 161.776 255.57 163.807 255.57C165.058 255.57 166.237 255.386 167.344 255.017C168.452 254.627 169.344 254.094 170.021 253.417C170.718 252.72 171.066 251.899 171.066 250.956C171.066 249.849 170.595 248.967 169.651 248.311C168.729 247.634 167.529 247.07 166.052 246.619C164.596 246.147 163.048 245.675 161.407 245.204C159.767 244.711 158.208 244.106 156.731 243.389C155.275 242.65 154.076 241.697 153.132 240.528C152.209 239.338 151.748 237.811 151.748 235.944C151.748 233.935 152.302 232.263 153.409 230.93C154.537 229.577 155.983 228.572 157.747 227.916C159.51 227.239 161.366 226.9 163.314 226.9C166.062 226.9 168.482 227.516 170.574 228.746C172.666 229.956 174.204 231.515 175.188 233.422L170.328 235.452C169.815 234.55 168.975 233.719 167.806 232.96C166.637 232.202 165.099 231.822 163.191 231.822C161.571 231.822 160.115 232.161 158.823 232.837C157.552 233.514 156.916 234.529 156.916 235.883C156.916 237.031 157.377 237.954 158.3 238.651C159.244 239.328 160.443 239.902 161.899 240.374C163.376 240.825 164.935 241.276 166.575 241.728C168.216 242.179 169.764 242.743 171.22 243.419C172.697 244.096 173.896 244.999 174.819 246.126C175.763 247.234 176.234 248.7 176.234 250.525C176.234 252.515 175.65 254.258 174.481 255.755C173.333 257.252 171.794 258.421 169.867 259.262C167.959 260.082 165.878 260.492 163.622 260.492ZM199.921 260.492C196.927 260.492 194.281 259.785 191.984 258.37C189.708 256.934 187.924 254.955 186.632 252.433C185.36 249.89 184.725 246.957 184.725 243.635C184.725 240.333 185.34 237.431 186.57 234.929C187.801 232.407 189.513 230.438 191.708 229.023C193.902 227.608 196.435 226.9 199.306 226.9C201.992 226.9 204.361 227.536 206.412 228.808C208.483 230.059 210.103 231.812 211.272 234.068C212.441 236.303 213.025 238.897 213.025 241.851C213.025 242.466 212.995 243.143 212.933 243.881C212.872 244.619 212.779 245.255 212.656 245.788H188.785V241.481H207.857C207.857 239.574 207.488 237.903 206.75 236.467C206.012 235.011 204.997 233.873 203.705 233.053C202.413 232.232 200.926 231.822 199.244 231.822C197.398 231.822 195.758 232.325 194.322 233.33C192.907 234.314 191.79 235.698 190.969 237.482C190.169 239.246 189.77 241.297 189.77 243.635C189.77 245.993 190.2 248.075 191.062 249.879C191.943 251.664 193.153 253.058 194.691 254.063C196.25 255.068 198.034 255.57 200.044 255.57C201.438 255.57 202.884 255.283 204.381 254.709C205.899 254.114 207.242 253.314 208.411 252.31L210.38 257.047C209.088 258.031 207.478 258.852 205.55 259.508C203.643 260.164 201.767 260.492 199.921 260.492Z" fill="white"/>
<rect x="253" y="190" width="252" height="94" fill="#232531"/>
<rect x="253" y="190" width="252" height="94" stroke="white" stroke-width="4"/>
<path d="M330.643 260.492C328.407 260.492 326.408 260.041 324.644 259.139C322.88 258.216 321.486 256.944 320.46 255.324C319.456 253.704 318.953 251.838 318.953 249.726V216.934H324.244V249.172C324.244 251.038 324.88 252.576 326.151 253.786C327.443 254.976 329.022 255.57 330.889 255.57C332.181 255.57 333.462 255.304 334.734 254.771C336.026 254.217 337.144 253.561 338.087 252.802L340.117 257.662C338.764 258.523 337.267 259.21 335.626 259.723C334.006 260.236 332.345 260.492 330.643 260.492ZM311.324 232.191V227.393H338.087V232.191H311.324ZM350.453 260V227.393H355.744V232.314H356.79L354.944 234.898C355.313 233.381 356 232.017 357.005 230.807C358.01 229.597 359.21 228.644 360.604 227.946C362.02 227.249 363.517 226.9 365.096 226.9C366.798 226.9 368.346 227.177 369.741 227.731C371.135 228.285 372.355 229.115 373.401 230.223C374.447 231.33 375.288 232.725 375.924 234.406L371.002 236.437C370.387 234.98 369.464 233.873 368.233 233.114C367.003 232.335 365.526 231.945 363.804 231.945C362.409 231.945 361.097 232.355 359.866 233.176C358.636 233.976 357.641 235.093 356.882 236.529C356.124 237.964 355.744 239.615 355.744 241.481V260H350.453ZM394.996 260.492C392.679 260.492 390.659 259.99 388.936 258.985C387.234 257.98 385.911 256.575 384.968 254.771C384.024 252.945 383.553 250.812 383.553 248.372V227.393H388.844V248.126C388.844 250.361 389.5 252.156 390.812 253.509C392.125 254.842 393.868 255.529 396.042 255.57C397.601 255.591 398.964 255.293 400.133 254.678C401.302 254.063 402.215 253.202 402.871 252.094C403.527 250.966 403.855 249.644 403.855 248.126V227.393H409.146V251.264C409.146 252.146 409.464 252.986 410.1 253.786C410.736 254.586 411.607 255.222 412.715 255.693L410.746 260.492C409.085 259.754 407.649 258.841 406.439 257.754C405.25 256.647 404.655 255.591 404.655 254.586L406.747 255.693H403.24L405.947 253.848C404.901 255.96 403.374 257.601 401.364 258.77C399.375 259.918 397.252 260.492 394.996 260.492ZM433.202 260.492C430.208 260.492 427.562 259.785 425.266 258.37C422.989 256.934 421.205 254.955 419.913 252.433C418.642 249.89 418.006 246.957 418.006 243.635C418.006 240.333 418.621 237.431 419.852 234.929C421.082 232.407 422.794 230.438 424.989 229.023C427.183 227.608 429.716 226.9 432.587 226.9C435.273 226.9 437.642 227.536 439.693 228.808C441.764 230.059 443.384 231.812 444.553 234.068C445.722 236.303 446.307 238.897 446.307 241.851C446.307 242.466 446.276 243.143 446.214 243.881C446.153 244.619 446.061 245.255 445.938 245.788H422.066V241.481H441.139C441.139 239.574 440.77 237.903 440.031 236.467C439.293 235.011 438.278 233.873 436.986 233.053C435.694 232.232 434.207 231.822 432.525 231.822C430.68 231.822 429.039 232.325 427.604 233.33C426.188 234.314 425.071 235.698 424.25 237.482C423.451 239.246 423.051 241.297 423.051 243.635C423.051 245.993 423.481 248.075 424.343 249.879C425.225 251.664 426.435 253.058 427.973 254.063C429.531 255.068 431.315 255.57 433.325 255.57C434.72 255.57 436.166 255.283 437.663 254.709C439.18 254.114 440.523 253.314 441.692 252.31L443.661 257.047C442.369 258.031 440.759 258.852 438.832 259.508C436.924 260.164 435.048 260.492 433.202 260.492Z" fill="white"/>
<rect x="2" y="283" width="252" height="94" fill="#232531"/>
<rect x="2" y="283" width="252" height="94" stroke="white" stroke-width="4"/>
<path d="M79.6426 353.492C77.4072 353.492 75.4077 353.041 73.644 352.139C71.8804 351.216 70.4858 349.944 69.4604 348.324C68.4556 346.704 67.9531 344.838 67.9531 342.726V309.934H73.2441V342.172C73.2441 344.038 73.8799 345.576 75.1514 346.786C76.4434 347.976 78.0225 348.57 79.8887 348.57C81.1807 348.57 82.4624 348.304 83.7339 347.771C85.0259 347.217 86.1436 346.561 87.0869 345.802L89.1172 350.662C87.7637 351.523 86.2666 352.21 84.626 352.723C83.0059 353.236 81.3447 353.492 79.6426 353.492ZM60.3242 325.191V320.393H87.0869V325.191H60.3242ZM99.4531 353V320.393H104.744V325.314H105.79L103.944 327.898C104.313 326.381 105 325.017 106.005 323.807C107.01 322.597 108.21 321.644 109.604 320.946C111.02 320.249 112.517 319.9 114.096 319.9C115.798 319.9 117.346 320.177 118.741 320.731C120.135 321.285 121.355 322.115 122.401 323.223C123.447 324.33 124.288 325.725 124.924 327.406L120.002 329.437C119.387 327.98 118.464 326.873 117.233 326.114C116.003 325.335 114.526 324.945 112.804 324.945C111.409 324.945 110.097 325.355 108.866 326.176C107.636 326.976 106.641 328.093 105.882 329.529C105.124 330.964 104.744 332.615 104.744 334.481V353H99.4531ZM143.996 353.492C141.679 353.492 139.659 352.99 137.936 351.985C136.234 350.98 134.911 349.575 133.968 347.771C133.024 345.945 132.553 343.812 132.553 341.372V320.393H137.844V341.126C137.844 343.361 138.5 345.156 139.812 346.509C141.125 347.842 142.868 348.529 145.042 348.57C146.601 348.591 147.964 348.293 149.133 347.678C150.302 347.063 151.215 346.202 151.871 345.094C152.527 343.966 152.855 342.644 152.855 341.126V320.393H158.146V344.264C158.146 345.146 158.464 345.986 159.1 346.786C159.736 347.586 160.607 348.222 161.715 348.693L159.746 353.492C158.085 352.754 156.649 351.841 155.439 350.754C154.25 349.647 153.655 348.591 153.655 347.586L155.747 348.693H152.24L154.947 346.848C153.901 348.96 152.374 350.601 150.364 351.77C148.375 352.918 146.252 353.492 143.996 353.492ZM182.202 353.492C179.208 353.492 176.562 352.785 174.266 351.37C171.989 349.934 170.205 347.955 168.913 345.433C167.642 342.89 167.006 339.957 167.006 336.635C167.006 333.333 167.621 330.431 168.852 327.929C170.082 325.407 171.794 323.438 173.989 322.023C176.183 320.608 178.716 319.9 181.587 319.9C184.273 319.9 186.642 320.536 188.693 321.808C190.764 323.059 192.384 324.812 193.553 327.068C194.722 329.303 195.307 331.897 195.307 334.851C195.307 335.466 195.276 336.143 195.214 336.881C195.153 337.619 195.061 338.255 194.938 338.788H171.066V334.481H190.139C190.139 332.574 189.77 330.903 189.031 329.467C188.293 328.011 187.278 326.873 185.986 326.053C184.694 325.232 183.207 324.822 181.525 324.822C179.68 324.822 178.039 325.325 176.604 326.33C175.188 327.314 174.071 328.698 173.25 330.482C172.451 332.246 172.051 334.297 172.051 336.635C172.051 338.993 172.481 341.075 173.343 342.879C174.225 344.664 175.435 346.058 176.973 347.063C178.531 348.068 180.315 348.57 182.325 348.57C183.72 348.57 185.166 348.283 186.663 347.709C188.18 347.114 189.523 346.314 190.692 345.31L192.661 350.047C191.369 351.031 189.759 351.852 187.832 352.508C185.924 353.164 184.048 353.492 182.202 353.492Z" fill="white"/>
<rect x="253" y="283" width="252" height="94" fill="#232531"/>
<rect x="253" y="283" width="252" height="94" stroke="white" stroke-width="4"/>
<path d="M303.08 353V317.132C303.08 314.527 303.552 312.312 304.495 310.487C305.459 308.662 306.782 307.278 308.463 306.334C310.145 305.371 312.083 304.889 314.277 304.889C315.631 304.889 317.107 305.114 318.707 305.565C320.307 305.996 321.783 306.611 323.137 307.411L321.168 311.902C320.102 311.164 319.004 310.61 317.876 310.241C316.749 309.872 315.733 309.688 314.831 309.688C312.924 309.688 311.365 310.292 310.155 311.502C308.966 312.692 308.371 314.507 308.371 316.947V353H303.08ZM294.836 325.191V320.393H321.229V325.191H294.836ZM340.486 353.492C338.477 353.492 336.662 353.103 335.042 352.323C333.421 351.544 332.14 350.437 331.196 349.001C330.253 347.545 329.781 345.802 329.781 343.771C329.781 341.803 330.314 340.019 331.381 338.419C332.447 336.819 334.078 335.548 336.272 334.604C338.466 333.661 341.266 333.189 344.67 333.189H351.438V337.435H345.039C343.439 337.435 341.86 337.629 340.302 338.019C338.764 338.409 337.482 339.065 336.457 339.988C335.452 340.911 334.949 342.172 334.949 343.771C334.949 344.858 335.226 345.792 335.78 346.571C336.333 347.33 337.072 347.914 337.995 348.324C338.938 348.734 339.974 348.939 341.102 348.939C342.455 348.939 343.85 348.642 345.285 348.047C346.741 347.432 347.961 346.55 348.946 345.402C349.951 344.233 350.453 342.808 350.453 341.126V337.742L350.33 335.835V332.205C350.33 331.672 350.289 330.995 350.207 330.175C350.125 329.334 349.879 328.503 349.469 327.683C349.079 326.863 348.413 326.176 347.469 325.622C346.526 325.048 345.203 324.761 343.501 324.761C342.496 324.761 341.409 324.894 340.24 325.161C339.071 325.407 337.933 325.755 336.826 326.207C335.718 326.658 334.744 327.181 333.903 327.775L331.935 323.038C333.021 322.402 334.231 321.849 335.564 321.377C336.918 320.885 338.312 320.505 339.748 320.239C341.204 319.972 342.619 319.839 343.993 319.839C346.946 319.839 349.243 320.413 350.884 321.562C352.545 322.71 353.704 324.217 354.36 326.083C355.037 327.929 355.375 329.929 355.375 332.082V343.525C355.375 344.899 355.508 345.986 355.775 346.786C356.062 347.586 356.585 348.14 357.344 348.447L357.959 348.693L355.99 353.492L355.129 353.123C353.98 352.631 352.996 351.903 352.176 350.939C351.355 349.975 350.945 349.021 350.945 348.078L351.991 348.447H349.961L351.314 347.586C350.515 349.206 349.151 350.601 347.223 351.77C345.316 352.918 343.07 353.492 340.486 353.492ZM383.245 353.492C380.969 353.492 378.99 353.041 377.308 352.139C375.626 351.216 374.314 349.944 373.371 348.324C372.448 346.704 371.986 344.838 371.986 342.726V305.627H377.277V342.172C377.277 344.038 377.811 345.576 378.877 346.786C379.964 347.976 381.461 348.57 383.368 348.57C384.701 348.57 386.024 348.293 387.336 347.74C388.669 347.166 389.808 346.499 390.751 345.74L392.781 350.601C391.428 351.462 389.92 352.159 388.259 352.692C386.619 353.226 384.947 353.492 383.245 353.492ZM414.622 353.492C412.469 353.492 410.5 353.133 408.716 352.416C406.952 351.677 405.455 350.734 404.225 349.585C403.015 348.417 402.153 347.196 401.641 345.925L406.562 343.895C407.116 345.084 408.121 346.161 409.577 347.125C411.033 348.088 412.776 348.57 414.807 348.57C416.058 348.57 417.237 348.386 418.344 348.017C419.452 347.627 420.344 347.094 421.021 346.417C421.718 345.72 422.066 344.899 422.066 343.956C422.066 342.849 421.595 341.967 420.651 341.311C419.729 340.634 418.529 340.07 417.052 339.619C415.596 339.147 414.048 338.675 412.407 338.204C410.767 337.711 409.208 337.106 407.731 336.389C406.275 335.65 405.076 334.697 404.132 333.528C403.209 332.338 402.748 330.811 402.748 328.944C402.748 326.935 403.302 325.263 404.409 323.93C405.537 322.577 406.983 321.572 408.747 320.916C410.51 320.239 412.366 319.9 414.314 319.9C417.062 319.9 419.482 320.516 421.574 321.746C423.666 322.956 425.204 324.515 426.188 326.422L421.328 328.452C420.815 327.55 419.975 326.719 418.806 325.96C417.637 325.202 416.099 324.822 414.191 324.822C412.571 324.822 411.115 325.161 409.823 325.837C408.552 326.514 407.916 327.529 407.916 328.883C407.916 330.031 408.377 330.954 409.3 331.651C410.244 332.328 411.443 332.902 412.899 333.374C414.376 333.825 415.935 334.276 417.575 334.728C419.216 335.179 420.764 335.743 422.22 336.419C423.697 337.096 424.896 337.999 425.819 339.126C426.763 340.234 427.234 341.7 427.234 343.525C427.234 345.515 426.65 347.258 425.481 348.755C424.333 350.252 422.794 351.421 420.867 352.262C418.959 353.082 416.878 353.492 414.622 353.492ZM450.921 353.492C447.927 353.492 445.281 352.785 442.984 351.37C440.708 349.934 438.924 347.955 437.632 345.433C436.36 342.89 435.725 339.957 435.725 336.635C435.725 333.333 436.34 330.431 437.57 327.929C438.801 325.407 440.513 323.438 442.708 322.023C444.902 320.608 447.435 319.9 450.306 319.9C452.992 319.9 455.361 320.536 457.412 321.808C459.483 323.059 461.103 324.812 462.272 327.068C463.441 329.303 464.025 331.897 464.025 334.851C464.025 335.466 463.995 336.143 463.933 336.881C463.872 337.619 463.779 338.255 463.656 338.788H439.785V334.481H458.857C458.857 332.574 458.488 330.903 457.75 329.467C457.012 328.011 455.997 326.873 454.705 326.053C453.413 325.232 451.926 324.822 450.244 324.822C448.398 324.822 446.758 325.325 445.322 326.33C443.907 327.314 442.79 328.698 441.969 330.482C441.169 332.246 440.77 334.297 440.77 336.635C440.77 338.993 441.2 341.075 442.062 342.879C442.943 344.664 444.153 346.058 445.691 347.063C447.25 348.068 449.034 348.57 451.044 348.57C452.438 348.57 453.884 348.283 455.381 347.709C456.899 347.114 458.242 346.314 459.411 345.31L461.38 350.047C460.088 351.031 458.478 351.852 456.55 352.508C454.643 353.164 452.767 353.492 450.921 353.492Z" fill="white"/>
<rect x="2" y="97" width="252" height="94" fill="#232531"/>
<rect x="2" y="97" width="252" height="94" stroke="white" stroke-width="4"/>
<path d="M110.65 167L125.231 121.657H130.769L145.35 167H139.505L135.383 153.465L134.829 151.496L128.123 129.225H127.877L121.171 151.496L120.617 153.465L116.495 167H110.65ZM118.095 155.126V150.081H137.905V155.126H118.095Z" fill="white"/>
<rect x="2" y="2" width="503" height="94" fill="#232531"/>
<rect x="2" y="2" width="503" height="94" stroke="white" stroke-width="4"/>
<path d="M83.0801 72V26.6572H88.6172V66.9551H108.428V72H83.0801ZM129.469 72.4922C126.598 72.4922 124.075 71.7847 121.901 70.3696C119.748 68.9546 118.066 66.9858 116.856 64.4634C115.667 61.9409 115.072 59.0186 115.072 55.6963C115.072 52.374 115.667 49.4517 116.856 46.9292C118.066 44.3862 119.748 42.4072 121.901 40.9922C124.075 39.5566 126.598 38.8389 129.469 38.8389C132.34 38.8389 134.852 39.5566 137.005 40.9922C139.179 42.4072 140.861 44.3862 142.05 46.9292C143.26 49.4517 143.865 52.374 143.865 55.6963C143.865 59.0186 143.26 61.9409 142.05 64.4634C140.861 66.9858 139.179 68.9546 137.005 70.3696C134.852 71.7847 132.34 72.4922 129.469 72.4922ZM129.469 67.5703C131.355 67.5703 132.976 67.0884 134.329 66.1245C135.703 65.1401 136.749 63.7661 137.467 62.0024C138.205 60.2183 138.574 58.1162 138.574 55.6963C138.574 53.2764 138.205 51.1743 137.467 49.3901C136.749 47.606 135.703 46.2217 134.329 45.2373C132.976 44.2529 131.355 43.7607 129.469 43.7607C127.582 43.7607 125.952 44.2529 124.578 45.2373C123.224 46.2217 122.178 47.606 121.44 49.3901C120.722 51.1743 120.363 53.2764 120.363 55.6963C120.363 58.1162 120.722 60.2183 121.44 62.0024C122.178 63.7661 123.224 65.1401 124.578 66.1245C125.952 67.0884 127.582 67.5703 129.469 67.5703ZM129.407 35.8242L126.885 33.5479L134.329 22.8428L138.328 26.4111L129.407 35.8242ZM163.86 85.4121C161.769 85.4121 159.738 85.0942 157.77 84.4585C155.821 83.8228 154.263 83.0947 153.094 82.2744L155.001 77.5986C155.862 78.3574 157.083 79.0444 158.662 79.6597C160.241 80.2954 161.81 80.6133 163.368 80.6133C164.742 80.6133 166.157 80.3057 167.613 79.6904C169.069 79.0752 170.29 78.0806 171.274 76.7065C172.279 75.3325 172.781 73.5176 172.781 71.2617V66.9551H171.92L172.966 64.0635V46.5293L171.551 43.5146H172.658V39.3926H177.949V71.0156C177.949 73.5586 177.549 75.7324 176.75 77.5371C175.97 79.3623 174.904 80.8491 173.55 81.9976C172.217 83.1665 170.71 84.0278 169.028 84.5815C167.347 85.1353 165.624 85.4121 163.86 85.4121ZM163.553 72.123C161.81 72.123 160.138 71.7334 158.539 70.9541C156.959 70.1748 155.544 69.0571 154.293 67.6011C153.042 66.145 152.058 64.3916 151.34 62.3408C150.623 60.2695 150.264 57.9521 150.264 55.3887C150.264 51.9229 150.899 48.9595 152.171 46.4985C153.442 44.0376 155.104 42.1611 157.154 40.8691C159.226 39.5566 161.44 38.9004 163.799 38.9004C166.198 38.9004 168.331 39.5874 170.197 40.9614C172.084 42.3354 173.561 44.2529 174.627 46.7139C175.693 49.1748 176.227 52.0254 176.227 55.2656C176.227 58.5264 175.673 61.4282 174.565 63.9712C173.458 66.4937 171.94 68.4829 170.013 69.939C168.105 71.395 165.952 72.123 163.553 72.123ZM164.414 67.2012C166.034 67.2012 167.48 66.6987 168.751 65.6938C170.043 64.6685 171.059 63.2637 171.797 61.4795C172.535 59.6748 172.904 57.6035 172.904 55.2656C172.904 52.9482 172.535 50.9385 171.797 49.2363C171.059 47.5137 170.043 46.1807 168.751 45.2373C167.48 44.2939 166.034 43.8223 164.414 43.8223C162.712 43.8223 161.205 44.3145 159.892 45.2988C158.58 46.2627 157.544 47.6162 156.785 49.3594C156.047 51.1025 155.678 53.1123 155.678 55.3887C155.678 57.665 156.057 59.6953 156.816 61.4795C157.575 63.2432 158.61 64.6377 159.923 65.6631C161.235 66.6885 162.732 67.2012 164.414 67.2012ZM199.359 72V39.3926H204.65V72H199.359ZM189.27 44.1914V39.3926H204.65V44.1914H189.27ZM202.128 34.1631C201 34.1631 200.046 33.7837 199.267 33.0249C198.508 32.2456 198.129 31.292 198.129 30.1641C198.129 29.0361 198.508 28.0928 199.267 27.334C200.046 26.5547 201 26.165 202.128 26.165C203.256 26.165 204.199 26.5547 204.958 27.334C205.737 28.0928 206.127 29.0361 206.127 30.1641C206.127 31.292 205.737 32.2456 204.958 33.0249C204.199 33.7837 203.256 34.1631 202.128 34.1631ZM238.365 72.3691C235.207 72.3691 232.428 71.6616 230.029 70.2466C227.629 68.811 225.753 66.832 224.399 64.3096C223.046 61.7666 222.369 58.834 222.369 55.5117C222.369 52.2305 223.036 49.3389 224.369 46.8369C225.702 44.335 227.558 42.3765 229.937 40.9614C232.315 39.5464 235.063 38.8389 238.181 38.8389C239.944 38.8389 241.79 39.167 243.718 39.8232C245.666 40.4795 247.327 41.3818 248.701 42.5303L246.671 47.0215C245.789 46.0986 244.569 45.3296 243.01 44.7144C241.472 44.0786 239.903 43.7607 238.304 43.7607C236.232 43.7607 234.407 44.2632 232.828 45.2681C231.249 46.2524 230.008 47.6367 229.106 49.4209C228.224 51.1846 227.783 53.2354 227.783 55.5732C227.783 57.9111 228.234 59.9722 229.137 61.7563C230.039 63.5405 231.3 64.9351 232.92 65.9399C234.541 66.9448 236.417 67.4473 238.55 67.4473C240.211 67.4473 241.8 67.1191 243.318 66.4629C244.835 65.7861 245.994 64.9863 246.794 64.0635L248.824 68.6162C247.573 69.7236 245.984 70.626 244.056 71.3232C242.149 72.0205 240.252 72.3691 238.365 72.3691ZM271.219 72.4922C268.348 72.4922 265.825 71.7847 263.651 70.3696C261.498 68.9546 259.816 66.9858 258.606 64.4634C257.417 61.9409 256.822 59.0186 256.822 55.6963C256.822 52.374 257.417 49.4517 258.606 46.9292C259.816 44.3862 261.498 42.4072 263.651 40.9922C265.825 39.5566 268.348 38.8389 271.219 38.8389C274.09 38.8389 276.602 39.5566 278.755 40.9922C280.929 42.4072 282.611 44.3862 283.8 46.9292C285.01 49.4517 285.615 52.374 285.615 55.6963C285.615 59.0186 285.01 61.9409 283.8 64.4634C282.611 66.9858 280.929 68.9546 278.755 70.3696C276.602 71.7847 274.09 72.4922 271.219 72.4922ZM271.219 67.5703C273.105 67.5703 274.726 67.0884 276.079 66.1245C277.453 65.1401 278.499 63.7661 279.217 62.0024C279.955 60.2183 280.324 58.1162 280.324 55.6963C280.324 53.2764 279.955 51.1743 279.217 49.3901C278.499 47.606 277.453 46.2217 276.079 45.2373C274.726 44.2529 273.105 43.7607 271.219 43.7607C269.332 43.7607 267.702 44.2529 266.328 45.2373C264.974 46.2217 263.928 47.606 263.19 49.3901C262.472 51.1743 262.113 53.2764 262.113 55.6963C262.113 58.1162 262.472 60.2183 263.19 62.0024C263.928 63.7661 264.974 65.1401 266.328 66.1245C267.702 67.0884 269.332 67.5703 271.219 67.5703ZM328.189 72V26.6572H332.25L347.446 53.8506L350.461 59.0801H350.707L350.584 50.4053V26.6572H355.998V72H351.999L336.741 44.8066L333.727 39.3926H333.48L333.604 48.0674V72H328.189ZM377.47 72.4922C374.25 72.4922 371.471 71.5488 369.133 69.6621C366.816 67.7754 365.032 65.0991 363.781 61.6333C362.53 58.1675 361.904 54.0557 361.904 49.2979C361.904 44.5605 362.53 40.459 363.781 36.9932C365.032 33.5273 366.816 30.8613 369.133 28.9951C371.471 27.1084 374.25 26.165 377.47 26.165C380.71 26.165 383.499 27.1084 385.837 28.9951C388.195 30.8613 390 33.5273 391.251 36.9932C392.522 40.459 393.158 44.5605 393.158 49.2979C393.158 54.0557 392.522 58.1675 391.251 61.6333C390 65.0991 388.195 67.7754 385.837 69.6621C383.499 71.5488 380.71 72.4922 377.47 72.4922ZM377.47 67.4473C379.644 67.4473 381.489 66.7192 383.007 65.2632C384.524 63.8071 385.673 61.7256 386.452 59.0186C387.252 56.3115 387.642 53.0713 387.621 49.2979C387.601 45.5039 387.18 42.2637 386.36 39.5771C385.56 36.8701 384.401 34.7988 382.884 33.3633C381.387 31.9277 379.582 31.21 377.47 31.21C375.357 31.21 373.553 31.9585 372.056 33.4556C370.559 34.9321 369.41 37.0239 368.61 39.731C367.831 42.438 367.441 45.627 367.441 49.2979C367.441 52.9893 367.831 56.1987 368.61 58.9263C369.41 61.6333 370.559 63.7354 372.056 65.2324C373.553 66.709 375.357 67.4473 377.47 67.4473ZM410.2 72V30.6562H415.737V72H410.2ZM397.957 31.7021V26.6572H427.98V31.7021H397.957Z" fill="white"/>
<rect x="253" y="97" width="252" height="94" fill="#232531"/>
<rect x="253" y="97" width="252" height="94" stroke="white" stroke-width="4"/>
<path d="M308.494 167.492C306.218 167.492 304.075 167.051 302.065 166.169C300.055 165.288 298.312 164.078 296.835 162.54C295.359 160.981 294.282 159.187 293.605 157.156L298.773 155.003C299.307 156.521 300.076 157.843 301.081 158.971C302.085 160.079 303.234 160.94 304.526 161.555C305.818 162.15 307.161 162.447 308.556 162.447C310.032 162.447 311.365 162.129 312.555 161.494C313.765 160.837 314.718 159.935 315.416 158.787C316.133 157.638 316.492 156.315 316.492 154.818C316.492 153.178 316.103 151.824 315.323 150.758C314.544 149.691 313.508 148.799 312.216 148.082C310.945 147.343 309.54 146.687 308.002 146.113C306.464 145.518 304.926 144.893 303.388 144.236C301.85 143.56 300.435 142.76 299.143 141.837C297.871 140.894 296.846 139.714 296.066 138.299C295.287 136.884 294.897 135.11 294.897 132.978C294.897 130.496 295.451 128.374 296.559 126.61C297.687 124.846 299.214 123.503 301.142 122.58C303.07 121.637 305.233 121.165 307.633 121.165C309.725 121.165 311.632 121.514 313.354 122.211C315.077 122.908 316.564 123.862 317.815 125.072C319.066 126.282 320.02 127.666 320.676 129.225L315.631 131.255C315.057 130.168 314.349 129.255 313.508 128.517C312.688 127.758 311.765 127.184 310.74 126.794C309.714 126.405 308.638 126.21 307.51 126.21C305.705 126.21 304.075 126.753 302.619 127.84C301.163 128.927 300.435 130.578 300.435 132.793C300.435 134.413 300.824 135.746 301.604 136.792C302.383 137.817 303.408 138.679 304.68 139.376C305.972 140.073 307.387 140.709 308.925 141.283C310.463 141.837 312.001 142.432 313.539 143.067C315.077 143.703 316.482 144.493 317.753 145.436C319.045 146.359 320.081 147.538 320.86 148.974C321.64 150.409 322.029 152.214 322.029 154.388C322.029 156.972 321.435 159.248 320.245 161.217C319.076 163.186 317.466 164.724 315.416 165.831C313.385 166.938 311.078 167.492 308.494 167.492ZM340.486 167.492C338.477 167.492 336.662 167.103 335.042 166.323C333.421 165.544 332.14 164.437 331.196 163.001C330.253 161.545 329.781 159.802 329.781 157.771C329.781 155.803 330.314 154.019 331.381 152.419C332.447 150.819 334.078 149.548 336.272 148.604C338.466 147.661 341.266 147.189 344.67 147.189H351.438V151.435H345.039C343.439 151.435 341.86 151.629 340.302 152.019C338.764 152.409 337.482 153.065 336.457 153.988C335.452 154.911 334.949 156.172 334.949 157.771C334.949 158.858 335.226 159.792 335.78 160.571C336.333 161.33 337.072 161.914 337.995 162.324C338.938 162.734 339.974 162.939 341.102 162.939C342.455 162.939 343.85 162.642 345.285 162.047C346.741 161.432 347.961 160.55 348.946 159.402C349.951 158.233 350.453 156.808 350.453 155.126V151.742L350.33 149.835V146.205C350.33 145.672 350.289 144.995 350.207 144.175C350.125 143.334 349.879 142.503 349.469 141.683C349.079 140.863 348.413 140.176 347.469 139.622C346.526 139.048 345.203 138.761 343.501 138.761C342.496 138.761 341.409 138.894 340.24 139.161C339.071 139.407 337.933 139.755 336.826 140.207C335.718 140.658 334.744 141.181 333.903 141.775L331.935 137.038C333.021 136.402 334.231 135.849 335.564 135.377C336.918 134.885 338.312 134.505 339.748 134.239C341.204 133.972 342.619 133.839 343.993 133.839C346.946 133.839 349.243 134.413 350.884 135.562C352.545 136.71 353.704 138.217 354.36 140.083C355.037 141.929 355.375 143.929 355.375 146.082V157.525C355.375 158.899 355.508 159.986 355.775 160.786C356.062 161.586 356.585 162.14 357.344 162.447L357.959 162.693L355.99 167.492L355.129 167.123C353.98 166.631 352.996 165.903 352.176 164.939C351.355 163.975 350.945 163.021 350.945 162.078L351.991 162.447H349.961L351.314 161.586C350.515 163.206 349.151 164.601 347.223 165.77C345.316 166.918 343.07 167.492 340.486 167.492ZM378.016 167V134.393H383.307V167H378.016ZM367.926 139.191V134.393H383.307V139.191H367.926ZM380.723 130.824L378.2 128.548L385.645 117.843L389.644 121.411L380.723 130.824ZM427.727 167.492C426.188 166.631 424.989 165.616 424.127 164.447C423.287 163.257 422.846 162.099 422.805 160.971L423.789 161.709H421.39L422.743 158.079V141.652L421.39 138.392H422.066V119.627H427.357V157.956C427.357 159.002 427.573 159.966 428.003 160.848C428.434 161.709 428.998 162.324 429.695 162.693L427.727 167.492ZM412.838 167.492C410.213 167.492 407.916 166.805 405.947 165.431C403.999 164.037 402.481 162.078 401.395 159.556C400.328 157.033 399.795 154.06 399.795 150.635C399.795 147.251 400.328 144.298 401.395 141.775C402.481 139.253 403.999 137.305 405.947 135.931C407.916 134.536 410.213 133.839 412.838 133.839C415.381 133.839 417.596 134.536 419.482 135.931C421.39 137.325 422.866 139.284 423.912 141.806C424.979 144.329 425.512 147.271 425.512 150.635C425.512 154.019 424.979 156.972 423.912 159.494C422.866 162.017 421.39 163.985 419.482 165.4C417.596 166.795 415.381 167.492 412.838 167.492ZM413.822 162.693C415.565 162.693 417.083 162.191 418.375 161.186C419.688 160.181 420.703 158.776 421.42 156.972C422.138 155.167 422.497 153.055 422.497 150.635C422.497 148.194 422.138 146.082 421.42 144.298C420.703 142.493 419.698 141.099 418.406 140.114C417.114 139.13 415.606 138.638 413.884 138.638C412.12 138.638 410.582 139.14 409.27 140.145C407.957 141.129 406.942 142.524 406.224 144.329C405.506 146.113 405.147 148.215 405.147 150.635C405.147 153.055 405.496 155.167 406.193 156.972C406.911 158.776 407.916 160.181 409.208 161.186C410.521 162.191 412.059 162.693 413.822 162.693ZM446.799 167.492C444.789 167.492 442.974 167.103 441.354 166.323C439.734 165.544 438.452 164.437 437.509 163.001C436.565 161.545 436.094 159.802 436.094 157.771C436.094 155.803 436.627 154.019 437.693 152.419C438.76 150.819 440.39 149.548 442.584 148.604C444.779 147.661 447.578 147.189 450.982 147.189H457.75V151.435H451.352C449.752 151.435 448.173 151.629 446.614 152.019C445.076 152.409 443.794 153.065 442.769 153.988C441.764 154.911 441.262 156.172 441.262 157.771C441.262 158.858 441.539 159.792 442.092 160.571C442.646 161.33 443.384 161.914 444.307 162.324C445.25 162.734 446.286 162.939 447.414 162.939C448.768 162.939 450.162 162.642 451.598 162.047C453.054 161.432 454.274 160.55 455.258 159.402C456.263 158.233 456.766 156.808 456.766 155.126V151.742L456.643 149.835V146.205C456.643 145.672 456.602 144.995 456.52 144.175C456.438 143.334 456.191 142.503 455.781 141.683C455.392 140.863 454.725 140.176 453.782 139.622C452.838 139.048 451.516 138.761 449.813 138.761C448.809 138.761 447.722 138.894 446.553 139.161C445.384 139.407 444.246 139.755 443.138 140.207C442.031 140.658 441.057 141.181 440.216 141.775L438.247 137.038C439.334 136.402 440.544 135.849 441.877 135.377C443.23 134.885 444.625 134.505 446.061 134.239C447.517 133.972 448.932 133.839 450.306 133.839C453.259 133.839 455.556 134.413 457.196 135.562C458.857 136.71 460.016 138.217 460.672 140.083C461.349 141.929 461.688 143.929 461.688 146.082V157.525C461.688 158.899 461.821 159.986 462.087 160.786C462.375 161.586 462.897 162.14 463.656 162.447L464.271 162.693L462.303 167.492L461.441 167.123C460.293 166.631 459.309 165.903 458.488 164.939C457.668 163.975 457.258 163.021 457.258 162.078L458.304 162.447H456.273L457.627 161.586C456.827 163.206 455.463 164.601 453.536 165.77C451.628 166.918 449.383 167.492 446.799 167.492Z" fill="white"/>
</svg>
