<?xml version="1.0" encoding="UTF-8"?><svg id="Layer_2" xmlns="http://www.w3.org/2000/svg" viewBox="0 0 730.04 906.38"><defs><style>.cls-1{fill:none;stroke:#f1f2f2;stroke-miterlimit:10;stroke-width:3px;}.cls-2{fill:#f1f2f2;}.cls-3{fill:#6d6e71;}.cls-4{fill:#414042;}</style></defs><g id="Layer_1-2"><rect class="cls-3" width="730.04" height="906.38"/><rect class="cls-4" x="26.04" y="25.79" width="150.13" height="150.13" rx="19.91" ry="19.91"/><rect class="cls-4" x="202.21" y="25.79" width="150.13" height="150.13" rx="19.91" ry="19.91"/><rect class="cls-4" x="378.38" y="25.79" width="150.13" height="150.13" rx="19.91" ry="19.91"/><rect class="cls-4" x="554.55" y="25.79" width="150.13" height="150.13" rx="19.91" ry="19.91"/><rect class="cls-4" x="26.04" y="201.96" width="150.13" height="150.13" rx="19.91" ry="19.91"/><rect class="cls-4" x="202.21" y="201.96" width="150.13" height="150.13" rx="19.91" ry="19.91"/><rect class="cls-4" x="378.38" y="201.96" width="150.13" height="150.13" rx="19.91" ry="19.91"/><rect class="cls-4" x="554.55" y="201.96" width="150.13" height="326.3" rx="19.91" ry="19.91"/><rect class="cls-4" x="26.04" y="378.13" width="150.13" height="150.13" rx="19.91" ry="19.91"/><rect class="cls-4" x="202.21" y="378.13" width="150.13" height="150.13" rx="19.91" ry="19.91"/><rect class="cls-4" x="378.38" y="378.13" width="150.13" height="150.13" rx="19.91" ry="19.91"/><rect class="cls-4" x="26.04" y="554.3" width="150.13" height="150.13" rx="19.91" ry="19.91"/><rect class="cls-4" x="202.21" y="554.3" width="150.13" height="150.13" rx="19.91" ry="19.91"/><rect class="cls-4" x="378.38" y="554.3" width="150.13" height="150.13" rx="19.91" ry="19.91"/><rect class="cls-4" x="26.04" y="730.47" width="326.3" height="150.13" rx="19.91" ry="19.91"/><rect class="cls-4" x="378.38" y="730.47" width="150.13" height="150.13" rx="19.91" ry="19.91"/><rect class="cls-4" x="554.55" y="554.3" width="150.13" height="326.3" rx="19.91" ry="19.91"/><path class="cls-2" d="M87.75,654.19v-5.77h27.84v5.77h-27.84ZM99.63,654.19v-45.77l1.27,1.34-12.02,5.62v-6.4l14.77-6.61h2.18v51.82h-6.19Z"/><path class="cls-2" d="M189.26,828.37c-3.54,0-6.56-.86-9.07-2.58s-4.42-4.32-5.75-7.79c-1.32-3.47-1.99-7.79-1.99-12.97v-6.05c0-5.23.66-9.58,1.99-13.06s3.24-6.1,5.75-7.86,5.53-2.64,9.07-2.64,6.52.88,9,2.64,4.38,4.38,5.7,7.86,1.97,7.83,1.97,13.06v6.05c0,5.18-.66,9.5-1.97,12.97-1.31,3.47-3.21,6.06-5.7,7.79s-5.48,2.58-9,2.58ZM177.87,815.36l-2.67-4.71,25.38-22.22,2.53,4.64-25.24,22.29ZM189.26,822.6c2.18,0,4.04-.62,5.59-1.86,1.55-1.24,2.72-3.11,3.53-5.59.81-2.48,1.21-5.6,1.21-9.35v-7.66c0-3.77-.4-6.91-1.21-9.42-.81-2.51-1.99-4.39-3.53-5.64-1.55-1.25-3.41-1.88-5.59-1.88s-4.08.62-5.64,1.86c-1.56,1.24-2.75,3.12-3.59,5.62-.83,2.51-1.25,5.66-1.25,9.46v7.66c0,3.7.41,6.8,1.23,9.3s2.01,4.37,3.57,5.62c1.56,1.25,3.45,1.88,5.68,1.88Z"/><path class="cls-2" d="M449.72,813.38l-2.53-2.53,3.59-3.87c.73-.8,1.38-1.58,1.97-2.36s1.05-1.55,1.39-2.34.51-1.59.51-2.41h1.41c-.21.91-.61,1.63-1.2,2.16s-1.29.79-2.11.79-1.56-.22-2.29-.67c-.73-.44-1.32-1.06-1.79-1.85-.47-.79-.7-1.71-.7-2.76,0-1.48.5-2.7,1.49-3.67,1-.97,2.21-1.46,3.64-1.46,1.52,0,2.81.56,3.85,1.69s1.56,2.62,1.56,4.5c0,1.69-.45,3.41-1.35,5.17s-2.12,3.5-3.64,5.24l-3.8,4.36Z"/><path class="cls-2" d="M261.03,654.19v-1.9l14.55-18c1.95-2.39,3.73-4.61,5.34-6.66,1.62-2.05,2.91-4.01,3.88-5.89.97-1.88,1.46-3.74,1.46-5.59,0-1.69-.39-3.18-1.18-4.46-.79-1.29-1.85-2.3-3.2-3.02-1.35-.73-2.89-1.09-4.62-1.09-1.85,0-3.52.42-4.99,1.25-1.48.83-2.64,1.98-3.5,3.45-.86,1.46-1.28,3.16-1.28,5.08h-6.33c.02-3,.73-5.67,2.13-8.02,1.39-2.34,3.3-4.18,5.71-5.52s5.14-2,8.19-2,5.51.62,7.8,1.85,4.11,2.92,5.45,5.08c1.34,2.16,2,4.63,2,7.42,0,2.3-.47,4.49-1.41,6.57-.94,2.09-2.24,4.24-3.92,6.47-1.68,2.23-3.63,4.7-5.85,7.42l-9.49,11.67v.28l7.52-.14h14.27v5.77h-32.55Z"/><path class="cls-2" d="M453.45,654.75c-3.02,0-5.8-.63-8.33-1.9s-4.55-3.03-6.06-5.29c-1.51-2.26-2.27-4.9-2.27-7.93l6.33-.14c0,1.88.46,3.53,1.39,4.96.93,1.43,2.16,2.54,3.71,3.34,1.55.8,3.27,1.2,5.17,1.2s3.7-.42,5.27-1.27,2.82-1.99,3.74-3.45c.93-1.45,1.39-3.09,1.39-4.92s-.47-3.42-1.42-4.85c-.95-1.43-2.33-2.56-4.13-3.39-1.8-.83-4.01-1.25-6.61-1.25h-2.04l.07-5.48h2.39c1.92,0,3.6-.42,5.04-1.25,1.44-.83,2.57-1.93,3.38-3.3s1.21-2.88,1.21-4.52-.35-3-1.05-4.15c-.7-1.15-1.68-2.03-2.92-2.65-1.24-.62-2.66-.93-4.25-.93-1.69,0-3.18.33-4.46.98-1.29.66-2.3,1.58-3.02,2.76-.73,1.18-1.09,2.56-1.09,4.13h-6.19c0-2.55.62-4.86,1.85-6.93,1.23-2.06,2.94-3.7,5.13-4.9,2.19-1.21,4.74-1.81,7.65-1.81s5.26.54,7.49,1.63,4,2.62,5.31,4.59,1.97,4.25,1.97,6.86-.62,4.78-1.85,6.73c-1.23,1.96-2.86,3.48-4.89,4.57s-4.24,1.59-6.63,1.49v-1.41c2.91-.12,5.52.39,7.84,1.53,2.32,1.14,4.16,2.74,5.52,4.8,1.36,2.06,2.04,4.43,2.04,7.1,0,2.81-.74,5.36-2.21,7.63-1.48,2.27-3.47,4.08-5.99,5.41s-5.34,2-8.46,2Z"/><path class="cls-2" d="M582.44,730.47v-25.91h14.27v2.88h-11.11v8.4h9.39v2.88h-9.39v8.86h11.11v2.88h-14.27Z"/><path class="cls-2" d="M601.98,730.47v-18.63h2.99v2.29h.7l-1.23,1.3c.38-1.12,1.12-2.05,2.22-2.78s2.41-1.09,3.89-1.09c1.92,0,3.45.63,4.57,1.9s1.69,2.95,1.69,5.06v11.95h-3.02v-11.32c0-1.44-.38-2.6-1.13-3.47s-1.8-1.31-3.12-1.31c-.88,0-1.66.2-2.34.59s-1.22.95-1.61,1.66-.59,1.56-.59,2.53v11.32h-3.02Z"/><path class="cls-2" d="M621.32,714.58v-2.74h15.29v2.74h-15.29ZM632.36,730.75c-1.28,0-2.42-.26-3.43-.78s-1.8-1.25-2.38-2.17-.87-1.99-.87-3.2v-18.74h3.02v18.42c0,1.07.37,1.94,1.1,2.63s1.63,1.03,2.7,1.03c.74,0,1.47-.16,2.21-.47s1.37-.68,1.91-1.12l1.16,2.78c-.77.49-1.63.88-2.56,1.18s-1.88.44-2.86.44Z"/><path class="cls-2" d="M650.47,730.75c-1.71,0-3.22-.41-4.53-1.22s-2.33-1.95-3.06-3.39-1.1-3.12-1.1-5.02.35-3.55,1.05-4.98,1.68-2.56,2.94-3.37,2.7-1.21,4.34-1.21c1.54,0,2.89.36,4.07,1.08s2.1,1.72,2.77,3.01,1,2.77,1,4.46c0,.35-.02.74-.05,1.16s-.09.79-.16,1.09h-13.64v-2.46h10.9c0-1.09-.21-2.05-.63-2.87s-1-1.47-1.74-1.94-1.59-.7-2.55-.7c-1.05,0-1.99.28-2.8.85s-1.45,1.36-1.92,2.37-.69,2.19-.69,3.52.25,2.53.75,3.56,1.19,1.83,2.07,2.4,1.9.86,3.05.86c.8,0,1.63-.17,2.49-.5s1.63-.79,2.29-1.36l1.12,2.71c-.74.56-1.66,1.03-2.75,1.41s-2.17.56-3.23.56Z"/><path class="cls-2" d="M663.93,730.47v-18.63h3.02v2.81h.6l-1.05,1.48c.21-.87.6-1.65,1.18-2.34s1.26-1.24,2.07-1.63,1.66-.6,2.56-.6c.97,0,1.86.16,2.65.47s1.49.79,2.09,1.42,1.08,1.43,1.44,2.39l-2.81,1.16c-.35-.83-.88-1.47-1.58-1.91s-1.55-.66-2.53-.66c-.8,0-1.55.23-2.25.69s-1.27,1.1-1.71,1.92-.65,1.76-.65,2.83v10.58h-3.02Z"/><path class="cls-2" d="M72.91,94.72v-25.91h2.32l8.68,15.54,1.72,2.99h.14l-.07-4.96v-13.57h3.09v25.91h-2.29l-8.72-15.54-1.72-3.09h-.14l.07,4.96v13.68h-3.09Z"/><path class="cls-2" d="M100.12,95c-1.32,0-2.48-.29-3.45-.86s-1.74-1.38-2.28-2.42-.81-2.25-.81-3.65v-11.99h3.02v11.85c0,1.28.38,2.3,1.12,3.07s1.75,1.16,2.99,1.19c.89.01,1.67-.16,2.34-.51s1.19-.85,1.56-1.49.56-1.39.56-2.26v-11.85h3.02v13.64c0,.5.18.98.54,1.44s.86.82,1.49,1.09l-1.12,2.74c-.95-.42-1.77-.95-2.45-1.57s-1.03-1.23-1.03-1.8l1.2.63h-2l1.55-1.05c-.6,1.21-1.47,2.14-2.61,2.8s-2.36.99-3.65.99Z"/><path class="cls-2" d="M112.71,94.72v-18.63h2.78v2.21h.39l-.67.91c.3-1.01.77-1.83,1.39-2.46s1.39-.95,2.3-.95c.81,0,1.53.27,2.17.8s1.05,1.27,1.24,2.22l-.67-.7h.95l-.7.7c.25-.88.75-1.6,1.51-2.17s1.61-.85,2.53-.85c.64,0,1.22.11,1.72.33s.93.55,1.28.99.62.98.8,1.63.27,1.38.27,2.21v13.75h-2.88v-13.68c0-.77-.19-1.37-.56-1.78s-.88-.62-1.51-.62-1.14.2-1.6.6-.69,1-.69,1.79v13.68h-2.81v-13.68c0-.8-.2-1.39-.59-1.79s-.9-.6-1.52-.6-1.12.21-1.57.62-.68,1.03-.68,1.84v13.61h-2.88Z"/><path class="cls-2" d="M64.47,137.92v-25.91h3.16v23.03h11.32v2.88h-14.48Z"/><path class="cls-2" d="M90.98,138.2c-1.64,0-3.08-.4-4.32-1.21s-2.2-1.93-2.88-3.38-1.03-3.11-1.03-5.01.34-3.57,1.03-5.02,1.65-2.58,2.88-3.39,2.67-1.22,4.32-1.22,3.08.41,4.32,1.22,2.2,1.95,2.88,3.39,1.03,3.12,1.03,5.02-.34,3.57-1.03,5.01-1.65,2.57-2.88,3.38-2.67,1.21-4.32,1.21ZM90.98,135.39c1.08,0,2.01-.28,2.79-.83s1.38-1.34,1.79-2.36.62-2.21.62-3.59-.21-2.58-.62-3.6-1.01-1.81-1.79-2.37-1.71-.84-2.79-.84-2.01.28-2.79.84-1.38,1.35-1.79,2.37-.62,2.22-.62,3.6.21,2.58.62,3.59,1.01,1.8,1.79,2.36,1.71.83,2.79.83Z"/><path class="cls-2" d="M112.71,138.13c-1.8,0-3.39-.41-4.76-1.22s-2.44-1.95-3.22-3.39-1.16-3.12-1.16-5.02.38-3.53,1.14-4.96,1.82-2.55,3.18-3.36,2.93-1.21,4.71-1.21c1.01,0,2.07.19,3.17.56s2.05.89,2.84,1.55l-1.16,2.57c-.5-.53-1.2-.97-2.08-1.33s-1.78-.54-2.7-.54c-1.18,0-2.23.28-3.13.85s-1.61,1.36-2.12,2.37-.76,2.19-.76,3.52.26,2.51.77,3.53,1.24,1.82,2.16,2.39,2,.86,3.22.86c.95,0,1.86-.19,2.72-.57s1.53-.83,1.99-1.36l1.16,2.6c-.71.63-1.62,1.15-2.72,1.55s-2.18.6-3.26.6Z"/><path class="cls-2" d="M124.66,137.92v-27.07h3.02v16.07h1.55l-1.34.77,8.19-8.4h3.9l-9.49,9.7v-1.65l10.05,10.58h-3.9l-8.75-9.28,1.34.84h-1.55v8.44h-3.02Z"/><path class="cls-2" d="M62.79,338.81v-25.91h3.16v11.21h9.56v-11.21h3.16v25.91h-3.16v-11.81h-9.56v11.81h-3.16Z"/><path class="cls-2" d="M90.98,339.09c-1.64,0-3.08-.4-4.32-1.21s-2.2-1.93-2.88-3.38-1.03-3.11-1.03-5.01.34-3.57,1.03-5.02,1.65-2.58,2.88-3.39,2.67-1.22,4.32-1.22,3.08.41,4.32,1.22,2.2,1.95,2.88,3.39,1.03,3.12,1.03,5.02-.34,3.57-1.03,5.01-1.65,2.57-2.88,3.38-2.67,1.21-4.32,1.21ZM90.98,336.28c1.08,0,2.01-.28,2.79-.83s1.38-1.34,1.79-2.36.62-2.21.62-3.59-.21-2.58-.62-3.6-1.01-1.81-1.79-2.37-1.71-.84-2.79-.84-2.01.28-2.79.84-1.38,1.35-1.79,2.37-.62,2.22-.62,3.6.21,2.58.62,3.59,1.01,1.8,1.79,2.36,1.71.83,2.79.83Z"/><path class="cls-2" d="M102.58,338.81v-18.63h2.78v2.21h.39l-.67.91c.3-1.01.77-1.83,1.39-2.46s1.39-.95,2.3-.95c.81,0,1.53.27,2.17.8s1.05,1.27,1.24,2.22l-.67-.7h.95l-.7.7c.25-.88.75-1.6,1.51-2.17s1.61-.85,2.53-.85c.64,0,1.22.11,1.72.33s.93.55,1.28.99.62.98.8,1.63.27,1.38.27,2.21v13.75h-2.88v-13.68c0-.77-.19-1.37-.56-1.78s-.88-.62-1.51-.62-1.14.2-1.6.6-.69,1-.69,1.79v13.68h-2.81v-13.68c0-.8-.2-1.39-.59-1.79s-.9-.6-1.52-.6-1.12.21-1.57.62-.68,1.03-.68,1.84v13.61h-2.88Z"/><path class="cls-2" d="M132.08,339.09c-1.71,0-3.22-.41-4.53-1.22s-2.33-1.95-3.06-3.39-1.1-3.12-1.1-5.02.35-3.55,1.05-4.98,1.68-2.56,2.94-3.37,2.7-1.21,4.34-1.21c1.54,0,2.89.36,4.07,1.08s2.1,1.72,2.77,3.01,1,2.77,1,4.46c0,.35-.02.74-.05,1.16s-.09.79-.16,1.09h-13.64v-2.46h10.9c0-1.09-.21-2.05-.63-2.87s-1-1.47-1.74-1.94-1.59-.7-2.55-.7c-1.05,0-1.99.28-2.8.85s-1.45,1.36-1.92,2.37-.69,2.19-.69,3.52.25,2.53.75,3.56,1.19,1.83,2.07,2.4,1.9.86,3.05.86c.8,0,1.63-.17,2.49-.5s1.63-.79,2.29-1.36l1.12,2.71c-.74.56-1.66,1.03-2.75,1.41s-2.17.56-3.23.56Z"/><path class="cls-2" d="M416.25,338.81v-25.91h3.16v25.91h-3.16ZM418.57,328.51v-2.88h4.78c.98,0,1.85-.21,2.58-.62s1.31-1,1.72-1.76.62-1.64.62-2.65c0-1.51-.47-2.69-1.41-3.54s-2.18-1.27-3.73-1.27h-4.57v-2.88h4.82c1.61,0,3.01.31,4.22.94s2.15,1.51,2.82,2.65,1.01,2.49,1.01,4.03-.33,2.9-.98,4.1-1.57,2.15-2.75,2.84-2.57,1.04-4.15,1.04h-4.99Z"/><path class="cls-2" d="M442.55,338.88c-1,0-1.95-.22-2.86-.67s-1.72-1.08-2.43-1.92-1.28-1.84-1.69-3.01-.62-2.5-.62-3.96c0-1.98.36-3.67,1.09-5.08s1.68-2.48,2.86-3.23,2.44-1.12,3.79-1.12,2.59.39,3.67,1.18,1.91,1.88,2.52,3.29.91,3.04.91,4.89-.32,3.52-.95,4.97-1.5,2.59-2.59,3.42-2.33,1.25-3.7,1.25ZM442.72,346.47c-1.2,0-2.35-.18-3.47-.54s-2.01-.78-2.68-1.25l1.09-2.67c.49.43,1.19.83,2.09,1.19s1.8.54,2.69.54c.79,0,1.59-.18,2.43-.53s1.53-.92,2.1-1.71.85-1.82.85-3.11v-2.46h-.49l.6-1.65v-10.02l-.81-1.72h.63v-2.36h3.02v18.07c0,1.45-.23,2.7-.68,3.74s-1.06,1.89-1.83,2.55-1.63,1.15-2.59,1.47-1.95.47-2.95.47ZM443.04,336.07c.93,0,1.75-.29,2.49-.87s1.31-1.38,1.73-2.41.63-2.21.63-3.54-.21-2.48-.63-3.45-1-1.74-1.73-2.28-1.56-.81-2.49-.81c-.97,0-1.83.28-2.58.83s-1.34,1.33-1.77,2.33-.64,2.14-.64,3.45.22,2.46.65,3.47,1.03,1.81,1.78,2.4,1.61.88,2.57.88Z"/><path class="cls-2" d="M463.57,339.09c-1.64,0-3.06-.36-4.25-1.09s-2.1-1.76-2.74-3.1-.96-2.94-.96-4.81v-17.19h3.16v17.19c0,1.9.42,3.39,1.27,4.48s2.02,1.63,3.51,1.63,2.67-.54,3.52-1.63,1.27-2.58,1.27-4.48v-17.19h3.16v17.19c0,1.86-.32,3.47-.96,4.81s-1.55,2.38-2.73,3.1-2.6,1.09-4.25,1.09Z"/><path class="cls-2" d="M476.44,346.19v-26.02h2.99v2.43h.46l-.84,1.72v9.81l.98,2.14h-.56v9.91h-3.02ZM484.73,339.09c-1.45,0-2.72-.4-3.81-1.2s-1.93-1.92-2.53-3.37-.91-3.13-.91-5.06.3-3.6.91-5.04,1.45-2.56,2.53-3.36,2.35-1.2,3.81-1.2,2.81.4,3.93,1.19,1.99,1.91,2.6,3.35.92,3.13.92,5.06-.31,3.66-.92,5.1-1.48,2.56-2.6,3.35-2.43,1.19-3.93,1.19ZM484.17,336.35c1.01,0,1.88-.29,2.63-.86s1.32-1.38,1.72-2.41.61-2.24.61-3.62-.21-2.59-.62-3.61-.99-1.82-1.74-2.39-1.63-.85-2.64-.85-1.85.28-2.58.84-1.31,1.36-1.72,2.38-.62,2.24-.62,3.63.21,2.59.62,3.62.99,1.83,1.73,2.41,1.61.86,2.61.86Z"/><path class="cls-2" d="M416.25,691.15v-25.91h3.16v25.91h-3.16ZM418.57,680.85v-2.88h4.78c.98,0,1.85-.21,2.58-.62s1.31-1,1.72-1.76.62-1.64.62-2.65c0-1.51-.47-2.69-1.41-3.54s-2.18-1.27-3.73-1.27h-4.57v-2.88h4.82c1.61,0,3.01.31,4.22.94s2.15,1.51,2.82,2.65,1.01,2.49,1.01,4.03-.33,2.9-.98,4.1-1.57,2.15-2.75,2.84-2.57,1.04-4.15,1.04h-4.99Z"/><path class="cls-2" d="M442.55,691.22c-1,0-1.95-.22-2.86-.67s-1.72-1.08-2.43-1.92-1.28-1.84-1.69-3.01-.62-2.5-.62-3.96c0-1.98.36-3.67,1.09-5.08s1.68-2.48,2.86-3.23,2.44-1.12,3.79-1.12,2.59.39,3.67,1.18,1.91,1.88,2.52,3.29.91,3.04.91,4.89-.32,3.52-.95,4.97-1.5,2.59-2.59,3.42-2.33,1.25-3.7,1.25ZM442.72,698.81c-1.2,0-2.35-.18-3.47-.54s-2.01-.78-2.68-1.25l1.09-2.67c.49.43,1.19.83,2.09,1.19s1.8.54,2.69.54c.79,0,1.59-.18,2.43-.53s1.53-.92,2.1-1.71.85-1.82.85-3.11v-2.46h-.49l.6-1.65v-10.02l-.81-1.72h.63v-2.36h3.02v18.07c0,1.45-.23,2.7-.68,3.74s-1.06,1.89-1.83,2.55-1.63,1.15-2.59,1.47-1.95.47-2.95.47ZM443.04,688.41c.93,0,1.75-.29,2.49-.87s1.31-1.38,1.73-2.41.63-2.21.63-3.54-.21-2.48-.63-3.45-1-1.74-1.73-2.28-1.56-.81-2.49-.81c-.97,0-1.83.28-2.58.83s-1.34,1.33-1.77,2.33-.64,2.14-.64,3.45.22,2.46.65,3.47,1.03,1.81,1.78,2.4,1.61.88,2.57.88Z"/><path class="cls-2" d="M455.63,691.15v-25.91h6.54c2,0,3.79.54,5.34,1.61s2.78,2.56,3.67,4.47,1.33,4.12,1.33,6.64-.44,4.89-1.31,6.87-2.07,3.53-3.59,4.64-3.26,1.67-5.22,1.67h-6.75ZM458.79,688.27h3.66c1.32,0,2.5-.43,3.54-1.3s1.85-2.08,2.45-3.63.9-3.34.9-5.37-.3-3.67-.9-5.15-1.42-2.63-2.45-3.45-2.22-1.24-3.54-1.24h-3.66v20.14Z"/><path class="cls-2" d="M476.44,691.15v-18.63h2.99v2.29h.7l-1.23,1.3c.38-1.12,1.12-2.05,2.22-2.78s2.41-1.09,3.89-1.09c1.92,0,3.45.63,4.57,1.9s1.69,2.95,1.69,5.06v11.95h-3.02v-11.32c0-1.44-.38-2.6-1.13-3.47s-1.8-1.31-3.12-1.31c-.88,0-1.66.2-2.34.59s-1.22.95-1.61,1.66-.59,1.56-.59,2.53v11.32h-3.02Z"/><path class="cls-2" d="M74.18,691.15v-25.91h14.27v2.88h-11.11v8.4h9.39v2.88h-9.39v8.86h11.11v2.88h-14.27Z"/><path class="cls-2" d="M93.72,691.15v-18.63h2.99v2.29h.7l-1.23,1.3c.38-1.12,1.12-2.05,2.22-2.78s2.41-1.09,3.89-1.09c1.92,0,3.45.63,4.57,1.9s1.69,2.95,1.69,5.06v11.95h-3.02v-11.32c0-1.44-.38-2.6-1.13-3.47s-1.8-1.31-3.12-1.31c-.88,0-1.66.2-2.34.59s-1.22.95-1.61,1.66-.59,1.56-.59,2.53v11.32h-3.02Z"/><path class="cls-2" d="M120.44,691.43c-1.5,0-2.81-.4-3.93-1.19s-1.99-1.91-2.6-3.35-.92-3.14-.92-5.1.31-3.62.92-5.06,1.48-2.56,2.6-3.35,2.43-1.19,3.93-1.19,2.72.4,3.81,1.2,1.93,1.92,2.53,3.36.91,3.12.91,5.04-.3,3.62-.91,5.06-1.45,2.56-2.53,3.37-2.35,1.2-3.81,1.2ZM121.01,688.69c1,0,1.87-.29,2.61-.86s1.32-1.38,1.73-2.41.62-2.24.62-3.62-.21-2.6-.62-3.63-.98-1.82-1.72-2.38-1.6-.84-2.58-.84-1.89.28-2.64.85-1.33,1.37-1.74,2.39-.62,2.23-.62,3.61.2,2.59.61,3.62.98,1.83,1.72,2.41,1.62.86,2.63.86ZM128.95,691.43c-.88-.49-1.56-1.08-2.05-1.75s-.74-1.33-.76-1.98l.56.42h-1.37l.77-2.07v-9.39l-.77-1.86h.39v-10.72h3.02v21.9c0,.6.12,1.15.37,1.64s.57.85.97,1.06l-1.12,2.74Z"/><path class="cls-2" d="M425.25,869.87v-25.91h6.54c2,0,3.79.54,5.34,1.61s2.78,2.56,3.66,4.47,1.33,4.12,1.33,6.64-.44,4.89-1.31,6.87-2.07,3.53-3.59,4.64-3.26,1.67-5.22,1.67h-6.75ZM428.42,866.99h3.66c1.32,0,2.5-.43,3.54-1.3s1.86-2.08,2.45-3.63.9-3.34.9-5.37-.3-3.67-.9-5.15-1.42-2.63-2.45-3.45-2.22-1.24-3.54-1.24h-3.66v20.14Z"/><path class="cls-2" d="M454.05,870.15c-1.71,0-3.22-.41-4.53-1.22s-2.33-1.95-3.06-3.39-1.1-3.12-1.1-5.02.35-3.55,1.05-4.98,1.68-2.56,2.94-3.37,2.7-1.21,4.34-1.21c1.54,0,2.89.36,4.07,1.08s2.1,1.72,2.77,3.01,1,2.77,1,4.46c0,.35-.02.74-.05,1.16s-.09.79-.16,1.09h-13.64v-2.46h10.9c0-1.09-.21-2.05-.63-2.87s-1-1.47-1.74-1.94-1.59-.7-2.55-.7c-1.05,0-1.99.28-2.8.85s-1.45,1.36-1.92,2.37-.69,2.19-.69,3.52.25,2.53.75,3.56,1.19,1.83,2.07,2.4,1.9.86,3.05.86c.8,0,1.62-.17,2.49-.5s1.63-.79,2.29-1.36l1.12,2.71c-.74.56-1.66,1.03-2.75,1.41s-2.17.56-3.22.56Z"/><path class="cls-2" d="M476.12,870.15c-1.3,0-2.43-.26-3.39-.78s-1.71-1.25-2.24-2.17-.8-1.99-.8-3.2v-21.2h3.02v20.88c0,1.07.31,1.94.92,2.63s1.47,1.03,2.56,1.03c.76,0,1.52-.16,2.28-.48s1.4-.7,1.94-1.13l1.16,2.78c-.77.49-1.63.89-2.58,1.2s-1.9.46-2.87.46Z"/><path class="cls-2" d="M161.98,846.77v-2.81h13.92v2.81h-13.92ZM161.98,869.87v-2.81h13.92v2.81h-13.92ZM167.36,869.87v-25.91h3.16v25.91h-3.16Z"/><path class="cls-2" d="M181.81,869.87v-18.63h2.99v2.29h.7l-1.23,1.3c.38-1.12,1.12-2.05,2.22-2.78s2.41-1.09,3.89-1.09c1.92,0,3.45.63,4.57,1.9s1.69,2.95,1.69,5.06v11.95h-3.02v-11.32c0-1.44-.38-2.6-1.13-3.47s-1.8-1.31-3.12-1.31c-.88,0-1.66.2-2.34.59s-1.22.95-1.61,1.66-.59,1.56-.59,2.53v11.32h-3.02Z"/><path class="cls-2" d="M209.55,870.15c-1.23,0-2.35-.21-3.37-.62s-1.87-.96-2.57-1.62-1.19-1.36-1.49-2.08l2.81-1.16c.32.68.89,1.29,1.72,1.85s1.83.83,2.99.83c.71,0,1.39-.11,2.02-.33s1.15-.52,1.54-.91.59-.86.59-1.4c0-.63-.27-1.14-.8-1.52s-1.22-.7-2.06-.97-1.73-.53-2.66-.81-1.83-.62-2.66-1.04-1.52-.96-2.06-1.63-.8-1.54-.8-2.61c0-1.15.32-2.11.96-2.87s1.46-1.34,2.47-1.72,2.07-.57,3.18-.57c1.57,0,2.95.35,4.15,1.05s2.07,1.59,2.64,2.68l-2.78,1.16c-.29-.52-.77-.99-1.44-1.42s-1.55-.65-2.64-.65c-.93,0-1.75.19-2.49.58s-1.1.97-1.1,1.74c0,.66.27,1.18.8,1.57s1.22.72,2.06.98,1.73.52,2.66.78,1.83.58,2.66.97,1.52.9,2.06,1.54.8,1.48.8,2.52c0,1.14-.33,2.13-.99,2.99s-1.54,1.52-2.64,2-2.29.71-3.58.71Z"/><path class="cls-2" d="M106.73,481.59v-32.27l.28-8.86h-.28l-3.94,6.33-11.81,17.65v.28h28.41v5.48h-36.49v-3.59l24.68-36.84h5.48v51.82h-6.33Z"/><path class="cls-2" d="M277.07,482.15c-2.25,0-4.43-.41-6.54-1.23s-4-2.01-5.66-3.57c-1.66-1.56-2.94-3.45-3.83-5.68l5.62-2.53c.59,1.48,1.42,2.75,2.5,3.83,1.08,1.08,2.31,1.92,3.71,2.51s2.87.9,4.41.9c1.99,0,3.75-.48,5.27-1.44,1.52-.96,2.71-2.27,3.57-3.94.86-1.66,1.28-3.55,1.28-5.66s-.44-3.94-1.32-5.57c-.88-1.63-2.09-2.91-3.64-3.85-1.55-.94-3.32-1.41-5.31-1.41-1.17,0-2.33.16-3.48.47s-2.17.76-3.08,1.34c-.9.57-1.58,1.26-2.02,2.06l-4.85-.84v-27.77h26.23v5.77h-20.04v19.12l-1.55-2.46c.61-.75,1.75-1.51,3.41-2.29s3.67-1.16,6.01-1.16c3,0,5.7.72,8.09,2.16s4.28,3.41,5.66,5.91,2.07,5.34,2.07,8.53c0,3.35-.75,6.29-2.25,8.81-1.5,2.52-3.5,4.48-5.99,5.89s-5.26,2.11-8.28,2.11Z"/><path class="cls-2" d="M453.45,482.15c-3.3,0-6.26-.74-8.86-2.21s-4.66-3.46-6.17-5.94c-1.51-2.48-2.27-5.23-2.27-8.23,0-1.52.21-3.06.62-4.62.41-1.56.99-3.11,1.74-4.64.75-1.53,1.63-3.02,2.64-4.45l15.61-22.29h7.24l-15.47,21.73-1.48-.28c.91-.84,2.03-1.46,3.36-1.86,1.32-.4,2.67-.6,4.03-.6,2.93,0,5.63.71,8.1,2.13,2.47,1.42,4.46,3.38,5.96,5.87s2.25,5.36,2.25,8.6-.76,6.08-2.29,8.61-3.59,4.53-6.21,5.99c-2.61,1.46-5.55,2.2-8.81,2.2ZM453.52,476.39c2.06,0,3.92-.49,5.57-1.46,1.65-.97,2.96-2.29,3.94-3.96.97-1.66,1.46-3.54,1.46-5.62s-.48-4.01-1.44-5.64c-.96-1.63-2.27-2.9-3.92-3.81s-3.52-1.37-5.61-1.37-3.93.45-5.61,1.34c-1.68.89-3.01,2.15-4.01,3.78-1,1.63-1.49,3.53-1.49,5.71s.49,4.03,1.46,5.7c.97,1.66,2.3,2.97,3.97,3.92s3.57,1.42,5.68,1.42Z"/><path class="cls-2" d="M90.21,301.34l20.18-45.77v-.28h-26.93v-5.77h35.3v1.55l-21.8,50.27h-6.75Z"/><path class="cls-2" d="M277.28,301.91c-3.21,0-6.12-.67-8.74-2s-4.69-3.15-6.24-5.43-2.32-4.85-2.32-7.68.77-5.38,2.32-7.65c1.55-2.26,3.63-4.05,6.24-5.36,2.61-1.31,5.53-1.97,8.74-1.97s6.19.66,8.81,1.97c2.61,1.31,4.68,3.1,6.21,5.36,1.52,2.26,2.29,4.81,2.29,7.65s-.76,5.4-2.29,7.68-3.59,4.1-6.21,5.43-5.55,2-8.81,2ZM277.21,275.89c-2.62,0-5.04-.6-7.24-1.81-2.2-1.21-3.97-2.84-5.31-4.89-1.34-2.05-2-4.34-2-6.87s.64-4.73,1.93-6.75c1.29-2.02,3.04-3.62,5.24-4.8,2.2-1.18,4.69-1.79,7.45-1.81,2.77-.02,5.24.56,7.44,1.74,2.19,1.18,3.93,2.79,5.2,4.83s1.92,4.32,1.92,6.86c0,2.67-.68,5.02-2.04,7.05-1.36,2.03-3.15,3.61-5.38,4.75-2.23,1.14-4.63,1.71-7.21,1.71ZM277.28,296.14c2.02,0,3.86-.41,5.54-1.23,1.68-.82,3.01-1.95,4.01-3.38,1-1.43,1.49-3.06,1.49-4.89s-.49-3.45-1.46-4.92-2.29-2.65-3.96-3.53-3.54-1.32-5.62-1.32-3.93.44-5.59,1.32-2.99,2.06-3.97,3.55c-.98,1.49-1.48,3.15-1.48,4.97s.5,3.49,1.51,4.9c1.01,1.42,2.35,2.53,4.03,3.32,1.68.8,3.51,1.2,5.5,1.2ZM277.28,271.11c1.59,0,3.05-.38,4.36-1.14,1.31-.76,2.36-1.79,3.13-3.08.77-1.29,1.16-2.72,1.16-4.29s-.39-2.91-1.18-4.1c-.79-1.18-1.83-2.11-3.15-2.78s-2.75-1-4.32-1-2.98.33-4.29,1-2.37,1.59-3.16,2.78c-.8,1.18-1.2,2.55-1.2,4.1s.39,2.86,1.16,4.15c.77,1.29,1.82,2.34,3.13,3.15s2.77,1.21,4.36,1.21Z"/><path class="cls-2" d="M453.45,248.96c3.3,0,6.26.74,8.88,2.21s4.67,3.46,6.17,5.94c1.5,2.48,2.25,5.23,2.25,8.23,0,1.52-.21,3.06-.62,4.62-.41,1.56-.99,3.11-1.74,4.64-.75,1.54-1.63,3.02-2.64,4.45l-15.61,22.29h-7.24l15.47-21.73,1.48.28c-.91.84-2.03,1.46-3.34,1.86-1.31.4-2.66.6-4.04.6-2.93,0-5.63-.71-8.1-2.13-2.47-1.42-4.46-3.38-5.96-5.87s-2.25-5.36-2.25-8.6.76-6.08,2.29-8.61,3.59-4.53,6.21-5.99c2.61-1.46,5.55-2.2,8.81-2.2ZM453.38,254.73c-2.06,0-3.92.49-5.57,1.46-1.65.97-2.96,2.29-3.94,3.96-.97,1.66-1.46,3.54-1.46,5.62s.48,4.01,1.44,5.64c.96,1.63,2.27,2.9,3.92,3.81s3.52,1.37,5.61,1.37,3.93-.45,5.61-1.35c1.68-.9,3.01-2.16,4.01-3.78s1.49-3.52,1.49-5.7-.49-4.03-1.46-5.7c-.97-1.66-2.3-2.97-3.97-3.92s-3.57-1.42-5.68-1.42Z"/><path class="cls-2" d="M613.3,378.03v-5.2h32.62v5.2h-32.62ZM626.88,392.37v-33.89h5.48v33.89h-5.48Z"/><path class="cls-2" d="M260.4,137.88l28.12-68.98h5.34l-28.12,68.98h-5.34Z"/><path class="cls-2" d="M445.01,90.42c-.56.3-1.14.38-1.72.23-.59-.15-1.02-.49-1.3-1-.35-.63-.42-1.22-.21-1.78.21-.55.56-.97,1.05-1.25.42-.26,1.55-.79,3.39-1.58,1.84-.8,4.11-1.77,6.8-2.92.07-.05.52-.39,1.34-1.04.82-.64,1.77-1.39,2.85-2.23s2.07-1.6,2.97-2.29c.9-.68,1.47-1.08,1.71-1.2.49-.28,1.03-.38,1.62-.3.59.08,1.05.44,1.41,1.07.35.59.43,1.17.25,1.74-.19.57-.55,1-1.09,1.28-.42.23-1.41.69-2.95,1.37-1.55.68-3.94,1.72-7.17,3.13-2.77,2.13-4.86,3.74-6.29,4.83s-2.31,1.73-2.64,1.92ZM461.88,90.42c-.3-.19-1.21-.85-2.71-1.99-1.5-1.14-3.55-2.72-6.15-4.76-2.6-1.12-4.83-2.09-6.68-2.88-1.85-.8-3.02-1.34-3.52-1.62-.59-.35-.95-.8-1.09-1.35-.14-.55-.06-1.11.25-1.67.35-.63.83-.99,1.44-1.07.61-.08,1.14.02,1.58.3.16.09.49.32.98.67s1.35,1,2.57,1.93c1.22.94,3.01,2.32,5.38,4.15,2.41,1.05,4.31,1.88,5.68,2.48s2.38,1.04,3.04,1.34c.66.29,1.12.52,1.41.69.56.3.93.75,1.09,1.34.16.59.08,1.15-.25,1.69-.3.56-.74.91-1.32,1.04-.57.13-1.14.04-1.71-.26ZM453.45,96.39c-.63,0-1.15-.23-1.56-.69s-.62-.98-.62-1.56c0-.54.12-1.85.37-3.92s.54-4.52.9-7.33c-.3-2.58-.54-4.6-.72-6.06-.18-1.46-.3-2.55-.39-3.25s-.13-1.18-.14-1.42-.02-.42-.02-.51c0-.68.21-1.22.62-1.63.41-.41.93-.62,1.56-.62s1.15.21,1.56.62c.41.41.62.96.62,1.63,0,.09,0,.26-.02.51s-.06.72-.14,1.42-.21,1.79-.37,3.25c-.16,1.46-.41,3.49-.74,6.06.35,2.81.65,5.26.9,7.33s.37,3.38.37,3.92c0,.59-.21,1.11-.62,1.56s-.93.69-1.56.69Z"/><path class="cls-2" d="M613.66,107.99v-5.48h31.92v5.48h-31.92Z"/><polygon class="cls-1" points="277.28 316.6 261.06 344.68 293.49 344.68 277.28 316.6"/><polygon class="cls-1" points="277.28 695.63 293.49 667.55 261.06 667.55 277.28 695.63"/><polygon class="cls-1" points="87.07 506.17 115.15 522.38 115.15 489.96 87.07 506.17"/><polygon class="cls-1" points="467.49 506.17 439.41 489.96 439.41 522.38 467.49 506.17"/></g></svg>