<?xml version="1.0" encoding="UTF-8"?><svg id="Layer_2" xmlns="http://www.w3.org/2000/svg" viewBox="0 0 1430.17 271.87"><defs><style>.cls-1{fill:#04041e;}.cls-2{fill:#ef4136;}.cls-3{fill:#fff;}.cls-4{fill:#808285;}.cls-5{fill:#27aae1;}</style></defs><g id="Layer_1-2"><rect class="cls-1" width="1430.17" height="271.87"/><path class="cls-2" d="M59.37,77.19l-26.34-10.76v-6.94l26.34-10.88v7.39l-18.24,6.88v.23l18.24,6.74v7.33Z"/><path class="cls-2" d="M75.2,66.88v-2.75c0-1.7.31-3.13.92-4.3.61-1.17,1.37-2.17,2.28-3,.91-.83,1.81-1.6,2.7-2.31.9-.71,1.65-1.44,2.27-2.21.61-.76.92-1.67.92-2.7,0-1.34-.51-2.42-1.53-3.23-1.02-.81-2.28-1.22-3.77-1.22-1.08,0-2.04.21-2.89.64s-1.52,1.01-2,1.74-.72,1.59-.72,2.55h-6.94c0-2.23.55-4.21,1.64-5.93,1.09-1.73,2.61-3.09,4.53-4.08s4.12-1.49,6.57-1.49c2.3,0,4.36.43,6.17,1.3,1.81.87,3.24,2.08,4.28,3.62,1.04,1.55,1.56,3.33,1.56,5.35,0,1.64-.31,3.03-.93,4.15-.62,1.12-1.39,2.11-2.31,2.95-.92.84-1.83,1.64-2.75,2.41-.92.76-1.69,1.6-2.31,2.49-.62.9-.93,1.98-.93,3.24v2.78h-6.77ZM78.8,81.24c-1.44,0-2.65-.5-3.65-1.5-1-1-1.5-2.24-1.5-3.71s.5-2.68,1.49-3.67,2.21-1.49,3.67-1.49,2.71.5,3.71,1.49c1,.99,1.5,2.21,1.5,3.67s-.5,2.71-1.5,3.71-2.24,1.5-3.71,1.5Z"/><path class="cls-2" d="M98.59,92.68v-42.23h7.42v3.26h.99l-1.33,3.14v17.28l1.9,3.46h-1.22v15.09h-7.76ZM114.11,81.24c-2.34,0-4.39-.65-6.13-1.94-1.75-1.29-3.1-3.11-4.06-5.45-.96-2.34-1.44-5.1-1.44-8.27s.48-5.88,1.43-8.23c.95-2.35,2.29-4.17,4.01-5.45,1.72-1.28,3.73-1.93,6.03-1.93s4.41.64,6.15,1.93c1.74,1.28,3.09,3.1,4.05,5.44.96,2.34,1.44,5.09,1.44,8.24s-.47,5.96-1.42,8.3c-.94,2.34-2.28,4.15-3.99,5.44-1.72,1.28-3.74,1.93-6.06,1.93ZM112.1,74.61c1.21,0,2.26-.37,3.16-1.12.9-.75,1.59-1.8,2.07-3.16s.72-2.94.72-4.73-.25-3.39-.75-4.74c-.5-1.35-1.21-2.39-2.12-3.13-.92-.74-1.99-1.1-3.21-1.1s-2.26.37-3.14,1.1c-.89.74-1.58,1.77-2.08,3.12-.5,1.34-.75,2.93-.75,4.76s.25,3.37.76,4.72c.51,1.35,1.22,2.4,2.14,3.16.92.76,1.99,1.13,3.21,1.13Z"/><path class="cls-2" d="M131.22,80.78v-43.61h7.82v16.26h1.5l-2.75,2.86c.32-1.36.96-2.51,1.93-3.44s2.11-1.64,3.44-2.12,2.73-.72,4.21-.72c2.11,0,3.9.5,5.35,1.49,1.45.99,2.55,2.32,3.29,3.99s1.1,3.52,1.1,5.54v19.77h-7.82v-18.07c0-2.04-.46-3.57-1.37-4.59-.92-1.02-2.09-1.53-3.53-1.53-.98,0-1.87.23-2.68.69-.8.46-1.45,1.16-1.94,2.08-.49.93-.74,2.06-.74,3.4v18.01h-7.82Z"/><path class="cls-2" d="M163.84,92.68v-42.23h7.42v3.26h.99l-1.33,3.14v17.28l1.9,3.46h-1.22v15.09h-7.76ZM179.36,81.24c-2.34,0-4.39-.65-6.13-1.94-1.75-1.29-3.1-3.11-4.06-5.45-.96-2.34-1.44-5.1-1.44-8.27s.48-5.88,1.43-8.23c.95-2.35,2.29-4.17,4.01-5.45,1.72-1.28,3.73-1.93,6.03-1.93s4.41.64,6.15,1.93c1.74,1.28,3.09,3.1,4.05,5.44.96,2.34,1.44,5.09,1.44,8.24s-.47,5.96-1.42,8.3c-.94,2.34-2.28,4.15-3.99,5.44-1.72,1.28-3.74,1.93-6.06,1.93ZM177.35,74.61c1.21,0,2.26-.37,3.16-1.12.9-.75,1.59-1.8,2.07-3.16s.72-2.94.72-4.73-.25-3.39-.75-4.74c-.5-1.35-1.21-2.39-2.12-3.13-.92-.74-1.99-1.1-3.21-1.1s-2.26.37-3.14,1.1c-.89.74-1.58,1.77-2.08,3.12-.5,1.34-.75,2.93-.75,4.76s.25,3.37.76,4.72c.51,1.35,1.22,2.4,2.14,3.16.92.76,1.99,1.13,3.21,1.13Z"/><path class="cls-4" d="M162.09,158.88l22.34-55.56h6.54l-22.4,55.56h-6.49Z"/><path class="cls-4" d="M194.71,158.88l22.34-55.56h6.54l-22.4,55.56h-6.49Z"/><path class="cls-4" d="M241.92,150.84c-3.1,0-5.73-.84-7.92-2.52-2.18-1.68-3.84-4.11-4.98-7.29-1.14-3.18-1.71-7.03-1.71-11.54s.57-8.35,1.71-11.53c1.14-3.17,2.8-5.59,4.97-7.26,2.17-1.67,4.81-2.51,7.93-2.51s5.71.84,7.9,2.51c2.19,1.67,3.87,4.1,5.03,7.28,1.16,3.18,1.74,7.02,1.74,11.51s-.58,8.36-1.73,11.54c-1.15,3.18-2.82,5.61-5.01,7.29-2.19,1.68-4.83,2.52-7.93,2.52ZM241.92,143.45c1.53,0,2.81-.55,3.85-1.64,1.04-1.09,1.83-2.68,2.36-4.76.54-2.08.81-4.6.81-7.56-.02-2.96-.3-5.48-.85-7.55-.55-2.07-1.35-3.64-2.39-4.73-1.05-1.09-2.31-1.63-3.78-1.63s-2.75.55-3.78,1.66c-1.03,1.1-1.82,2.69-2.36,4.76-.55,2.07-.82,4.56-.82,7.49s.28,5.43.84,7.5c.56,2.08,1.35,3.67,2.39,4.79,1.04,1.11,2.28,1.67,3.74,1.67Z"/><path class="cls-4" d="M261.72,162.28v-42.23h7.42v3.26h.99l-1.33,3.14v17.28l1.9,3.46h-1.22v15.09h-7.76ZM277.24,150.84c-2.34,0-4.39-.65-6.13-1.94-1.75-1.29-3.1-3.11-4.06-5.45-.96-2.34-1.44-5.1-1.44-8.27s.48-5.88,1.43-8.23c.95-2.35,2.29-4.17,4.01-5.45,1.72-1.28,3.73-1.93,6.03-1.93s4.41.64,6.15,1.93c1.74,1.28,3.09,3.1,4.05,5.44.96,2.34,1.44,5.09,1.44,8.24s-.47,5.96-1.42,8.3c-.94,2.34-2.28,4.15-3.99,5.44-1.72,1.28-3.74,1.93-6.06,1.93ZM275.22,144.21c1.21,0,2.26-.37,3.16-1.12.9-.75,1.59-1.8,2.07-3.16s.72-2.94.72-4.73-.25-3.39-.75-4.74c-.5-1.35-1.21-2.39-2.12-3.13-.92-.74-1.99-1.1-3.21-1.1s-2.26.37-3.14,1.1c-.89.74-1.58,1.77-2.08,3.12-.5,1.34-.75,2.93-.75,4.76s.25,3.37.76,4.72c.51,1.35,1.22,2.4,2.14,3.16.92.76,1.99,1.13,3.21,1.13Z"/><path class="cls-4" d="M308.56,150.84c-3.02,0-5.66-.65-7.93-1.94-2.27-1.29-4.03-3.11-5.28-5.45-1.26-2.34-1.88-5.07-1.88-8.18s.59-5.88,1.78-8.23,2.86-4.18,5-5.48c2.14-1.3,4.64-1.95,7.49-1.95,2.64,0,4.95.59,6.92,1.76,1.97,1.17,3.51,2.82,4.62,4.94s1.66,4.6,1.66,7.43c0,.72-.03,1.46-.1,2.22-.07.76-.17,1.4-.3,1.91h-20.9v-5.1h13.88c0-1.38-.25-2.58-.75-3.61-.5-1.03-1.2-1.83-2.1-2.41-.9-.58-1.94-.86-3.13-.86-1.42,0-2.66.38-3.72,1.15-1.07.76-1.9,1.83-2.49,3.2-.59,1.37-.89,2.98-.89,4.83s.34,3.51,1.02,4.91c.68,1.41,1.63,2.5,2.86,3.27,1.23.77,2.65,1.16,4.28,1.16,1.32,0,2.61-.21,3.88-.64,1.26-.42,2.3-.99,3.12-1.69l2.49,6c-1.13.81-2.57,1.47-4.32,1.98-1.75.51-3.48.76-5.2.76Z"/><path class="cls-4" d="M328.33,150.38v-30.33h7.67v4.87h1.08l-2.15,3c.43-1.62,1.13-3.06,2.08-4.32.95-1.26,2.1-2.24,3.44-2.95,1.34-.71,2.81-1.06,4.42-1.06s3.07.34,4.33,1.01c1.26.67,2.35,1.59,3.24,2.75.9,1.16,1.57,2.49,2.02,3.98l-7,2.86c-.47-1.09-1.15-1.98-2.02-2.66s-1.99-1.02-3.33-1.02c-1.06,0-2.04.28-2.96.84-.92.56-1.65,1.34-2.19,2.34-.55,1-.82,2.16-.82,3.48v17.22h-7.82Z"/><path class="cls-4" d="M369.02,150.84c-1.98,0-3.71-.4-5.2-1.2-1.48-.8-2.64-1.9-3.47-3.3-.83-1.4-1.25-2.98-1.25-4.76s.47-3.47,1.42-4.93c.94-1.45,2.32-2.6,4.12-3.44,1.8-.84,4.01-1.26,6.61-1.26h7v5.04h-5.64c-1.04,0-2.02.14-2.93.42-.92.28-1.66.74-2.24,1.36-.58.62-.86,1.43-.86,2.41,0,.76.18,1.41.55,1.97.37.56.88.99,1.54,1.3.66.31,1.42.47,2.27.47,1,0,1.99-.21,2.96-.64.97-.42,1.78-1.03,2.44-1.81.65-.78.98-1.72.98-2.82v-3.57l-.37-1.42v-3.94c0-.55-.07-1.1-.21-1.66-.14-.56-.39-1.07-.75-1.53-.36-.46-.87-.83-1.53-1.1-.66-.27-1.5-.41-2.52-.41-.94,0-1.93.11-2.95.33-1.02.22-2.01.52-2.96.91-.95.39-1.8.84-2.53,1.35l-2.58-6.2c.96-.58,2.09-1.09,3.38-1.52,1.29-.42,2.64-.75,4.05-.99,1.41-.24,2.77-.35,4.09-.35,2.68,0,4.9.48,6.67,1.44,1.77.96,3.08,2.28,3.94,3.95.86,1.67,1.29,3.56,1.29,5.68v9.6c0,1.06.13,1.89.4,2.51.26.61.7,1.03,1.3,1.26l.62.23-2.75,6.63-1.02-.34c-1.4-.47-2.55-1.16-3.46-2.07s-1.44-1.87-1.61-2.89l1.84,1.13h-3.37l2.24-.71c-.62,1.3-1.8,2.44-3.54,3.41-1.74.97-3.73,1.46-5.98,1.46Z"/><path class="cls-4" d="M402.41,150.84c-2.3,0-4.32-.64-6.05-1.93-1.73-1.28-3.06-3.1-4.01-5.44-.94-2.34-1.42-5.11-1.42-8.3s.48-5.9,1.44-8.24c.96-2.34,2.32-4.15,4.06-5.44,1.75-1.28,3.79-1.93,6.13-1.93s4.34.64,6.05,1.93c1.71,1.28,3.04,3.1,3.99,5.45.95,2.35,1.43,5.09,1.43,8.23s-.48,5.93-1.44,8.27c-.96,2.34-2.31,4.16-4.05,5.45-1.74,1.29-3.79,1.94-6.15,1.94ZM404.42,144.21c1.23,0,2.3-.37,3.21-1.12.92-.75,1.63-1.8,2.14-3.16s.76-2.95.76-4.76-.25-3.39-.74-4.73c-.49-1.34-1.19-2.38-2.08-3.12-.9-.74-1.95-1.1-3.16-1.1s-2.3.37-3.21,1.1c-.92.74-1.62,1.78-2.12,3.13-.5,1.35-.75,2.92-.75,4.72s.24,3.4.72,4.76,1.17,2.41,2.07,3.16c.9.75,1.95,1.12,3.16,1.12ZM417.34,150.84c-1.66-.66-3.04-1.48-4.12-2.46-1.09-.98-1.73-1.97-1.94-2.97l.65.57h-2.32l1.16-3.54v-16.45l-1.25-3.12h.65v-16.09h7.76v33.67c0,.85.19,1.62.58,2.31.39.69.9,1.18,1.54,1.46l-2.72,6.63Z"/><path class="cls-4" d="M437.7,150.84c-2.78,0-5.2-.65-7.28-1.94-2.08-1.29-3.69-3.12-4.83-5.47-1.14-2.35-1.71-5.09-1.71-8.23s.57-5.87,1.71-8.21c1.14-2.34,2.75-4.16,4.83-5.47,2.08-1.3,4.5-1.95,7.28-1.95s5.2.65,7.28,1.95c2.08,1.3,3.69,3.12,4.83,5.47,1.14,2.34,1.71,5.08,1.71,8.21s-.57,5.88-1.71,8.23c-1.14,2.35-2.75,4.17-4.83,5.47-2.08,1.29-4.5,1.94-7.28,1.94ZM437.7,144.07c1.3,0,2.43-.36,3.38-1.09.95-.73,1.69-1.76,2.19-3.09s.76-2.89.76-4.69-.25-3.38-.76-4.7c-.51-1.32-1.24-2.35-2.19-3.07-.95-.73-2.08-1.09-3.38-1.09s-2.43.36-3.38,1.09c-.95.73-1.69,1.75-2.19,3.07-.51,1.32-.76,2.89-.76,4.7s.25,3.36.76,4.69,1.24,2.36,2.19,3.09c.95.73,2.08,1.09,3.38,1.09Z"/><path class="cls-4" d="M458.83,150.38v-30.33h7.67v4.87h1.08l-2.15,3c.43-1.62,1.13-3.06,2.08-4.32.95-1.26,2.1-2.24,3.44-2.95,1.34-.71,2.81-1.06,4.42-1.06s3.07.34,4.33,1.01c1.26.67,2.35,1.59,3.24,2.75.9,1.16,1.57,2.49,2.02,3.98l-7,2.86c-.47-1.09-1.15-1.98-2.02-2.66s-1.99-1.02-3.33-1.02c-1.06,0-2.04.28-2.96.84-.92.56-1.65,1.34-2.19,2.34-.55,1-.82,2.16-.82,3.48v17.22h-7.82Z"/><path class="cls-4" d="M521.16,115.92v-7.28h28.83v7.28h-28.83ZM531.52,150.38v-35.68h8.1v35.68h-8.1Z"/><path class="cls-4" d="M569.56,150.84c-3.02,0-5.66-.65-7.93-1.94-2.27-1.29-4.03-3.11-5.28-5.45-1.26-2.34-1.88-5.07-1.88-8.18s.59-5.88,1.78-8.23,2.86-4.18,5-5.48c2.14-1.3,4.64-1.95,7.49-1.95,2.64,0,4.95.59,6.93,1.76,1.97,1.17,3.51,2.82,4.62,4.94,1.11,2.12,1.66,4.6,1.66,7.43,0,.72-.03,1.46-.1,2.22-.07.76-.17,1.4-.3,1.91h-20.9v-5.1h13.88c0-1.38-.25-2.58-.75-3.61-.5-1.03-1.2-1.83-2.1-2.41-.9-.58-1.94-.86-3.13-.86-1.42,0-2.66.38-3.72,1.15-1.07.76-1.9,1.83-2.49,3.2-.59,1.37-.89,2.98-.89,4.83s.34,3.51,1.02,4.91c.68,1.41,1.63,2.5,2.86,3.27,1.23.77,2.65,1.16,4.28,1.16,1.32,0,2.62-.21,3.88-.64,1.26-.42,2.3-.99,3.12-1.69l2.49,6c-1.13.81-2.57,1.47-4.32,1.98-1.75.51-3.48.76-5.2.76Z"/><path class="cls-4" d="M589.33,150.38v-30.33h7.67v4.87h1.08l-2.15,3c.43-1.62,1.13-3.06,2.08-4.32.95-1.26,2.1-2.24,3.44-2.95s2.81-1.06,4.42-1.06,3.07.34,4.33,1.01c1.26.67,2.35,1.59,3.24,2.75.9,1.16,1.57,2.49,2.02,3.98l-7,2.86c-.47-1.09-1.15-1.98-2.03-2.66-.88-.68-1.99-1.02-3.33-1.02-1.06,0-2.04.28-2.96.84-.92.56-1.65,1.34-2.19,2.34-.55,1-.82,2.16-.82,3.48v17.22h-7.82Z"/><path class="cls-4" d="M620.59,150.38v-30.33h7.59v3.91h1.25l-2.27,2.86c.47-2.08,1.6-3.8,3.37-5.17,1.77-1.37,3.91-2.05,6.4-2.05,2.98,0,5.32,1,7.01,3,1.69,2,2.54,4.68,2.54,8.04v19.74h-7.82v-18.55c0-1.72-.44-3.08-1.33-4.09-.89-1.01-2.1-1.52-3.62-1.52-1.04,0-1.95.23-2.75.69-.79.46-1.42,1.12-1.87,1.97s-.68,1.85-.68,3v18.49h-7.82Z"/><path class="cls-4" d="M662.65,150.84c-1.98,0-3.71-.4-5.2-1.2-1.48-.8-2.64-1.9-3.47-3.3-.83-1.4-1.25-2.98-1.25-4.76s.47-3.47,1.42-4.93c.94-1.45,2.32-2.6,4.12-3.44,1.8-.84,4.01-1.26,6.61-1.26h7v5.04h-5.64c-1.04,0-2.02.14-2.93.42-.92.28-1.66.74-2.24,1.36-.58.62-.86,1.43-.86,2.41,0,.76.18,1.41.55,1.97.37.56.88.99,1.54,1.3s1.42.47,2.27.47c1,0,1.99-.21,2.96-.64.97-.42,1.78-1.03,2.44-1.81.65-.78.98-1.72.98-2.82v-3.57l-.37-1.42v-3.94c0-.55-.07-1.1-.21-1.66-.14-.56-.39-1.07-.75-1.53-.36-.46-.87-.83-1.53-1.1-.66-.27-1.5-.41-2.52-.41-.94,0-1.93.11-2.95.33-1.02.22-2.01.52-2.96.91-.95.39-1.8.84-2.54,1.35l-2.58-6.2c.96-.58,2.09-1.09,3.38-1.52,1.29-.42,2.64-.75,4.05-.99,1.41-.24,2.77-.35,4.09-.35,2.68,0,4.9.48,6.67,1.44,1.76.96,3.08,2.28,3.94,3.95.86,1.67,1.29,3.56,1.29,5.68v9.6c0,1.06.13,1.89.4,2.51.26.61.7,1.03,1.3,1.26l.62.23-2.75,6.63-1.02-.34c-1.4-.47-2.55-1.16-3.46-2.07s-1.44-1.87-1.61-2.89l1.84,1.13h-3.37l2.24-.71c-.62,1.3-1.8,2.44-3.54,3.41-1.74.97-3.73,1.46-5.98,1.46ZM666.39,117.5l-3.37-2.92,7.76-10.48,4.59,4.45-8.98,8.95Z"/><path class="cls-4" d="M687.2,150.38v-30.33h7.67v4.87h1.08l-2.15,3c.43-1.62,1.13-3.06,2.08-4.32.95-1.26,2.1-2.24,3.44-2.95s2.81-1.06,4.42-1.06,3.07.34,4.33,1.01c1.26.67,2.35,1.59,3.24,2.75.9,1.16,1.57,2.49,2.02,3.98l-7,2.86c-.47-1.09-1.15-1.98-2.03-2.66-.88-.68-1.99-1.02-3.33-1.02-1.06,0-2.04.28-2.96.84-.92.56-1.65,1.34-2.19,2.34-.55,1-.82,2.16-.82,3.48v17.22h-7.82Z"/><path class="cls-4" d="M720.14,126.77v-6.71h16.79v6.71h-16.79ZM733.05,116.2c-1.4,0-2.57-.48-3.53-1.44-.95-.96-1.43-2.14-1.43-3.54s.48-2.57,1.43-3.53c.95-.95,2.13-1.43,3.53-1.43s2.6.48,3.54,1.43c.94.95,1.42,2.13,1.42,3.53s-.47,2.58-1.42,3.54-2.12,1.44-3.54,1.44ZM729.11,150.38v-30.33h7.82v30.33h-7.82Z"/><path class="cls-4" d="M763.95,150.84c-2.78,0-5.2-.65-7.28-1.94-2.08-1.29-3.69-3.12-4.83-5.47-1.14-2.35-1.71-5.09-1.71-8.23s.57-5.87,1.71-8.21c1.14-2.34,2.75-4.16,4.83-5.47s4.5-1.95,7.28-1.95,5.2.65,7.28,1.95,3.69,3.12,4.83,5.47c1.14,2.34,1.71,5.08,1.71,8.21s-.57,5.88-1.71,8.23c-1.14,2.35-2.75,4.17-4.83,5.47-2.08,1.29-4.5,1.94-7.28,1.94ZM763.95,144.07c1.3,0,2.43-.36,3.38-1.09.95-.73,1.68-1.76,2.19-3.09s.76-2.89.76-4.69-.25-3.38-.76-4.7c-.51-1.32-1.24-2.35-2.19-3.07-.95-.73-2.08-1.09-3.38-1.09s-2.43.36-3.38,1.09c-.95.73-1.68,1.75-2.19,3.07-.51,1.32-.76,2.89-.76,4.7s.25,3.36.76,4.69,1.24,2.36,2.19,3.09c.95.73,2.08,1.09,3.38,1.09Z"/><path class="cls-5" d="M189.87,216.39l-26.34-10.76v-6.94l26.34-10.88v7.39l-18.24,6.88v.23l18.24,6.74v7.33Z"/><path class="cls-5" d="M212.16,220.32c-3.1,0-5.82-.66-8.16-1.98-2.34-1.32-4.17-3.16-5.49-5.51-1.32-2.35-1.98-5.07-1.98-8.17s.65-5.73,1.94-8.06c1.29-2.33,3.09-4.15,5.38-5.47,2.29-1.31,4.95-1.97,7.97-1.97,1.66,0,3.41.29,5.25.88,1.84.59,3.39,1.35,4.66,2.29l-2.89,6.29c-.81-.79-1.83-1.44-3.04-1.94-1.22-.5-2.4-.75-3.55-.75-1.6,0-3.02.37-4.25,1.1-1.23.74-2.19,1.76-2.87,3.07-.69,1.31-1.03,2.84-1.03,4.57s.34,3.3,1.02,4.63,1.63,2.37,2.86,3.12c1.23.75,2.63,1.12,4.22,1.12,1.3,0,2.58-.25,3.82-.75,1.25-.5,2.23-1.11,2.95-1.83l2.83,6.4c-1.27.87-2.78,1.58-4.55,2.12-1.77.55-3.46.82-5.08.82Z"/><path class="cls-5" d="M241.95,220.44c-2.78,0-5.2-.65-7.28-1.94-2.08-1.29-3.69-3.12-4.83-5.47-1.14-2.35-1.71-5.09-1.71-8.23s.57-5.87,1.71-8.21c1.14-2.34,2.75-4.16,4.83-5.47,2.08-1.3,4.5-1.95,7.28-1.95s5.2.65,7.28,1.95c2.08,1.3,3.69,3.12,4.83,5.47,1.14,2.34,1.71,5.08,1.71,8.21s-.57,5.88-1.71,8.23c-1.14,2.35-2.75,4.17-4.83,5.47-2.08,1.29-4.5,1.94-7.28,1.94ZM241.95,213.67c1.3,0,2.43-.36,3.38-1.09.95-.73,1.69-1.76,2.19-3.09s.76-2.89.76-4.69-.25-3.38-.76-4.7c-.51-1.32-1.24-2.35-2.19-3.07-.95-.73-2.08-1.09-3.38-1.09s-2.43.36-3.38,1.09c-.95.73-1.69,1.75-2.19,3.07-.51,1.32-.76,2.89-.76,4.7s.25,3.36.76,4.69,1.24,2.36,2.19,3.09c.95.73,2.08,1.09,3.38,1.09Z"/><path class="cls-5" d="M261.72,219.98v-30.33h7.59v3.91h1.25l-2.27,2.86c.47-2.08,1.6-3.8,3.37-5.17,1.77-1.37,3.91-2.05,6.4-2.05,2.98,0,5.32,1,7.01,3,1.69,2,2.53,4.68,2.53,8.04v19.74h-7.82v-18.55c0-1.72-.44-3.08-1.33-4.09-.89-1.01-2.1-1.52-3.62-1.52-1.04,0-1.95.23-2.75.69-.79.46-1.42,1.12-1.87,1.97s-.68,1.85-.68,3v18.49h-7.82Z"/><path class="cls-5" d="M304.54,220.44c-2.3,0-4.32-.64-6.05-1.93-1.73-1.28-3.06-3.1-4.01-5.44-.94-2.34-1.42-5.11-1.42-8.3s.48-5.9,1.44-8.24c.96-2.34,2.32-4.15,4.06-5.44,1.75-1.28,3.79-1.93,6.13-1.93s4.34.64,6.05,1.93c1.71,1.28,3.04,3.1,3.99,5.45.95,2.35,1.43,5.09,1.43,8.23s-.48,5.93-1.44,8.27c-.96,2.34-2.31,4.16-4.05,5.45-1.74,1.29-3.79,1.94-6.15,1.94ZM306.55,213.81c1.23,0,2.3-.37,3.21-1.12.92-.75,1.63-1.8,2.14-3.16s.76-2.95.76-4.76-.25-3.39-.74-4.73c-.49-1.34-1.19-2.38-2.08-3.12-.9-.74-1.95-1.1-3.16-1.1s-2.3.37-3.21,1.1c-.92.74-1.62,1.78-2.12,3.13-.5,1.35-.75,2.92-.75,4.72s.24,3.4.72,4.76,1.17,2.41,2.07,3.16c.9.75,1.95,1.12,3.16,1.12ZM319.46,220.44c-1.66-.66-3.04-1.48-4.12-2.46-1.09-.98-1.73-1.97-1.94-2.97l.65.57h-2.32l1.16-3.54v-16.45l-1.25-3.12h.65v-16.09h7.76v33.67c0,.85.19,1.62.58,2.31.39.69.9,1.18,1.54,1.46l-2.72,6.63Z"/><path class="cls-5" d="M328.64,196.37v-6.71h16.79v6.71h-16.79ZM341.55,185.8c-1.4,0-2.57-.48-3.53-1.44-.95-.96-1.43-2.14-1.43-3.54s.48-2.57,1.43-3.53,2.13-1.43,3.53-1.43,2.6.48,3.54,1.43c.94.95,1.42,2.13,1.42,3.53s-.47,2.58-1.42,3.54c-.94.96-2.12,1.44-3.54,1.44ZM337.61,219.98v-30.33h7.82v30.33h-7.82Z"/><path class="cls-5" d="M375.28,220.32c-3.1,0-5.82-.66-8.16-1.98-2.34-1.32-4.17-3.16-5.49-5.51-1.32-2.35-1.98-5.07-1.98-8.17s.65-5.73,1.94-8.06c1.29-2.33,3.09-4.15,5.38-5.47,2.29-1.31,4.95-1.97,7.97-1.97,1.66,0,3.41.29,5.25.88,1.84.59,3.39,1.35,4.66,2.29l-2.89,6.29c-.81-.79-1.83-1.44-3.04-1.94-1.22-.5-2.4-.75-3.55-.75-1.6,0-3.02.37-4.25,1.1-1.23.74-2.19,1.76-2.87,3.07-.69,1.31-1.03,2.84-1.03,4.57s.34,3.3,1.02,4.63,1.63,2.37,2.86,3.12c1.23.75,2.63,1.12,4.22,1.12,1.3,0,2.58-.25,3.82-.75,1.25-.5,2.23-1.11,2.95-1.83l2.83,6.4c-1.27.87-2.78,1.58-4.55,2.12-1.77.55-3.46.82-5.08.82ZM370.24,234.12v-3.96c1.94.08,3.37-.11,4.28-.55.91-.44,1.36-1.05,1.36-1.83,0-.59-.36-1.09-1.09-1.52-.73-.42-1.75-.68-3.07-.75l1.78-5.52h3.43l-1.56,4.64-.37-1.84c1.7.28,3.05.88,4.05,1.8,1,.92,1.5,2.11,1.5,3.58,0,1.79-.83,3.24-2.49,4.35-1.66,1.1-4.27,1.64-7.82,1.6Z"/><path class="cls-5" d="M401.65,220.44c-1.98,0-3.71-.4-5.2-1.2-1.48-.8-2.64-1.9-3.47-3.3-.83-1.4-1.25-2.98-1.25-4.76s.47-3.47,1.42-4.93c.94-1.45,2.32-2.6,4.12-3.44,1.8-.84,4.01-1.26,6.61-1.26h7v5.04h-5.64c-1.04,0-2.02.14-2.93.42-.92.28-1.66.74-2.24,1.36-.58.62-.86,1.43-.86,2.41,0,.76.18,1.41.55,1.97.37.56.88.99,1.54,1.3.66.31,1.42.47,2.27.47,1,0,1.99-.21,2.96-.64.97-.42,1.78-1.03,2.44-1.81.65-.78.98-1.72.98-2.82v-3.57l-.37-1.42v-3.94c0-.55-.07-1.1-.21-1.66-.14-.56-.39-1.07-.75-1.53-.36-.46-.87-.83-1.53-1.1-.66-.27-1.5-.41-2.52-.41-.94,0-1.93.11-2.95.33-1.02.22-2.01.52-2.96.91-.95.39-1.8.84-2.53,1.35l-2.58-6.2c.96-.58,2.09-1.09,3.38-1.52,1.29-.42,2.64-.75,4.05-.99,1.41-.24,2.77-.35,4.09-.35,2.68,0,4.9.48,6.67,1.44,1.77.96,3.08,2.28,3.94,3.95.86,1.67,1.29,3.56,1.29,5.68v9.6c0,1.06.13,1.89.4,2.51.26.61.7,1.03,1.3,1.26l.62.23-2.75,6.63-1.02-.34c-1.4-.47-2.55-1.16-3.46-2.07s-1.44-1.87-1.61-2.89l1.84,1.13h-3.37l2.24-.71c-.62,1.3-1.8,2.44-3.54,3.41-1.74.97-3.73,1.46-5.98,1.46ZM394.79,185.83c0-2.66.6-4.76,1.81-6.3,1.21-1.54,2.78-2.31,4.7-2.31,1.06,0,1.94.19,2.65.58.71.39,1.32.83,1.83,1.33.51.5.99.94,1.44,1.32.45.38.94.57,1.47.57.74,0,1.28-.37,1.63-1.1.35-.74.51-1.63.5-2.69h5.01c0,2.62-.6,4.72-1.81,6.27-1.21,1.56-2.79,2.34-4.73,2.34-1.04,0-1.9-.19-2.59-.58-.69-.39-1.29-.84-1.8-1.35s-1-.96-1.47-1.35c-.47-.39-.99-.58-1.56-.58-.7,0-1.22.35-1.56,1.06s-.52,1.64-.54,2.79h-4.98Z"/><path class="cls-5" d="M437.7,220.44c-2.78,0-5.2-.65-7.28-1.94-2.08-1.29-3.69-3.12-4.83-5.47-1.14-2.35-1.71-5.09-1.71-8.23s.57-5.87,1.71-8.21c1.14-2.34,2.75-4.16,4.83-5.47,2.08-1.3,4.5-1.95,7.28-1.95s5.2.65,7.28,1.95c2.08,1.3,3.69,3.12,4.83,5.47,1.14,2.34,1.71,5.08,1.71,8.21s-.57,5.88-1.71,8.23c-1.14,2.35-2.75,4.17-4.83,5.47-2.08,1.29-4.5,1.94-7.28,1.94ZM437.7,213.67c1.3,0,2.43-.36,3.38-1.09.95-.73,1.69-1.76,2.19-3.09s.76-2.89.76-4.69-.25-3.38-.76-4.7c-.51-1.32-1.24-2.35-2.19-3.07-.95-.73-2.08-1.09-3.38-1.09s-2.43.36-3.38,1.09c-.95.73-1.69,1.75-2.19,3.07-.51,1.32-.76,2.89-.76,4.7s.25,3.36.76,4.69,1.24,2.36,2.19,3.09c.95.73,2.08,1.09,3.38,1.09Z"/><path class="cls-5" d="M457.15,216.39v-7.33l18.24-6.74v-.23l-18.24-6.88v-7.39l26.34,10.88v6.94l-26.34,10.76Z"/><path class="cls-3" d="M499.32,206.08v-2.75c0-1.7.31-3.13.92-4.3.61-1.17,1.37-2.17,2.28-3,.91-.83,1.81-1.6,2.7-2.31.9-.71,1.65-1.44,2.27-2.21.61-.76.92-1.67.92-2.7,0-1.34-.51-2.42-1.53-3.23-1.02-.81-2.28-1.22-3.77-1.22-1.08,0-2.04.21-2.89.64s-1.52,1.01-2,1.74-.72,1.59-.72,2.55h-6.94c0-2.23.55-4.21,1.64-5.93,1.09-1.73,2.61-3.09,4.53-4.08s4.12-1.49,6.57-1.49c2.3,0,4.36.43,6.17,1.3,1.81.87,3.24,2.08,4.28,3.62,1.04,1.55,1.56,3.33,1.56,5.35,0,1.64-.31,3.03-.93,4.15-.62,1.12-1.39,2.11-2.31,2.95-.92.84-1.83,1.64-2.75,2.41-.92.76-1.69,1.6-2.31,2.49-.62.9-.93,1.98-.93,3.24v2.78h-6.77ZM502.92,220.44c-1.44,0-2.65-.5-3.65-1.5-1-1-1.5-2.24-1.5-3.71s.5-2.68,1.49-3.67,2.21-1.49,3.67-1.49,2.71.5,3.71,1.49c1,.99,1.5,2.21,1.5,3.67s-.5,2.71-1.5,3.71-2.24,1.5-3.71,1.5Z"/><path class="cls-5" d="M548.74,216.39l-26.34-10.76v-6.94l26.34-10.88v7.39l-18.24,6.88v.23l18.24,6.74v7.33Z"/><path class="cls-5" d="M564.49,219.98l-11.44-30.33h8.44l4.45,14.36,2.15,7.56h.23l2.15-7.56,4.5-14.36h8.38l-11.44,30.33h-7.42Z"/><path class="cls-5" d="M597.4,220.44c-1.98,0-3.71-.4-5.2-1.2-1.48-.8-2.64-1.9-3.47-3.3-.83-1.4-1.25-2.98-1.25-4.76s.47-3.47,1.42-4.93c.94-1.45,2.32-2.6,4.12-3.44,1.8-.84,4.01-1.26,6.61-1.26h7v5.04h-5.64c-1.04,0-2.02.14-2.93.42-.92.28-1.66.74-2.24,1.36-.58.62-.86,1.43-.86,2.41,0,.76.18,1.41.55,1.97.37.56.88.99,1.54,1.3s1.42.47,2.27.47c1,0,1.99-.21,2.96-.64.97-.42,1.78-1.03,2.44-1.81.65-.78.98-1.72.98-2.82v-3.57l-.37-1.42v-3.94c0-.55-.07-1.1-.21-1.66-.14-.56-.39-1.07-.75-1.53-.36-.46-.87-.83-1.53-1.1-.66-.27-1.5-.41-2.52-.41-.94,0-1.93.11-2.95.33-1.02.22-2.01.52-2.96.91-.95.39-1.8.84-2.54,1.35l-2.58-6.2c.96-.58,2.09-1.09,3.38-1.52,1.29-.42,2.64-.75,4.05-.99,1.41-.24,2.77-.35,4.09-.35,2.68,0,4.9.48,6.67,1.44,1.76.96,3.08,2.28,3.94,3.95.86,1.67,1.29,3.56,1.29,5.68v9.6c0,1.06.13,1.89.4,2.51.26.61.7,1.03,1.3,1.26l.62.23-2.75,6.63-1.02-.34c-1.4-.47-2.55-1.16-3.46-2.07s-1.44-1.87-1.61-2.89l1.84,1.13h-3.37l2.24-.71c-.62,1.3-1.8,2.44-3.54,3.41-1.74.97-3.73,1.46-5.98,1.46Z"/><path class="cls-5" d="M637.1,220.44c-2.38,0-4.47-.49-6.27-1.46-1.8-.97-3.21-2.32-4.23-4.04-1.02-1.72-1.53-3.7-1.53-5.95v-32.62h7.82v32.4c0,1.44.48,2.61,1.44,3.51s2.23,1.36,3.79,1.36c1,0,2.02-.2,3.07-.61,1.05-.41,1.97-.94,2.76-1.6l2.69,6.43c-1.32.77-2.84,1.4-4.54,1.87-1.71.47-3.38.71-5,.71Z"/><path class="cls-5" d="M666.07,220.44c-2.78,0-5.2-.65-7.28-1.94-2.08-1.29-3.69-3.12-4.83-5.47-1.14-2.35-1.71-5.09-1.71-8.23s.57-5.87,1.71-8.21c1.14-2.34,2.75-4.16,4.83-5.47s4.5-1.95,7.28-1.95,5.2.65,7.28,1.95,3.69,3.12,4.83,5.47c1.14,2.34,1.71,5.08,1.71,8.21s-.57,5.88-1.71,8.23c-1.14,2.35-2.75,4.17-4.83,5.47-2.08,1.29-4.5,1.94-7.28,1.94ZM666.07,213.67c1.3,0,2.43-.36,3.38-1.09.95-.73,1.68-1.76,2.19-3.09s.76-2.89.76-4.69-.25-3.38-.76-4.7c-.51-1.32-1.24-2.35-2.19-3.07-.95-.73-2.08-1.09-3.38-1.09s-2.43.36-3.38,1.09c-.95.73-1.68,1.75-2.19,3.07-.51,1.32-.76,2.89-.76,4.7s.25,3.36.76,4.69,1.24,2.36,2.19,3.09c.95.73,2.08,1.09,3.38,1.09Z"/><path class="cls-5" d="M687.2,219.98v-30.33h7.67v4.87h1.08l-2.15,3c.43-1.62,1.13-3.06,2.08-4.32.95-1.26,2.1-2.24,3.44-2.95s2.81-1.06,4.42-1.06,3.07.34,4.33,1.01c1.26.67,2.35,1.59,3.24,2.75.9,1.16,1.57,2.49,2.02,3.98l-7,2.86c-.47-1.09-1.15-1.98-2.03-2.66-.88-.68-1.99-1.02-3.33-1.02-1.06,0-2.04.28-2.96.84-.92.56-1.65,1.34-2.19,2.34-.55,1-.82,2.16-.82,3.48v17.22h-7.82Z"/><path class="cls-5" d="M717.16,228.48v-4.9h28.32v4.9h-28.32Z"/><path class="cls-5" d="M749.76,196.37v-6.71h26.14v6.71h-26.14ZM768.2,220.44c-2.23,0-4.21-.45-5.96-1.36-1.75-.91-3.12-2.22-4.11-3.94-.99-1.72-1.49-3.77-1.49-6.15v-28.35h7.82v28.32c0,1.49.47,2.64,1.4,3.46.93.81,2.09,1.22,3.47,1.22,1.02,0,2.03-.23,3.02-.68.99-.45,1.86-1,2.59-1.64l2.66,6.43c-1.28.79-2.76,1.44-4.43,1.94-1.67.5-3.33.75-4.97.75Z"/><path class="cls-5" d="M785.08,219.98v-30.33h7.67v4.87h1.08l-2.15,3c.43-1.62,1.13-3.06,2.08-4.32.95-1.26,2.1-2.24,3.44-2.95s2.81-1.06,4.42-1.06,3.07.34,4.33,1.01c1.26.67,2.35,1.59,3.24,2.75.9,1.16,1.57,2.49,2.02,3.98l-7,2.86c-.47-1.09-1.15-1.98-2.03-2.66-.88-.68-1.99-1.02-3.33-1.02-1.06,0-2.04.28-2.96.84-.92.56-1.65,1.34-2.19,2.34-.55,1-.82,2.16-.82,3.48v17.22h-7.82Z"/><path class="cls-5" d="M826.68,220.44c-2.13,0-3.99-.46-5.57-1.37-1.58-.92-2.8-2.2-3.67-3.87-.87-1.66-1.3-3.62-1.3-5.86v-19.68h7.82v18.92c0,1.53.43,2.76,1.29,3.7.86.93,2.02,1.41,3.47,1.43.98,0,1.85-.21,2.59-.64.75-.42,1.33-1.02,1.76-1.78.43-.76.64-1.67.64-2.7v-18.92h7.82v20.84c0,.62.28,1.24.85,1.84.57.6,1.32,1.1,2.27,1.47l-2.75,6.63c-1.98-.6-3.61-1.44-4.88-2.51-1.28-1.07-1.92-2.18-1.94-3.33l1.84,1.76h-3.51l3.65-2.32c-1.17,1.98-2.7,3.54-4.6,4.69-1.9,1.14-3.82,1.71-5.76,1.71Z"/><path class="cls-5" d="M863.18,220.44c-3.02,0-5.66-.65-7.93-1.94-2.27-1.29-4.03-3.11-5.28-5.45-1.26-2.34-1.88-5.07-1.88-8.18s.59-5.88,1.78-8.23,2.86-4.18,5-5.48c2.14-1.3,4.64-1.95,7.49-1.95,2.64,0,4.95.59,6.92,1.76,1.97,1.17,3.51,2.82,4.62,4.94,1.11,2.12,1.66,4.6,1.66,7.43,0,.72-.03,1.46-.1,2.22-.07.76-.17,1.4-.3,1.91h-20.9v-5.1h13.88c0-1.38-.25-2.58-.75-3.61-.5-1.03-1.2-1.83-2.1-2.41-.9-.58-1.94-.86-3.13-.86-1.42,0-2.66.38-3.72,1.15-1.07.76-1.9,1.83-2.49,3.2-.59,1.37-.89,2.98-.89,4.83s.34,3.51,1.02,4.91c.68,1.41,1.63,2.5,2.86,3.27,1.23.77,2.65,1.16,4.28,1.16,1.32,0,2.62-.21,3.88-.64s2.3-.99,3.12-1.69l2.49,6c-1.13.81-2.57,1.47-4.32,1.98-1.75.51-3.48.76-5.2.76Z"/><path class="cls-5" d="M881.28,216.39v-7.33l18.24-6.74v-.23l-18.24-6.88v-7.39l26.34,10.88v6.94l-26.34,10.76Z"/><path class="cls-3" d="M927.05,199.57c-1.43,0-2.65-.5-3.65-1.5-1-1-1.5-2.24-1.5-3.71s.5-2.68,1.49-3.67c.99-.99,2.21-1.49,3.67-1.49s2.71.5,3.71,1.49,1.5,2.21,1.5,3.67-.5,2.71-1.5,3.71c-1,1-2.24,1.5-3.71,1.5ZM927.05,220.44c-1.43,0-2.65-.5-3.65-1.5-1-1-1.5-2.24-1.5-3.71s.5-2.68,1.49-3.67c.99-.99,2.21-1.49,3.67-1.49s2.71.5,3.71,1.49,1.5,2.21,1.5,3.67-.5,2.71-1.5,3.71c-1,1-2.24,1.5-3.71,1.5Z"/><path class="cls-5" d="M972.87,216.39l-26.34-10.76v-6.94l26.34-10.88v7.39l-18.24,6.88v.23l18.24,6.74v7.33Z"/><path class="cls-5" d="M988.61,219.98l-11.44-30.33h8.44l4.45,14.36,2.15,7.56h.23l2.15-7.56,4.5-14.36h8.38l-11.44,30.33h-7.42Z"/><path class="cls-5" d="M1021.52,220.44c-1.98,0-3.71-.4-5.2-1.2-1.48-.8-2.64-1.9-3.47-3.3-.83-1.4-1.25-2.98-1.25-4.76s.47-3.47,1.42-4.93c.94-1.45,2.32-2.6,4.12-3.44,1.8-.84,4.01-1.26,6.61-1.26h7v5.04h-5.64c-1.04,0-2.02.14-2.93.42-.92.28-1.66.74-2.24,1.36-.58.62-.86,1.43-.86,2.41,0,.76.18,1.41.55,1.97.37.56.88.99,1.54,1.3s1.42.47,2.27.47c1,0,1.99-.21,2.96-.64.97-.42,1.78-1.03,2.44-1.81.65-.78.98-1.72.98-2.82v-3.57l-.37-1.42v-3.94c0-.55-.07-1.1-.21-1.66-.14-.56-.39-1.07-.75-1.53-.36-.46-.87-.83-1.53-1.1-.66-.27-1.5-.41-2.52-.41-.94,0-1.93.11-2.95.33-1.02.22-2.01.52-2.96.91-.95.39-1.8.84-2.54,1.35l-2.58-6.2c.96-.58,2.09-1.09,3.38-1.52,1.29-.42,2.64-.75,4.05-.99,1.41-.24,2.77-.35,4.09-.35,2.68,0,4.9.48,6.67,1.44,1.76.96,3.08,2.28,3.94,3.95.86,1.67,1.29,3.56,1.29,5.68v9.6c0,1.06.13,1.89.4,2.51.26.61.7,1.03,1.3,1.26l.62.23-2.75,6.63-1.02-.34c-1.4-.47-2.55-1.16-3.46-2.07s-1.44-1.87-1.61-2.89l1.84,1.13h-3.37l2.24-.71c-.62,1.3-1.8,2.44-3.54,3.41-1.74.97-3.73,1.46-5.98,1.46Z"/><path class="cls-5" d="M1061.23,220.44c-2.38,0-4.47-.49-6.27-1.46-1.8-.97-3.21-2.32-4.23-4.04-1.02-1.72-1.53-3.7-1.53-5.95v-32.62h7.82v32.4c0,1.44.48,2.61,1.44,3.51s2.23,1.36,3.79,1.36c1,0,2.02-.2,3.07-.61,1.05-.41,1.97-.94,2.76-1.6l2.69,6.43c-1.32.77-2.84,1.4-4.54,1.87-1.71.47-3.38.71-5,.71Z"/><path class="cls-5" d="M1090.2,220.44c-2.78,0-5.2-.65-7.28-1.94-2.08-1.29-3.69-3.12-4.83-5.47-1.14-2.35-1.71-5.09-1.71-8.23s.57-5.87,1.71-8.21c1.14-2.34,2.75-4.16,4.83-5.47s4.5-1.95,7.28-1.95,5.2.65,7.28,1.95,3.69,3.12,4.83,5.47c1.14,2.34,1.71,5.08,1.71,8.21s-.57,5.88-1.71,8.23c-1.14,2.35-2.75,4.17-4.83,5.47-2.08,1.29-4.5,1.94-7.28,1.94ZM1090.2,213.67c1.3,0,2.43-.36,3.38-1.09.95-.73,1.68-1.76,2.19-3.09s.76-2.89.76-4.69-.25-3.38-.76-4.7c-.51-1.32-1.24-2.35-2.19-3.07-.95-.73-2.08-1.09-3.38-1.09s-2.43.36-3.38,1.09c-.95.73-1.68,1.75-2.19,3.07-.51,1.32-.76,2.89-.76,4.7s.25,3.36.76,4.69,1.24,2.36,2.19,3.09c.95.73,2.08,1.09,3.38,1.09Z"/><path class="cls-5" d="M1111.33,219.98v-30.33h7.67v4.87h1.08l-2.15,3c.43-1.62,1.13-3.06,2.08-4.32.95-1.26,2.1-2.24,3.44-2.95s2.81-1.06,4.42-1.06,3.07.34,4.33,1.01c1.26.67,2.35,1.59,3.24,2.75.9,1.16,1.57,2.49,2.02,3.98l-7,2.86c-.47-1.09-1.15-1.98-2.03-2.66-.88-.68-1.99-1.02-3.33-1.02-1.06,0-2.04.28-2.96.84-.92.56-1.65,1.34-2.19,2.34-.55,1-.82,2.16-.82,3.48v17.22h-7.82Z"/><path class="cls-5" d="M1141.29,228.48v-4.9h28.32v4.9h-28.32Z"/><path class="cls-5" d="M1175.13,196.37v-6.71h25.46v6.71h-25.46ZM1182.21,219.98v-32.46c0-2.55.53-4.72,1.59-6.51,1.06-1.79,2.5-3.16,4.33-4.11,1.83-.94,3.89-1.42,6.17-1.42,1.45,0,2.94.2,4.46.59,1.52.4,2.9.96,4.15,1.7l-2.86,6.15c-.68-.49-1.47-.87-2.36-1.15-.9-.27-1.74-.41-2.54-.41-1.51,0-2.74.44-3.7,1.33-.95.89-1.43,2.14-1.43,3.77v32.51h-7.82Z"/><path class="cls-5" d="M1217.27,220.44c-1.98,0-3.71-.4-5.2-1.2-1.48-.8-2.64-1.9-3.47-3.3-.83-1.4-1.25-2.98-1.25-4.76s.47-3.47,1.42-4.93c.94-1.45,2.32-2.6,4.12-3.44,1.8-.84,4.01-1.26,6.61-1.26h7v5.04h-5.64c-1.04,0-2.02.14-2.93.42-.92.28-1.66.74-2.24,1.36-.58.62-.86,1.43-.86,2.41,0,.76.18,1.41.55,1.97.37.56.88.99,1.54,1.3s1.42.47,2.27.47c1,0,1.99-.21,2.96-.64.97-.42,1.78-1.03,2.44-1.81.65-.78.98-1.72.98-2.82v-3.57l-.37-1.42v-3.94c0-.55-.07-1.1-.21-1.66-.14-.56-.39-1.07-.75-1.53-.36-.46-.87-.83-1.53-1.1-.66-.27-1.5-.41-2.52-.41-.94,0-1.93.11-2.95.33-1.02.22-2.01.52-2.96.91-.95.39-1.8.84-2.54,1.35l-2.58-6.2c.96-.58,2.09-1.09,3.38-1.52,1.29-.42,2.64-.75,4.05-.99,1.41-.24,2.77-.35,4.09-.35,2.68,0,4.9.48,6.67,1.44,1.76.96,3.08,2.28,3.94,3.95.86,1.67,1.29,3.56,1.29,5.68v9.6c0,1.06.13,1.89.4,2.51.26.61.7,1.03,1.3,1.26l.62.23-2.75,6.63-1.02-.34c-1.4-.47-2.55-1.16-3.46-2.07s-1.44-1.87-1.61-2.89l1.84,1.13h-3.37l2.24-.71c-.62,1.3-1.8,2.44-3.54,3.41-1.74.97-3.73,1.46-5.98,1.46Z"/><path class="cls-5" d="M1256.98,220.44c-2.38,0-4.47-.49-6.27-1.46-1.8-.97-3.21-2.32-4.23-4.04-1.02-1.72-1.53-3.7-1.53-5.95v-32.62h7.82v32.4c0,1.44.48,2.61,1.44,3.51s2.23,1.36,3.79,1.36c1,0,2.02-.2,3.07-.61,1.05-.41,1.97-.94,2.76-1.6l2.69,6.43c-1.32.77-2.84,1.4-4.54,1.87-1.71.47-3.38.71-5,.71Z"/><path class="cls-5" d="M1286.29,220.44c-2,0-3.88-.32-5.62-.96-1.75-.64-3.26-1.52-4.55-2.63-1.28-1.11-2.24-2.39-2.86-3.82l6.46-2.66c.53.89,1.37,1.74,2.54,2.55,1.16.81,2.59,1.22,4.29,1.22.87,0,1.68-.12,2.44-.35.75-.24,1.36-.58,1.83-1.02.46-.44.69-.97.69-1.57,0-.77-.42-1.4-1.25-1.87-.83-.47-1.89-.89-3.19-1.26-1.29-.37-2.67-.77-4.12-1.2-1.45-.43-2.83-1-4.13-1.69-1.3-.69-2.37-1.59-3.19-2.69-.82-1.1-1.23-2.52-1.23-4.23,0-1.89.52-3.51,1.56-4.86,1.04-1.35,2.45-2.38,4.22-3.1,1.77-.72,3.75-1.08,5.92-1.08,2.7,0,5.13.58,7.29,1.74,2.16,1.16,3.71,2.73,4.66,4.72l-6.4,2.66c-.49-.77-1.2-1.44-2.12-2-.92-.56-2.11-.84-3.54-.84-1.21,0-2.26.23-3.16.69-.9.46-1.35,1.15-1.35,2.05,0,.79.42,1.43,1.25,1.91s1.9.9,3.2,1.25c1.3.35,2.68.73,4.13,1.13,1.45.41,2.83.93,4.13,1.57,1.3.64,2.37,1.49,3.2,2.55.83,1.06,1.25,2.44,1.25,4.13,0,1.94-.57,3.64-1.7,5.08s-2.63,2.57-4.5,3.37-3.92,1.2-6.15,1.2Z"/><path class="cls-5" d="M1319.93,220.44c-3.02,0-5.66-.65-7.93-1.94-2.27-1.29-4.03-3.11-5.28-5.45-1.26-2.34-1.88-5.07-1.88-8.18s.59-5.88,1.78-8.23,2.86-4.18,5-5.48c2.14-1.3,4.64-1.95,7.49-1.95,2.64,0,4.95.59,6.92,1.76,1.97,1.17,3.51,2.82,4.62,4.94,1.11,2.12,1.66,4.6,1.66,7.43,0,.72-.03,1.46-.1,2.22-.07.76-.17,1.4-.3,1.91h-20.9v-5.1h13.88c0-1.38-.25-2.58-.75-3.61-.5-1.03-1.2-1.83-2.1-2.41-.9-.58-1.94-.86-3.13-.86-1.42,0-2.66.38-3.72,1.15-1.07.76-1.9,1.83-2.49,3.2-.59,1.37-.89,2.98-.89,4.83s.34,3.51,1.02,4.91c.68,1.41,1.63,2.5,2.86,3.27,1.23.77,2.65,1.16,4.28,1.16,1.32,0,2.62-.21,3.88-.64s2.3-.99,3.12-1.69l2.49,6c-1.13.81-2.57,1.47-4.32,1.98-1.75.51-3.48.76-5.2.76Z"/><path class="cls-5" d="M1338.03,216.39v-7.33l18.24-6.74v-.23l-18.24-6.88v-7.39l26.34,10.88v6.94l-26.34,10.76Z"/><path class="cls-3" d="M1380.48,229.64l-2.44-2.66,3.06-3.03c.53-.57,1.1-1.17,1.71-1.81.61-.64,1.13-1.34,1.54-2.1s.62-1.58.62-2.46h1.16c-.06.76-.34,1.42-.85,2s-1.24.86-2.18.86c-.77,0-1.53-.22-2.28-.65-.75-.43-1.36-1.04-1.84-1.83-.48-.78-.72-1.69-.72-2.73,0-1.47.5-2.7,1.5-3.68,1-.98,2.24-1.47,3.71-1.47s2.71.53,3.77,1.59c1.06,1.06,1.59,2.59,1.59,4.59,0,1.74-.45,3.42-1.34,5.06-.9,1.63-2.12,3.25-3.67,4.86l-3.34,3.48ZM1383.57,199.57c-1.43,0-2.65-.5-3.65-1.5-1-1-1.5-2.24-1.5-3.71s.5-2.68,1.49-3.67c.99-.99,2.21-1.49,3.67-1.49s2.71.5,3.71,1.49,1.5,2.21,1.5,3.67-.5,2.71-1.5,3.71c-1,1-2.24,1.5-3.71,1.5Z"/></g></svg>