<?xml version="1.0" encoding="UTF-8"?><svg id="Layer_2" xmlns="http://www.w3.org/2000/svg" viewBox="0 0 374.82 376.72"><defs><style>.cls-1{fill:#ccf3ff;}</style></defs><g id="Layer_1-2"><path class="cls-1" d="M349.51,268.7c15.79-18.81,25.31-43.06,25.31-69.54,0-28.35-10.91-54.14-28.74-73.43,10.77-7.22,17.87-19.51,17.87-33.45,0-22.23-18.02-40.24-40.24-40.24-10.87,0-20.73,4.32-27.97,11.32-6.77-22.86-27.92-39.54-52.98-39.54-6.08,0-11.92,1-17.39,2.81-5.58-15.52-20.43-26.62-37.88-26.62-22.23,0-40.24,18.02-40.24,40.24,0,.94.04,1.87.11,2.8-7.06-1.83-14.47-2.8-22.1-2.8s-14.78.94-21.73,2.7c-9.45-16.89-27.51-28.32-48.25-28.32C24.74,14.63,0,39.37,0,69.89c0,24.28,15.66,44.89,37.43,52.31-.14,2-.21,4.03-.21,6.06,0,5.82.57,11.51,1.65,17.02C16.35,152.27,0,173.26,0,198.08c0,23.05,14.11,42.79,34.16,51.08-.74,5.1-1.13,10.32-1.13,15.62,0,7.76.82,15.32,2.37,22.61-7.36,9.39-11.75,21.2-11.75,34.05,0,30.52,24.74,55.27,55.27,55.27,10.97,0,21.18-3.21,29.77-8.72,10.27,3.24,21.2,4.98,32.54,4.98,21.77,0,42.04-6.44,59.02-17.5,10.14,12.18,25.41,19.94,42.49,19.94,27.23,0,49.84-19.7,54.41-45.61,7.09,6.23,16.37,10.01,26.55,10.01,22.23,0,40.24-18.02,40.24-40.24,0-12.4-5.61-23.49-14.43-30.87Z"/><path d="M64.61,72.34l1.59-11.64,49.34,6.74-1.59,11.64-49.34-6.74ZM61.18,97.46l1.59-11.64,49.34,6.74-1.59,11.64-49.34-6.74Z"/><path d="M121.91,80.17l1.59-11.64,49.34,6.74-1.59,11.64-49.34-6.74ZM118.48,105.29l1.59-11.64,49.34,6.74-1.59,11.64-49.34-6.74Z"/><path d="M291.33,247.79l1.73-12.89,33.63-7.54.05-.4-30.42-16.39,1.74-12.99,43.71,25.31-1.63,12.19-48.81,12.7Z"/><path d="M49.9,208.17l-42.62-26.96,2.16-12.11,49.34-10.79-2.3,12.9-33.97,6.34-.07.4,29.73,17.43-2.28,12.8Z"/><path d="M145.11,214.76l-48.24-14.72-1.13-12.25,44.73-23.47,1.2,13.05-31.08,15.11.04.4,33.29,8.94,1.19,12.95Z"/><path d="M151.73,182.04l-1.08-11.7,49.59-4.56,1.08,11.7-49.59,4.56ZM154.05,207.29l-1.07-11.7,49.59-4.56,1.07,11.7-49.59,4.56Z"/><path d="M213.79,208.45l-1.19-12.95,31.1-14.86-.04-.4-33.31-9.19-1.2-13.05,48.25,14.92,1.13,12.25-44.74,23.27Z"/><path d="M208.39,339.7c-2.53.47-4.83-.01-6.88-1.44-2.05-1.43-3.31-3.42-3.78-5.99s0-4.82,1.41-6.87c1.41-2.05,3.38-3.3,5.92-3.77s4.88,0,6.95,1.4c2.06,1.41,3.33,3.38,3.8,5.91s0,4.88-1.42,6.95-3.42,3.34-5.98,3.81ZM198.27,315.79l-10.79-48.29,14.71-2.71,7.14,48.96-11.06,2.04Z"/><path d="M233.68,295.22l-2.13-11.55,48.97-9.03,2.13,11.55-48.97,9.03ZM238.28,320.15l-2.13-11.55,48.97-9.03,2.13,11.55-48.97,9.03Z"/><path d="M269.47,145.21l-16.81-103.15,11.1-1.81,16.81,103.15-11.1,1.81Z"/><path d="M326.55,135.91l-16.81-103.15,11.1-1.81,16.81,103.15-11.1,1.81Z"/><path d="M27.83,301.87c-4.14-.8-7.63-2.45-10.47-4.95-2.84-2.51-4.86-5.58-6.07-9.22-1.21-3.64-1.42-7.51-.63-11.62.53-2.76,1.49-5.38,2.87-7.86,1.38-2.48,3.04-4.64,4.98-6.48,1.94-1.84,4-3.2,6.18-4.08l3.27-1.31,4.74,9.91-2.34.98c-1.79.81-3.43,2.19-4.91,4.12-1.48,1.93-2.44,4.05-2.88,6.35s-.37,4.27.16,6.19c.53,1.93,1.47,3.54,2.83,4.84,1.35,1.3,3.03,2.14,5.03,2.53,3.25.63,6.4-.08,9.43-2.12,3.03-2.04,5.69-5.14,7.98-9.3,2.28-4.16,3.97-9.08,5.07-14.77l11.19,2.15c-1.12,5.82-2.85,11.04-5.19,15.67-2.34,4.63-5.14,8.49-8.39,11.6-3.26,3.1-6.83,5.31-10.73,6.63-3.9,1.31-7.94,1.56-12.11.76ZM46.91,304.72l-20.79-46.02c-1.01-2.2-1.85-4.29-2.53-6.26-.68-1.97-1.12-3.9-1.34-5.78-.22-1.88-.14-3.78.22-5.68.58-3.02,1.88-5.64,3.89-7.84,2.01-2.2,4.49-3.78,7.45-4.73,2.96-.95,6.15-1.09,9.57-.43s6.1,1.88,8.43,3.74c2.33,1.86,4.02,4.14,5.05,6.82,1.03,2.69,1.26,5.54.68,8.57-.71,3.71-2.46,7.01-5.25,9.88-2.78,2.87-5.97,5.11-9.55,6.7l-3.41,1.49-4.23-9.35,2.52-.89c1.9-.66,3.64-1.81,5.21-3.44,1.58-1.64,2.55-3.41,2.92-5.32s.12-3.52-.71-4.94c-.83-1.42-2.09-2.29-3.77-2.62-1.45-.28-2.92,0-4.42.81-1.5.82-2.47,2.34-2.9,4.58-.27,1.38-.26,2.74,0,4.07.27,1.33.68,2.65,1.23,3.94.55,1.3,1.1,2.58,1.64,3.84l23.38,51.43-13.31-2.56Z"/><path d="M84.62,312.8c-4.14-.8-7.63-2.45-10.47-4.95-2.84-2.51-4.86-5.58-6.07-9.22-1.21-3.64-1.42-7.51-.63-11.62.53-2.76,1.49-5.38,2.87-7.86,1.38-2.48,3.04-4.64,4.98-6.48,1.94-1.84,4-3.2,6.18-4.08l3.27-1.31,4.74,9.91-2.34.98c-1.79.81-3.43,2.19-4.91,4.12-1.48,1.93-2.44,4.05-2.88,6.35s-.37,4.27.16,6.19c.53,1.93,1.47,3.54,2.83,4.84,1.35,1.3,3.03,2.14,5.03,2.53,3.25.63,6.4-.08,9.43-2.12,3.03-2.04,5.69-5.14,7.98-9.3,2.28-4.16,3.97-9.08,5.07-14.77l11.19,2.15c-1.12,5.82-2.85,11.04-5.19,15.67-2.34,4.63-5.14,8.49-8.39,11.6-3.26,3.1-6.83,5.31-10.73,6.63-3.9,1.31-7.94,1.56-12.11.76ZM103.7,315.65l-20.79-46.02c-1.01-2.2-1.85-4.29-2.53-6.26-.68-1.97-1.12-3.9-1.34-5.78-.22-1.88-.14-3.78.22-5.68.58-3.02,1.88-5.64,3.89-7.84,2.01-2.2,4.49-3.78,7.45-4.73,2.96-.95,6.15-1.09,9.57-.43s6.1,1.88,8.43,3.74c2.33,1.86,4.02,4.14,5.05,6.82,1.03,2.69,1.26,5.54.68,8.57-.71,3.71-2.46,7.01-5.25,9.88-2.78,2.87-5.97,5.11-9.55,6.7l-3.41,1.49-4.23-9.35,2.52-.89c1.9-.66,3.64-1.81,5.21-3.44,1.58-1.64,2.55-3.41,2.92-5.32s.12-3.52-.71-4.94c-.83-1.42-2.09-2.29-3.77-2.62-1.45-.28-2.92,0-4.42.81-1.5.82-2.47,2.34-2.9,4.58-.27,1.38-.26,2.74,0,4.07.27,1.33.68,2.65,1.23,3.94.55,1.3,1.1,2.58,1.64,3.84l23.38,51.43-13.31-2.56Z"/></g></svg>