<?xml version="1.0" encoding="UTF-8"?><svg id="Layer_2" xmlns="http://www.w3.org/2000/svg" viewBox="0 0 704.18 146.48"><defs><style>.cls-1{fill:#04041e;}.cls-2{fill:#ef4136;}.cls-3{fill:#f1f2f2;}.cls-4{fill:#27aae1;}</style></defs><g id="Layer_1-2"><rect class="cls-1" width="704.18" height="146.48"/><path class="cls-2" d="M49.9,55.91l-21.31-8.71v-5.61l21.31-8.8v5.98l-14.76,5.57v.18l14.76,5.45v5.94Z"/><path class="cls-2" d="M62.71,47.57v-2.22c0-1.38.25-2.54.74-3.48.5-.95,1.11-1.76,1.84-2.43.73-.67,1.46-1.29,2.19-1.87.73-.57,1.34-1.17,1.83-1.79.5-.62.74-1.35.74-2.19,0-1.08-.41-1.96-1.24-2.61-.82-.66-1.84-.99-3.05-.99-.87,0-1.65.17-2.34.52-.69.34-1.23.81-1.62,1.41s-.58,1.28-.58,2.06h-5.61c0-1.8.44-3.4,1.33-4.8.89-1.4,2.11-2.5,3.67-3.3,1.56-.8,3.33-1.2,5.32-1.2,1.86,0,3.53.35,5,1.05,1.47.7,2.62,1.68,3.46,2.93.84,1.25,1.26,2.7,1.26,4.33,0,1.33-.25,2.45-.76,3.36-.5.91-1.13,1.7-1.87,2.38-.74.68-1.48,1.33-2.22,1.95-.74.62-1.36,1.29-1.87,2.02-.5.73-.76,1.6-.76,2.62v2.25h-5.48ZM65.62,59.19c-1.16,0-2.15-.4-2.96-1.21-.81-.81-1.21-1.81-1.21-3s.4-2.17,1.2-2.97c.8-.8,1.79-1.2,2.97-1.2s2.19.4,3,1.2c.81.8,1.21,1.79,1.21,2.97s-.4,2.19-1.21,3c-.81.81-1.81,1.21-3,1.21Z"/><path class="cls-2" d="M81.63,68.44v-34.17h6v2.64h.8l-1.08,2.54v13.98l1.54,2.8h-.99v12.21h-6.28ZM94.19,59.19c-1.89,0-3.55-.52-4.96-1.57-1.41-1.05-2.51-2.52-3.29-4.41-.78-1.89-1.17-4.12-1.17-6.69s.39-4.76,1.16-6.66c.77-1.9,1.85-3.37,3.24-4.41,1.39-1.04,3.02-1.56,4.88-1.56s3.57.52,4.97,1.56c1.41,1.04,2.5,2.51,3.28,4.4.78,1.89,1.17,4.12,1.17,6.67s-.38,4.82-1.15,6.71c-.76,1.89-1.84,3.36-3.23,4.4s-3.02,1.56-4.9,1.56ZM92.57,53.82c.98,0,1.83-.3,2.56-.91.73-.6,1.28-1.46,1.67-2.55.39-1.1.58-2.38.58-3.83s-.2-2.75-.61-3.84c-.4-1.09-.98-1.94-1.72-2.53-.74-.6-1.61-.89-2.6-.89s-1.83.3-2.54.89c-.72.6-1.28,1.44-1.68,2.52-.4,1.08-.61,2.37-.61,3.85s.21,2.72.62,3.82c.41,1.09.99,1.94,1.73,2.56.74.61,1.61.92,2.6.92Z"/><path class="cls-2" d="M108.03,58.82V23.53h6.32v13.15h1.21l-2.22,2.31c.26-1.1.78-2.03,1.56-2.78.78-.76,1.71-1.33,2.78-1.72,1.08-.39,2.21-.58,3.4-.58,1.71,0,3.15.4,4.33,1.2,1.18.8,2.06,1.88,2.66,3.23.6,1.35.89,2.85.89,4.48v15.99h-6.32v-14.62c0-1.65-.37-2.89-1.11-3.71-.74-.83-1.69-1.24-2.85-1.24-.79,0-1.52.19-2.17.56-.65.37-1.17.94-1.57,1.68s-.6,1.67-.6,2.75v14.57h-6.32Z"/><path class="cls-2" d="M134.43,68.44v-34.17h6v2.64h.8l-1.08,2.54v13.98l1.54,2.8h-.99v12.21h-6.28ZM146.99,59.19c-1.89,0-3.55-.52-4.96-1.57-1.41-1.05-2.51-2.52-3.29-4.41-.78-1.89-1.17-4.12-1.17-6.69s.39-4.76,1.16-6.66c.77-1.9,1.85-3.37,3.24-4.41,1.39-1.04,3.02-1.56,4.88-1.56s3.57.52,4.97,1.56c1.41,1.04,2.5,2.51,3.28,4.4.78,1.89,1.17,4.12,1.17,6.67s-.38,4.82-1.15,6.71c-.76,1.89-1.84,3.36-3.23,4.4s-3.02,1.56-4.9,1.56ZM145.36,53.82c.98,0,1.83-.3,2.56-.91.73-.6,1.28-1.46,1.67-2.55.39-1.1.58-2.38.58-3.83s-.2-2.75-.61-3.84c-.4-1.09-.98-1.94-1.72-2.53-.74-.6-1.61-.89-2.6-.89s-1.83.3-2.54.89c-.72.6-1.28,1.44-1.68,2.52-.4,1.08-.61,2.37-.61,3.85s.21,2.72.62,3.82c.41,1.09.99,1.94,1.73,2.56.74.61,1.61.92,2.6.92Z"/><path class="cls-4" d="M145.93,115.5c-2.44,0-4.58-.52-6.42-1.57-1.83-1.05-3.26-2.52-4.27-4.41-1.02-1.89-1.52-4.1-1.52-6.62s.48-4.75,1.44-6.66,2.31-3.38,4.04-4.43,3.75-1.58,6.06-1.58c2.14,0,4.01.47,5.6,1.42,1.6.95,2.84,2.28,3.73,4,.89,1.72,1.34,3.72,1.34,6.02,0,.58-.03,1.18-.08,1.8-.05.62-.13,1.13-.24,1.55h-16.91v-4.12h11.23c0-1.11-.2-2.09-.61-2.92-.41-.83-.97-1.48-1.7-1.95-.73-.47-1.57-.7-2.53-.7-1.15,0-2.15.31-3.01.93-.86.62-1.54,1.48-2.02,2.59-.48,1.11-.72,2.41-.72,3.91s.28,2.84.83,3.98c.55,1.14,1.32,2.02,2.31,2.65.99.63,2.15.94,3.46.94,1.07,0,2.12-.17,3.14-.52,1.02-.34,1.86-.8,2.52-1.36l2.02,4.86c-.92.66-2.08,1.19-3.49,1.6s-2.81.62-4.21.62Z"/><path class="cls-4" d="M173.52,115.41c-2.51,0-4.71-.53-6.6-1.6-1.89-1.07-3.38-2.56-4.45-4.46s-1.6-4.11-1.6-6.61.52-4.63,1.57-6.52c1.05-1.89,2.5-3.36,4.35-4.42,1.86-1.06,4.01-1.59,6.45-1.59,1.34,0,2.76.24,4.25.71,1.49.47,2.75,1.09,3.77,1.86l-2.34,5.09c-.66-.64-1.48-1.17-2.46-1.57s-1.94-.61-2.88-.61c-1.3,0-2.44.3-3.44.89-.99.6-1.77,1.42-2.33,2.49-.56,1.06-.84,2.3-.84,3.7s.27,2.67.82,3.75,1.32,1.92,2.31,2.52c.99.6,2.13.91,3.41.91,1.05,0,2.08-.2,3.09-.61,1.01-.4,1.8-.9,2.38-1.48l2.29,5.18c-1.02.7-2.25,1.28-3.68,1.72-1.43.44-2.8.66-4.11.66Z"/><path class="cls-4" d="M187.23,115.14v-35.29h6.32v13.15h1.21l-2.22,2.31c.26-1.1.78-2.03,1.56-2.78.78-.76,1.71-1.33,2.78-1.72,1.08-.39,2.21-.58,3.4-.58,1.71,0,3.15.4,4.33,1.2,1.18.8,2.06,1.88,2.66,3.23.6,1.35.89,2.85.89,4.48v15.99h-6.32v-14.62c0-1.65-.37-2.89-1.11-3.71-.74-.83-1.69-1.24-2.85-1.24-.79,0-1.52.19-2.17.56-.65.37-1.17.94-1.57,1.68s-.6,1.67-.6,2.75v14.57h-6.32Z"/><path class="cls-4" d="M224.03,115.5c-2.25,0-4.21-.52-5.89-1.57-1.68-1.05-2.98-2.52-3.91-4.42-.92-1.9-1.39-4.12-1.39-6.66s.46-4.75,1.39-6.65,2.23-3.37,3.91-4.42c1.68-1.05,3.64-1.58,5.89-1.58s4.21.53,5.89,1.58c1.68,1.05,2.98,2.53,3.91,4.42s1.39,4.11,1.39,6.65-.46,4.75-1.39,6.66c-.92,1.9-2.23,3.38-3.91,4.42-1.68,1.05-3.64,1.57-5.89,1.57ZM224.03,110.03c1.05,0,1.97-.29,2.74-.88.77-.59,1.36-1.42,1.78-2.5.41-1.08.62-2.34.62-3.79s-.21-2.73-.62-3.8-1-1.9-1.78-2.49c-.77-.59-1.68-.88-2.74-.88s-1.97.29-2.74.88c-.77.59-1.36,1.42-1.78,2.49-.41,1.07-.62,2.34-.62,3.8s.21,2.72.62,3.79c.41,1.08,1,1.91,1.78,2.5.77.59,1.68.88,2.74.88Z"/><path class="cls-3" d="M273.85,79.21l1.95,2.13-2.48,2.47c-.43.44-.89.92-1.37,1.44-.49.52-.91,1.08-1.25,1.7-.34.61-.52,1.28-.52,1.99h-.94c.06-.61.3-1.15.71-1.6.41-.46.99-.69,1.74-.69.64,0,1.26.18,1.86.53.6.35,1.09.84,1.48,1.48.39.63.58,1.36.58,2.19,0,1.19-.4,2.19-1.21,2.99-.81.8-1.81,1.2-3,1.2s-2.15-.43-3.02-1.29c-.87-.86-1.31-2.1-1.31-3.7,0-1.42.36-2.79,1.09-4.11.73-1.32,1.71-2.62,2.97-3.91l2.73-2.82ZM284.62,79.21l1.95,2.13-2.45,2.47c-.44.44-.91.92-1.4,1.44-.49.52-.91,1.08-1.25,1.7-.34.61-.51,1.28-.49,1.99h-.96c.06-.61.3-1.15.71-1.6.41-.46.99-.69,1.74-.69.64,0,1.26.18,1.86.53.6.35,1.09.84,1.48,1.48.39.63.58,1.36.58,2.19,0,1.19-.41,2.19-1.21,2.99-.81.8-1.8,1.2-2.98,1.2s-2.17-.43-3.04-1.29c-.86-.86-1.29-2.1-1.29-3.7,0-1.42.36-2.79,1.09-4.11.73-1.32,1.71-2.62,2.97-3.91l2.7-2.82Z"/><path class="cls-3" d="M292.09,115.14v-33.78h6.46v13.7h9.35v-13.7h6.46v33.78h-6.46v-14.18h-9.35v14.18h-6.46Z"/><path class="cls-3" d="M330.72,115.5c-2.44,0-4.58-.52-6.42-1.57-1.83-1.05-3.26-2.52-4.27-4.41-1.02-1.89-1.52-4.1-1.52-6.62s.48-4.75,1.44-6.66,2.31-3.38,4.04-4.43,3.75-1.58,6.06-1.58c2.14,0,4.01.47,5.6,1.42,1.6.95,2.84,2.28,3.73,4,.89,1.72,1.34,3.72,1.34,6.02,0,.58-.03,1.18-.08,1.8-.05.62-.13,1.13-.24,1.55h-16.91v-4.12h11.23c0-1.11-.2-2.09-.61-2.92-.41-.83-.97-1.48-1.7-1.95-.73-.47-1.57-.7-2.53-.7-1.15,0-2.15.31-3.01.93-.86.62-1.54,1.48-2.02,2.59-.48,1.11-.72,2.41-.72,3.91s.28,2.84.83,3.98c.55,1.14,1.32,2.02,2.31,2.65.99.63,2.15.94,3.46.94,1.07,0,2.12-.17,3.14-.52,1.02-.34,1.86-.8,2.52-1.36l2.02,4.86c-.92.66-2.08,1.19-3.49,1.6s-2.81.62-4.21.62Z"/><path class="cls-3" d="M358.98,115.5c-1.92,0-3.62-.39-5.08-1.18-1.46-.79-2.6-1.88-3.43-3.27-.83-1.39-1.24-2.99-1.24-4.81v-26.4h6.32v26.21c0,1.16.39,2.11,1.17,2.84.78.73,1.8,1.1,3.07,1.1.81,0,1.64-.16,2.49-.49.85-.33,1.59-.76,2.23-1.29l2.18,5.2c-1.07.63-2.3,1.13-3.68,1.51-1.38.38-2.73.57-4.04.57Z"/><path class="cls-3" d="M385.38,115.5c-1.92,0-3.62-.39-5.08-1.18-1.46-.79-2.6-1.88-3.43-3.27-.83-1.39-1.24-2.99-1.24-4.81v-26.4h6.32v26.21c0,1.16.39,2.11,1.17,2.84.78.73,1.8,1.1,3.07,1.1.81,0,1.64-.16,2.49-.49.85-.33,1.59-.76,2.23-1.29l2.18,5.2c-1.07.63-2.3,1.13-3.68,1.51-1.38.38-2.73.57-4.04.57Z"/><path class="cls-3" d="M408.82,115.5c-2.25,0-4.21-.52-5.89-1.57-1.68-1.05-2.98-2.52-3.91-4.42-.92-1.9-1.39-4.12-1.39-6.66s.46-4.75,1.39-6.65,2.23-3.37,3.91-4.42c1.68-1.05,3.64-1.58,5.89-1.58s4.21.53,5.89,1.58c1.68,1.05,2.98,2.53,3.91,4.42s1.39,4.11,1.39,6.65-.46,4.75-1.39,6.66c-.92,1.9-2.23,3.38-3.91,4.42-1.68,1.05-3.64,1.57-5.89,1.57ZM408.82,110.03c1.05,0,1.97-.29,2.74-.88.77-.59,1.36-1.42,1.78-2.5.41-1.08.62-2.34.62-3.79s-.21-2.73-.62-3.8-1-1.9-1.78-2.49c-.77-.59-1.68-.88-2.74-.88s-1.97.29-2.74.88c-.77.59-1.36,1.42-1.78,2.49-.41,1.07-.62,2.34-.62,3.8s.21,2.72.62,3.79c.41,1.08,1,1.91,1.78,2.5.77.59,1.68.88,2.74.88Z"/><path class="cls-3" d="M432.51,122.95l-1.97-2.15,2.47-2.45c.43-.46.89-.95,1.39-1.47.5-.52.91-1.08,1.25-1.7s.5-1.28.5-1.99h.94c-.05.61-.27,1.15-.69,1.62s-1,.7-1.76.7c-.63,0-1.24-.18-1.84-.53-.6-.35-1.1-.84-1.49-1.48-.39-.63-.58-1.37-.58-2.21,0-1.19.4-2.18,1.21-2.98.81-.79,1.81-1.19,3-1.19s2.19.43,3.05,1.28,1.28,2.09,1.28,3.71c0,1.41-.36,2.77-1.09,4.09s-1.71,2.63-2.97,3.93l-2.7,2.82Z"/><path class="cls-3" d="M478.91,115.14c-.6-2.6-1.13-5.1-1.59-7.52-.47-2.41-.83-4.82-1.1-7.21-.27-2.39-.4-4.84-.4-7.34v-11.71h5.52v11.71c0,1.65.05,3.27.15,4.86.1,1.59.23,3.11.4,4.56s.35,2.81.55,4.08h.18l4.06-12.76h2.66l4.06,12.76h.18c.21-1.27.4-2.63.57-4.08.17-1.45.31-2.97.41-4.55.11-1.58.16-3.2.16-4.87v-11.71h5.52v11.71c0,2.51-.14,4.95-.41,7.34-.27,2.39-.64,4.79-1.1,7.21-.46,2.41-.99,4.92-1.58,7.52h-5.36l-3.69-12.26h-.18l-3.71,12.26h-5.29Z"/><path class="cls-3" d="M514.41,115.5c-2.25,0-4.21-.52-5.89-1.57-1.68-1.05-2.98-2.52-3.91-4.42-.92-1.9-1.39-4.12-1.39-6.66s.46-4.75,1.39-6.65,2.23-3.37,3.91-4.42c1.68-1.05,3.64-1.58,5.89-1.58s4.21.53,5.89,1.58c1.68,1.05,2.98,2.53,3.91,4.42s1.39,4.11,1.39,6.65-.46,4.75-1.39,6.66c-.92,1.9-2.23,3.38-3.91,4.42-1.68,1.05-3.64,1.57-5.89,1.57ZM514.41,110.03c1.05,0,1.97-.29,2.74-.88.77-.59,1.36-1.42,1.78-2.5.41-1.08.62-2.34.62-3.79s-.21-2.73-.62-3.8-1-1.9-1.78-2.49c-.77-.59-1.68-.88-2.74-.88s-1.97.29-2.74.88c-.77.59-1.36,1.42-1.78,2.49-.41,1.07-.62,2.34-.62,3.8s.21,2.72.62,3.79c.41,1.08,1,1.91,1.78,2.5.77.59,1.68.88,2.74.88Z"/><path class="cls-3" d="M531.5,115.14v-24.54h6.21v3.94h.87l-1.74,2.43c.35-1.31.91-2.48,1.68-3.49s1.7-1.81,2.78-2.38c1.08-.57,2.28-.86,3.57-.86s2.48.27,3.51.81c1.02.54,1.9,1.28,2.62,2.22s1.27,2.01,1.64,3.22l-5.66,2.31c-.38-.89-.93-1.6-1.64-2.15-.71-.55-1.61-.82-2.69-.82-.86,0-1.65.23-2.39.68-.74.45-1.33,1.08-1.78,1.89-.44.81-.66,1.75-.66,2.82v13.93h-6.32Z"/><path class="cls-3" d="M570.16,115.5c-1.92,0-3.62-.39-5.08-1.18-1.46-.79-2.6-1.88-3.43-3.27-.83-1.39-1.24-2.99-1.24-4.81v-26.4h6.32v26.21c0,1.16.39,2.11,1.17,2.84.78.73,1.8,1.1,3.07,1.1.81,0,1.64-.16,2.49-.49.85-.33,1.59-.76,2.23-1.29l2.18,5.2c-1.07.63-2.3,1.13-3.68,1.51-1.38.38-2.73.57-4.04.57Z"/><path class="cls-3" d="M591.45,115.5c-1.86,0-3.49-.52-4.89-1.56-1.4-1.04-2.48-2.51-3.24-4.4-.76-1.89-1.15-4.13-1.15-6.71s.39-4.77,1.17-6.67c.78-1.89,1.88-3.36,3.29-4.4,1.41-1.04,3.07-1.56,4.96-1.56s3.51.52,4.89,1.56c1.38,1.04,2.46,2.51,3.23,4.41.77,1.9,1.16,4.12,1.16,6.66s-.39,4.8-1.17,6.69c-.78,1.89-1.87,3.37-3.28,4.41-1.41,1.05-3.06,1.57-4.97,1.57ZM593.08,110.14c.99,0,1.86-.3,2.6-.91.74-.6,1.32-1.46,1.73-2.55.41-1.1.62-2.38.62-3.85s-.2-2.74-.6-3.83c-.4-1.08-.96-1.92-1.68-2.52-.73-.6-1.58-.89-2.56-.89s-1.86.3-2.6.89c-.74.6-1.31,1.44-1.72,2.53-.41,1.09-.61,2.36-.61,3.82s.19,2.75.58,3.85c.39,1.1.95,1.95,1.67,2.55.73.6,1.58.91,2.55.91ZM603.53,115.5c-1.34-.53-2.46-1.2-3.33-1.99-.88-.79-1.4-1.6-1.57-2.41l.53.46h-1.88l.94-2.86v-13.31l-1.01-2.52h.53v-13.02h6.28v27.25c0,.69.16,1.31.47,1.87.31.56.73.95,1.25,1.18l-2.2,5.36Z"/><path class="cls-3" d="M620,115.5c-1.18,0-2.17-.4-2.97-1.21-.8-.81-1.2-1.81-1.2-3s.4-2.17,1.2-2.97c.8-.8,1.79-1.2,2.97-1.2s2.19.4,3,1.2c.81.8,1.21,1.79,1.21,2.97s-.4,2.19-1.21,3c-.81.81-1.81,1.21-3,1.21ZM617.44,103.93l-.85-22.57h6.83l-.85,22.57h-5.13Z"/><path class="cls-3" d="M638.63,95.41l-1.97-2.15,2.48-2.45c.43-.46.89-.95,1.39-1.47s.91-1.08,1.25-1.7c.34-.61.5-1.28.5-1.99h.94c-.04.61-.27,1.15-.69,1.62-.41.47-1,.7-1.76.7-.63,0-1.24-.18-1.84-.53-.6-.35-1.1-.84-1.49-1.48-.39-.63-.58-1.37-.58-2.21,0-1.19.4-2.18,1.21-2.98s1.81-1.19,3-1.19,2.19.43,3.05,1.28c.86.86,1.28,2.09,1.28,3.71,0,1.41-.36,2.77-1.09,4.09-.73,1.32-1.71,2.63-2.97,3.93l-2.7,2.82ZM649.43,95.41l-1.97-2.15,2.47-2.45c.43-.46.89-.95,1.39-1.47s.91-1.08,1.25-1.7c.34-.61.5-1.28.5-1.99h.94c-.04.61-.27,1.15-.69,1.62-.41.47-1,.7-1.76.7-.63,0-1.24-.18-1.84-.53-.61-.35-1.1-.84-1.49-1.48-.39-.63-.58-1.37-.58-2.21,0-1.19.4-2.18,1.21-2.98.81-.79,1.81-1.19,3-1.19s2.19.43,3.05,1.28c.86.86,1.28,2.09,1.28,3.71,0,1.41-.36,2.77-1.09,4.09-.73,1.32-1.71,2.63-2.97,3.93l-2.7,2.82Z"/><path class="cls-3" d="M670.09,122.95l-1.97-2.15,2.47-2.45c.43-.46.89-.95,1.39-1.47.5-.52.91-1.08,1.25-1.7.34-.61.5-1.28.5-1.99h.94c-.05.61-.28,1.15-.69,1.62s-1,.7-1.76.7c-.63,0-1.24-.18-1.84-.53-.6-.35-1.1-.84-1.49-1.48-.39-.63-.58-1.37-.58-2.21,0-1.19.4-2.18,1.21-2.98s1.81-1.19,3-1.19,2.19.43,3.05,1.28,1.28,2.09,1.28,3.71c0,1.41-.36,2.77-1.09,4.09-.73,1.32-1.72,2.63-2.97,3.93l-2.7,2.82ZM672.59,98.61c-1.16,0-2.15-.4-2.96-1.21-.81-.81-1.21-1.81-1.21-3s.4-2.17,1.2-2.97c.8-.8,1.79-1.2,2.97-1.2s2.19.4,3,1.2c.81.8,1.21,1.79,1.21,2.97s-.4,2.19-1.21,3c-.81.81-1.81,1.21-3,1.21Z"/></g></svg>