<?xml version="1.0" encoding="UTF-8"?><svg id="Layer_2" xmlns="http://www.w3.org/2000/svg" viewBox="0 0 60 60"><g id="Layer_1-2"><path d="M6,59c0,.55.45,1,1,1h24c.55,0,1-.45,1-1v-5h13c2.76,0,5-2.24,5-5v-8h9c.35,0,.68-.18.86-.49s.19-.67.03-.99l-7.88-14.78c-.14-13.67-11.3-24.75-25-24.75h-2C11.22,0,0,11.22,0,25v5.51c0,5.6,2.13,10.87,6,14.89v13.59ZM2,30.51v-5.51C2,12.32,12.32,2,25,2h2c12.68,0,23,10.32,23,23,0,.16.04.33.12.47l7.22,13.53h-8.33c-.55,0-1,.45-1,1v5.82c-1.16-.41-2-1.51-2-2.82h-2c0,2.41,1.72,4.43,4,4.9v1.1c0,1.65-1.35,3-3,3h-18v2h3v4H8v-13c0-.26-.1-.52-.29-.71-3.68-3.68-5.71-8.57-5.71-13.78Z"/><path d="M15,42h22c2.76,0,5-2.24,5-5V15c0-2.76-2.24-5-5-5H15c-2.76,0-5,2.24-5,5v22c0,2.76,2.24,5,5,5ZM12,37v-10h3v.5c0,1.93,1.57,3.5,3.5,3.5s3.5-1.57,3.5-3.5v-.5h3v4c0,.55.45,1,1,1h1.5c.83,0,1.5.67,1.5,1.5s-.67,1.5-1.5,1.5h-1.5c-.55,0-1,.45-1,1v4h-10c-1.65,0-3-1.35-3-3ZM37,40h-10v-3h.5c1.93,0,3.5-1.57,3.5-3.5s-1.57-3.5-3.5-3.5h-.5v-3h4c.55,0,1-.45,1-1v-1.5c0-.83.67-1.5,1.5-1.5s1.5.67,1.5,1.5v1.5c0,.55.45,1,1,1h4v10c0,1.65-1.35,3-3,3ZM40,15v10h-3v-.5c0-1.93-1.57-3.5-3.5-3.5s-3.5,1.57-3.5,3.5v.5h-3v-4c0-.55-.45-1-1-1h-1.5c-.83,0-1.5-.67-1.5-1.5s.67-1.5,1.5-1.5h1.5c.55,0,1-.45,1-1v-4h10c1.65,0,3,1.35,3,3ZM15,12h10v3h-.5c-1.93,0-3.5,1.57-3.5,3.5s1.57,3.5,3.5,3.5h.5v3h-4c-.55,0-1,.45-1,1v1.5c0,.83-.67,1.5-1.5,1.5s-1.5-.67-1.5-1.5v-1.5c0-.55-.45-1-1-1h-4v-10c0-1.65,1.35-3,3-3Z"/><rect x="23" y="52" width="2" height="2"/><rect x="19" y="52" width="2" height="2"/><rect x="15" y="52" width="2" height="2"/></g></svg>