<?xml version="1.0" encoding="UTF-8"?>
<svg id="Layer_2" xmlns="http://www.w3.org/2000/svg" version="1.1" viewBox="0 0 342.7 297.9">
  <!-- Generator: Adobe Illustrator 29.1.0, SVG Export Plug-In . SVG Version: 2.1.0 Build 142)  -->
  <defs>
    <style>
      .st0 {
        fill: #ccb196;
      }

      .st1 {
        fill: #414042;
      }

      .st2 {
        fill: #8b5e3c;
      }

      .st3 {
        fill: #a97c50;
      }
    </style>
  </defs>
  <g id="Layer_1-2">
    <polygon class="st0" points="282.9 100.6 282.9 229.5 171.4 165.1 171.4 36.2 282.9 100.6"/>
    <path class="st1" d="M282.9,233.5c-.7,0-1.4-.2-2-.5l-111.5-64.4c-1.2-.7-2-2-2-3.5V36.2c0-1.4.7-2.8,2-3.5s2.8-.7,4,0l111.6,64.4c1.2.7,2,2,2,3.5v128.8c0,1.4-.8,2.8-2,3.5-.6.4-1.3.5-2,.5ZM175.4,162.8l103.5,59.8v-119.6l-103.6-59.8v119.6h0Z"/>
    <polygon class="st2" points="171.4 165 171.4 293.9 282.9 229.5 282.9 100.6 171.4 165"/>
    <path class="st1" d="M171.4,297.9c-.7,0-1.4-.2-2-.5-1.2-.7-2-2-2-3.5v-128.8c0-1.4.8-2.8,2-3.5l111.6-64.4c1.2-.7,2.8-.7,4,0s2,2,2,3.5v128.9c0,1.4-.8,2.8-2,3.5l-111.5,64.4c-.6.4-1.3.5-2,.5h0ZM175.4,167.4v119.6l103.5-59.8v-119.6s-103.5,59.8-103.5,59.8h0Z"/>
    <polygon class="st2" points="59.8 100.6 59.8 229.5 171.3 165.1 171.4 36.2 59.8 100.6"/>
    <path class="st1" d="M59.8,233.5c-.7,0-1.4-.2-2-.5-1.2-.7-2-2-2-3.5V100.6c0-1.4.8-2.8,2-3.5l111.6-64.4c1.2-.7,2.8-.7,4,0s2,2,2,3.5v128.9c0,1.4-.8,2.8-2,3.5l-111.5,64.4c-.6.4-1.3.5-2,.5h0ZM63.8,102.9v119.6l103.5-59.8V43.1s-103.5,59.8-103.5,59.8Z"/>
    <polygon class="st0" points="171.4 165 171.4 293.9 59.8 229.5 59.8 100.6 171.4 165"/>
    <path class="st1" d="M171.4,297.9c-.7,0-1.4-.2-2-.5l-111.5-64.4c-1.2-.7-2-2-2-3.5V100.6c0-1.4.7-2.8,2-3.5s2.8-.7,4,0l111.6,64.4c1.2.7,2,2,2,3.5v128.8c0,1.4-.8,2.8-2,3.5-.6.4-1.3.5-2,.5ZM63.8,227.2l103.5,59.8v-119.6l-103.6-59.8v119.6s0,0,0,0Z"/>
    <polygon class="st3" points="115.6 4 4 68.4 59.8 100.6 171.4 36.2 115.6 4"/>
    <path class="st1" d="M59.8,104.6c-.7,0-1.4-.2-2-.5L2,71.9c-1.2-.7-2-2-2-3.5s.8-2.8,2-3.5L113.6.5c1.2-.7,2.8-.7,4,0l55.8,32.2c1.2.7,2,2,2,3.5s-.8,2.8-2,3.5L61.8,104.1c-.6.4-1.3.5-2,.5h0ZM12,68.4l47.8,27.6,103.6-59.8-47.8-27.6L12,68.4Z"/>
    <polygon class="st3" points="4 132.8 59.8 100.6 171.4 165 115.6 197 4 132.8"/>
    <path class="st1" d="M115.6,201c-.7,0-1.4-.2-2-.5L2,136.3c-1.2-.7-2-2-2-3.5s.8-2.8,2-3.5l55.8-32.2c1.2-.7,2.8-.7,4,0l111.6,64.4c1.2.7,2,2,2,3.5s-.8,2.8-2,3.5l-55.8,31.9c-.6.4-1.3.5-2,.5h0ZM12,132.8l103.6,59.5,47.8-27.3-103.5-59.8s-47.8,27.6-47.8,27.6Z"/>
    <polygon class="st3" points="227.1 4 338.7 68.4 282.9 100.6 171.4 36.2 227.1 4"/>
    <path class="st1" d="M282.9,104.6c-.7,0-1.4-.2-2-.5l-111.6-64.4c-1.2-.7-2-2-2-3.5s.8-2.8,2-3.5L225.1.5c1.2-.7,2.8-.7,4,0l111.6,64.4c1.2.7,2,2,2,3.5s-.8,2.8-2,3.5l-55.8,32.2c-.6.4-1.3.5-2,.5h0ZM179.4,36.2l103.6,59.8,47.8-27.6L227.1,8.6l-47.8,27.6h0Z"/>
    <polygon class="st3" points="338.7 132.8 227.1 197.2 171.4 165 282.9 100.6 338.7 132.8"/>
    <path class="st1" d="M227.1,201.2c-.7,0-1.4-.2-2-.5l-55.8-32.2c-1.2-.7-2-2-2-3.5s.8-2.8,2-3.5l111.6-64.4c1.2-.7,2.8-.7,4,0l55.8,32.2c1.2.7,2,2,2,3.5s-.8,2.8-2,3.5l-111.6,64.4c-.6.4-1.3.5-2,.5h0ZM179.4,165l47.8,27.6,103.6-59.8-47.8-27.6-103.6,59.8h0Z"/>
  </g>
  <g>
    <path class="st1" d="M198.4,247.9c-.8-.2-1.7-.2-2.5-.1-.8,0-1.5.2-2,.3,0,0-.1,0-.2,0v-7.8c.1,0,.3,0,.4,0,.5,0,1,0,1.4.3.4.2.7.6.9,1l4.5-4.5c-.4-.8-1-1.5-1.8-1.9s-1.8-.5-2.9-.4c-.6,0-1.3.3-2.1.6v-4.7l-3.1,1.8v4.6c-1.1.8-2.2,1.7-3.1,2.7-1.3,1.4-2.3,2.9-3.1,4.5-.8,1.6-1.1,3.2-1.1,4.8s.3,2.6.9,3.4c.6.7,1.4,1.2,2.4,1.4,1,.2,2.2.1,3.4-.1.2,0,.5,0,.7-.1v8.7c-.3.1-.7.1-1,.1-.7,0-1.2-.2-1.7-.6-.5-.4-.8-.8-1.1-1.4l-4.8,4.9c.4,1,1,1.7,2,2.2.9.5,2.1.7,3.4.6.9,0,1.9-.4,2.9-.8v5l3.1-1.8v-5c1.1-.8,2.1-1.7,3-2.8,1.4-1.6,2.5-3.3,3.3-5.1.8-1.8,1.2-3.5,1.3-5.2,0-1.4-.3-2.5-.8-3.2-.6-.7-1.3-1.1-2.1-1.3ZM189.3,248.3c-.6-.2-.9-.8-.9-1.7s.2-1.5.6-2.2c.4-.7.9-1.4,1.4-2,.2-.2.5-.5.7-.7v6.8c-.7,0-1.3,0-1.8-.2ZM195.7,257.8c-.4.8-.9,1.6-1.6,2.3-.2.2-.4.4-.6.6v-7.5c.2,0,.4,0,.6,0,.6,0,1.2.2,1.6.5.4.3.6.9.6,1.7s-.2,1.6-.6,2.4Z"/>
    <path class="st1" d="M221.1,229c-1.2-.2-2.7.2-4.4,1.2s-3.1,2.2-4.3,3.8c-.4.5-.8,1.1-1.1,1.7v-11.5l-5.5,3.2v31l5.3-3v-2.4c.4.3.9.4,1.4.5,1.2.2,2.7-.2,4.4-1.1s3.1-2.2,4.3-3.9c1.2-1.6,2.2-3.4,2.8-5.5.7-2,1-4.2,1-6.5s-.3-4-1-5.3c-.7-1.3-1.6-2-2.9-2.2ZM219.1,243.2c-.3,1.2-.8,2.2-1.5,3.1-.6.9-1.4,1.6-2.2,2.1s-1.6.7-2.3.5c-.7-.2-1.2-.6-1.5-1.4s-.5-1.8-.5-3,.2-2.5.5-3.7.8-2.2,1.5-3.1c.6-.9,1.4-1.6,2.2-2.1s1.6-.7,2.3-.5c.7.1,1.2.6,1.5,1.4s.5,1.8.5,3.1-.2,2.5-.5,3.7Z"/>
    <path class="st1" d="M243.3,216.2c-1.5,0-3.2.5-5.2,1.6s-3.7,2.6-5.2,4.4c-1.5,1.8-2.6,3.7-3.4,5.9-.8,2.1-1.2,4.3-1.2,6.5s.4,3.9,1.2,5.1c.8,1.2,2,1.8,3.4,1.9,1.5,0,3.2-.5,5.2-1.6s3.7-2.6,5.2-4.4c1.5-1.8,2.6-3.7,3.4-5.9.8-2.1,1.2-4.3,1.2-6.5s-.4-3.9-1.2-5.1c-.8-1.2-2-1.8-3.4-1.9ZM242.1,229.9c-.4,1.2-.9,2.2-1.6,3.1-.7.9-1.5,1.6-2.4,2.2s-1.7.7-2.4.6c-.7-.1-1.2-.6-1.6-1.3-.4-.7-.5-1.7-.5-3s.2-2.5.5-3.7c.4-1.1.9-2.2,1.6-3.1.7-.9,1.5-1.6,2.4-2.2s1.7-.7,2.4-.6c.7.1,1.2.6,1.6,1.3.4.7.5,1.7.5,3s-.2,2.5-.5,3.6Z"/>
    <polygon class="st1" points="264.8 213.5 264.8 213.4 264.8 213.4 271.8 198.7 265.8 202.1 261.4 212.2 261.2 212.3 256.7 207.4 250.9 210.7 257.8 217.4 257.8 217.5 257.8 217.5 257.8 217.6 250.8 232.3 256.9 228.8 261.2 219.1 261.4 219.1 265.7 223.7 271.7 220.3 264.8 213.5 264.8 213.5"/>
  </g>
</svg>